<?xml version="1.0" encoding="UTF-8"?>
<svg width="15px" height="15px" viewBox="0 0 15 15" version="1.1" xmlns="http://www.w3.org/2000/svg" xmlns:xlink="http://www.w3.org/1999/xlink">
    <!-- Generator: sketchtool 51.3 (57544) - http://www.bohemiancoding.com/sketch -->
    <title>AAC9C00B-202B-4DCC-8D09-701FCB12C7DB</title>
    <desc>Created with sketchtool.</desc>
    <defs>
        <path d="M14,7.52272727 L14,8.47727273 C14,8.74076705 13.7862216,8.95454545 13.5227273,8.95454545 L11.4545455,8.95454545 L11.4545455,11.0227273 C11.4545455,11.2862216 11.240767,11.5 10.9772727,11.5 L10.0227273,11.5 C9.75923295,11.5 9.54545455,11.2862216 9.54545455,11.0227273 L9.54545455,8.95454545 L7.47727273,8.95454545 C7.21377841,8.95454545 7,8.74076705 7,8.47727273 L7,7.52272727 C7,7.25923295 7.21377841,7.04545455 7.47727273,7.04545455 L9.54545455,7.04545455 L9.54545455,4.97727273 C9.54545455,4.71377841 9.75923295,4.5 10.0227273,4.5 L10.9772727,4.5 C11.240767,4.5 11.4545455,4.71377841 11.4545455,4.97727273 L11.4545455,7.04545455 L13.5227273,7.04545455 C13.7862216,7.04545455 14,7.25923295 14,7.52272727 Z M13.1944109,2.14903846 C13.4716057,2.14903846 13.7072179,2.24605522 13.9012543,2.44009165 C14.0952907,2.63412807 14.1923075,2.8697402 14.1923075,3.1469351 L14.1923075,5.19816707 C14.1923075,5.33676452 14.1437991,5.45457058 14.0467809,5.55158879 C13.9497627,5.64860701 13.8319566,5.69711538 13.6933592,5.69711538 C13.5547617,5.69711538 13.4369557,5.64860701 13.3399374,5.55158879 C13.2429192,5.45457058 13.1944109,5.33676452 13.1944109,5.19816707 L13.1944109,3.1469351 L0.997896619,3.1469351 L0.997896619,10.9083534 L7.48422464,10.9083534 C7.62282209,10.9083534 7.74062815,10.9568617 7.83764636,11.05388 C7.93466457,11.1508982 7.98317295,11.2687042 7.98317295,11.4073017 C7.98317295,11.5458991 7.93466457,11.6637052 7.83764636,11.7607234 C7.74062815,11.8577416 7.62282209,11.90625 7.48422464,11.90625 L0.997896619,11.90625 C0.720701728,11.90625 0.485089604,11.8092332 0.291053181,11.6151968 C0.0970167567,11.4211604 0,11.1855483 0,10.9083534 L0,1.37289663 C0,1.09570174 0.0970167567,0.860089612 0.291053181,0.666053185 C0.485089604,0.472016758 0.720701728,0.375 0.997896619,0.375 L5.47457173,0.375 C5.69632764,0.375 5.894981,0.439677839 6.07053777,0.569035457 C6.24609453,0.698393075 6.36621052,0.864707517 6.43088932,1.06798377 L6.7773812,2.14903846 L13.1944109,2.14903846 Z M0.997896612,2.14903843 L5.72404569,2.14903843 L5.47457155,1.37289661 L0.997896612,1.37289661 L0.997896612,2.14903843 Z" id="path-1"></path>
    </defs>
    <g id="new0305-menu改個概念" stroke="none" stroke-width="1" fill="none" fill-rule="evenodd">
        <g id="tree-view-3" transform="translate(-351.000000, -280.000000)">
            <g id="Group-10" transform="translate(351.000000, 280.000000)">
                <g id="ic/white/1x/More-Copy-3">
                    <g id="🎨icon-color/" transform="translate(0.500000, 1.500000)">
                        <mask id="mask-2" fill="white">
                            <use xlink:href="#path-1"></use>
                        </mask>
                        <use id="Mask" fill="#FFFFFF" xlink:href="#path-1"></use>
                        <g mask="url(#mask-2)" fill="#9B9B9B" id="Icon-Shade">
                            <g transform="translate(-0.500000, -1.500000)">
                                <rect x="0" y="0" width="15" height="15"></rect>
                            </g>
                        </g>
                    </g>
                </g>
            </g>
        </g>
    </g>
</svg>