<?xml version="1.0" encoding="UTF-8"?>
<svg width="15px" height="15px" viewBox="0 0 15 15" version="1.1" xmlns="http://www.w3.org/2000/svg" xmlns:xlink="http://www.w3.org/1999/xlink">
    <!-- Generator: sketchtool 51.3 (57544) - http://www.bohemiancoding.com/sketch -->
    <title>9E095E7D-DE11-4D2A-9939-63A6D7214B81</title>
    <desc>Created with sketchtool.</desc>
    <defs>
        <path d="M8.74078955,7.95065784 C8.74078955,7.95065784 7.8807018,7.95065784 6.1605263,7.95065784 C5.80426629,7.95065784 5.51546049,8.23946363 5.51546049,8.59572363 L5.51546049,11.1759868 C5.51546049,11.5322468 5.80426629,11.8210526 6.1605263,11.8210526 C6.97812038,11.8210526 7.35941705,11.8210526 7.30441629,11.8210526 C7.01769128,11.557261 6.57961546,11.3630811 6.51595085,10.6296895 C6.52795008,10.3165896 6.51595085,9.46893149 6.57961546,9.09677702 C6.83229637,8.19846041 7.68122935,8.06715745 7.7629953,8.06715745 C7.85486619,8.06715745 8.27636098,8.06715745 9.02747965,8.06715745 C8.98159354,7.97200349 8.90647084,7.95065784 8.74078955,7.95065784 Z M4.87039493,2.14506578 C4.87039493,1.78880579 4.58158912,1.5 4.22532911,1.5 L1.64506582,1.5 C1.28880581,1.5 1,1.78880579 1,2.14506578 L1,4.72532892 C1,5.08158892 1.28880581,5.37039471 1.64506582,5.37039471 L3.57475872,5.37039471 L5.04963722,7.95065784 C5.27833046,7.55284434 5.70166477,7.30702464 6.16052657,7.30559206 L6.16603113,7.30559206 L4.87039493,5.03805681 L4.87039493,4.08026314 L9.38585567,4.08026314 L9.38585567,2.79013157 L4.87039493,2.79013157 L4.87039493,2.14506578 Z M13.2562499,1.5 C13.6125099,1.5 13.9013157,1.78880579 13.9013157,2.14506578 L13.9013157,4.72532892 C13.9013157,5.08158892 13.6125099,5.37039471 13.2562499,5.37039471 L10.6759868,5.37039471 C10.3197268,5.37039471 10.030921,5.08158892 10.030921,4.72532892 L10.030921,2.14506578 C10.030921,1.78880579 10.3197268,1.5 10.6759868,1.5 L13.2562499,1.5 Z M14.5,9.52272727 L14.5,10.4772727 C14.5,10.740767 14.2862216,10.9545455 14.0227273,10.9545455 L11.9545455,10.9545455 L11.9545455,13.0227273 C11.9545455,13.2862216 11.740767,13.5 11.4772727,13.5 L10.5227273,13.5 C10.259233,13.5 10.0454545,13.2862216 10.0454545,13.0227273 L10.0454545,10.9545455 L7.97727273,10.9545455 C7.71377841,10.9545455 7.5,10.740767 7.5,10.4772727 L7.5,9.52272727 C7.5,9.25923295 7.71377841,9.04545455 7.97727273,9.04545455 L10.0454545,9.04545455 L10.0454545,6.97727273 C10.0454545,6.71377841 10.259233,6.5 10.5227273,6.5 L11.4772727,6.5 C11.740767,6.5 11.9545455,6.71377841 11.9545455,6.97727273 L11.9545455,9.04545455 L14.0227273,9.04545455 C14.2862216,9.04545455 14.5,9.25923295 14.5,9.52272727 Z" id="path-1"></path>
    </defs>
    <g id="new0305-menu改個概念" stroke="none" stroke-width="1" fill="none" fill-rule="evenodd">
        <g id="tree-view-3" transform="translate(-373.000000, -280.000000)">
            <g id="Group-11" transform="translate(373.000000, 280.000000)">
                <g id="ic/white/1x/More-Copy-2">
                    <mask id="mask-2" fill="white">
                        <use xlink:href="#path-1"></use>
                    </mask>
                    <use id="Mask" fill="#0063A5" fill-rule="nonzero" xlink:href="#path-1"></use>
                    <g id="🎨icon-color/gray" mask="url(#mask-2)" fill="#9B9B9B">
                        <g transform="translate(-1.250000, -1.250000)" id="Icon-Shade">
                            <rect x="0" y="0" width="17.5" height="17.5"></rect>
                        </g>
                    </g>
                </g>
            </g>
        </g>
    </g>
</svg>