<?xml version="1.0" encoding="UTF-8"?>
<svg width="40px" height="40px" viewBox="0 0 40 40" version="1.1" xmlns="http://www.w3.org/2000/svg" xmlns:xlink="http://www.w3.org/1999/xlink">
    <!-- Generator: sketchtool 51.3 (57544) - http://www.bohemiancoding.com/sketch -->
    <title>0AC3F4C9-5ACE-4AE6-BA5D-F3298413F45C</title>
    <desc>Created with sketchtool.</desc>
    <defs>
        <path d="M14.6624568,8.72727273 L7.86270361,8.72727273 L7.86270361,23.2727273 L14.6624568,23.2727273 L14.6624568,8.72727273 Z M16.9290412,5.81818182 L16.9290412,26.1818182 L5.59611921,26.1818182 L5.59611921,5.81818182 L16.9290412,5.81818182 Z M28.2619632,23.2727273 L28.2619632,26.1818182 L19.1956256,26.1818182 L19.1956256,23.2727273 L28.2619632,23.2727273 Z M28.2619632,17.4545455 L28.2619632,20.3636364 L19.1956256,20.3636364 L19.1956256,17.4545455 L28.2619632,17.4545455 Z M28.2619632,11.6363636 L28.2619632,14.5454545 L19.1956256,14.5454545 L19.1956256,11.6363636 L28.2619632,11.6363636 Z M28.2619632,5.81818182 L28.2619632,8.72727273 L19.1956256,8.72727273 L19.1956256,5.81818182 L28.2619632,5.81818182 Z M31,27.6363636 L31,2.90909091 L3.19909502,2.90909091 L3.19909502,27.6363636 C3.19909502,28.1363636 3.12669683,28.6363636 3,29.0909091 L29.841629,29.0909091 C30.4751131,29.0909091 31,28.4318182 31,27.6363636 Z M34,0 L34,27.6363636 C34,30.0454545 32.3715341,32 30.3643553,32 L1.53015004,32 C-0.47702883,32 0.0673157789,30.0454545 0.0673157789,27.6363636 L0.0673157789,0 L34,0 Z" id="path-1"></path>
    </defs>
    <g id="new11-21-guidline" stroke="none" stroke-width="1" fill="none" fill-rule="evenodd">
        <g id="guideline" transform="translate(-2597.000000, -2566.000000)">
            <g id="3x" transform="translate(1582.000000, 2566.000000)">
                <g id="ic/white/3x/ANALYSIS" transform="translate(1015.000000, 0.000000)">
                    <g id="🎨icon-color/" transform="translate(3.000000, 4.000000)">
                        <mask id="mask-2" fill="white">
                            <use xlink:href="#path-1"></use>
                        </mask>
                        <use id="Mask" fill="#FFFFFF" xlink:href="#path-1"></use>
                        <g mask="url(#mask-2)" fill="#FFFFFF" id="Icon-Shade">
                            <g transform="translate(-3.000000, -4.000000)">
                                <rect x="0" y="0" width="40" height="40"></rect>
                            </g>
                        </g>
                    </g>
                </g>
            </g>
        </g>
    </g>
</svg>