<?xml version="1.0" encoding="UTF-8" standalone="no"?>
<svg
   xmlns:dc="http://purl.org/dc/elements/1.1/"
   xmlns:cc="http://creativecommons.org/ns#"
   xmlns:rdf="http://www.w3.org/1999/02/22-rdf-syntax-ns#"
   xmlns:svg="http://www.w3.org/2000/svg"
   xmlns="http://www.w3.org/2000/svg"
   xmlns:sodipodi="http://sodipodi.sourceforge.net/DTD/sodipodi-0.dtd"
   xmlns:inkscape="http://www.inkscape.org/namespaces/inkscape"
   aria-hidden="true"
   focusable="false"
   data-prefix="fas"
   data-icon="arrow-up"
   class="svg-inline--fa fa-arrow-up fa-w-14"
   role="img"
   viewBox="0 0 448 512"
   id="svg4142"
   version="1.1"
   inkscape:version="0.48+devel_64bit r13443"
   sodipodi:docname="arrow-up.svg">
  <metadata
     id="metadata4150">
    <rdf:RDF>
      <cc:Work
         rdf:about="">
        <dc:format>image/svg+xml</dc:format>
        <dc:type
           rdf:resource="http://purl.org/dc/dcmitype/StillImage" />
      </cc:Work>
    </rdf:RDF>
  </metadata>
  <defs
     id="defs4148" />
  <sodipodi:namedview
     pagecolor="#ffffff"
     bordercolor="#666666"
     borderopacity="1"
     objecttolerance="10"
     gridtolerance="10"
     guidetolerance="10"
     inkscape:pageopacity="0"
     inkscape:pageshadow="2"
     inkscape:window-width="1920"
     inkscape:window-height="1018"
     id="namedview4146"
     showgrid="false"
     inkscape:zoom="0.4609375"
     inkscape:cx="224"
     inkscape:cy="256"
     inkscape:window-x="-8"
     inkscape:window-y="-8"
     inkscape:window-maximized="1"
     inkscape:current-layer="svg4142" />
  <path
     d="M 34.9,289.5 12.7,267.3 c -9.4,-9.4 -9.4,-24.6 0,-33.9 L 207,39 c 9.4,-9.4 24.6,-9.4 33.9,0 l 194.3,194.3 c 9.4,9.4 9.4,24.6 0,33.9 L 413,289.4 c -9.5,9.5 -25,9.3 -34.3,-0.4 L 264,168.6 264,456 c 0,13.3 -10.7,24 -24,24 l -32,0 c -13.3,0 -24,-10.7 -24,-24 L 184,168.6 69.2,289.1 c -9.3,9.8 -24.8,10 -34.3,0.4 z"
     id="path4144"
     style="fill:#7ed321;fill-opacity:1"
     inkscape:connector-curvature="0" />
</svg>
