<?xml version="1.0" encoding="utf-8"?>
<!-- Generator: Adobe Illustrator 15.0.0, SVG Export Plug-In . SVG Version: 6.00 Build 0)  -->
<!DOCTYPE svg PUBLIC "-//W3C//DTD SVG 1.1//EN" "http://www.w3.org/Graphics/SVG/1.1/DTD/svg11.dtd">
<svg version="1.1" id="Ebene_1" xmlns="http://www.w3.org/2000/svg" xmlns:xlink="http://www.w3.org/1999/xlink" x="0px" y="0px"
	 width="109px" height="17px" viewBox="0 0 109 17" enable-background="new 0 0 109 17" xml:space="preserve">
<title>3FDF47C5-041A-4D62-A0C4-E26AA9F33A98</title>
<desc>Created with sketchtool.</desc>
<g>
	<path d="M8.924,10.715H4.51l-1.198,1.83H0.499l6.271-8.89H9.92l2.18,8.89H9.287L8.924,10.715z M7.901,5.572L5.586,9.096h3.015
		L7.901,5.572z"/>
	<path d="M14.25,5.871h2.288L16.322,6.78h0.027c1.117-0.896,1.951-1.083,2.947-1.083c2.342,0,3.917,1.17,3.378,3.511
		c-0.498,2.167-2.57,3.586-4.845,3.586c-1.332,0-2.22-0.398-2.543-0.996h-0.027l-0.74,3.225H12.15L14.25,5.871z M17.533,11.176
		c1.198,0,2.396-0.66,2.678-1.931c0.296-1.27-0.592-1.93-1.79-1.93c-1.184,0-2.369,0.66-2.665,1.93
		C15.474,10.516,16.349,11.176,17.533,11.176z"/>
	<path d="M29.198,5.622c2.853,0,4.522,1.071,3.943,3.586c-0.579,2.515-2.732,3.586-5.585,3.586c-2.854,0-4.522-1.071-3.943-3.586
		C24.191,6.693,26.345,5.622,29.198,5.622z M27.906,11.25c1.467,0,2.49-0.734,2.786-2.042c0.296-1.308-0.377-2.042-1.844-2.042
		c-1.467,0-2.49,0.734-2.786,2.042C25.766,10.516,26.439,11.25,27.906,11.25z"/>
	<path d="M35.721,3.505h2.369l-2.072,9.04h-2.369L35.721,3.505z"/>
	<path d="M39.704,3.505h2.369L40,12.545h-2.369L39.704,3.505z"/>
	<path d="M47.629,5.622c2.853,0,4.522,1.071,3.943,3.586c-0.579,2.515-2.732,3.586-5.585,3.586c-2.854,0-4.522-1.071-3.943-3.586
		C42.623,6.693,44.776,5.622,47.629,5.622z M46.337,11.25c1.467,0,2.49-0.734,2.786-2.042c0.296-1.308-0.377-2.042-1.844-2.042
		c-1.467,0-2.49,0.734-2.786,2.042S44.87,11.25,46.337,11.25z"/>
	<path d="M65.119,6.232c0.107-1.158-1.063-1.283-2.113-1.283c-1.076,0-1.884,0.448-2.019,1.046C60.88,6.469,61.243,6.73,61.902,6.83
		l3.149,0.485c1.695,0.262,2.88,0.872,2.517,2.49c-0.391,1.656-1.897,2.988-5.68,2.988c-2.342,0-5.329-0.274-4.71-3.051h2.934
		c-0.256,1.221,1.01,1.433,2.14,1.433c1.226,0,2.141-0.337,2.315-1.108c0.161-0.685-0.391-0.872-1.387-1.021L60.866,8.71
		c-1.602-0.236-3.122-0.697-2.705-2.515c0.458-1.98,2.396-2.789,5.41-2.789c1.979,0,4.845,0.311,4.441,2.827H65.119z"/>
	<path d="M77.336,10.553c-1.05,1.581-2.84,2.241-5.007,2.241c-2.854,0-4.522-1.071-3.943-3.586c0.579-2.515,2.732-3.586,5.585-3.586
		c3.122,0,4.293,1.457,3.715,3.972l-0.041,0.199H70.7v0.025c-0.147,0.635,0.323,1.605,1.938,1.605c0.955,0,1.695-0.299,2.167-0.871
		H77.336z M75.491,8.498l0.014-0.024c0.081-0.361-0.161-1.482-1.897-1.482c-1.871,0-2.57,1.32-2.598,1.482l-0.013,0.024H75.491z"/>
	<path d="M79.755,5.871h2.288l-0.296,1.308h0.026c1.09-1.021,1.871-1.482,3.217-1.482c0.269,0,0.592,0.012,0.848,0.062l-0.471,2.055
		c-0.404-0.112-0.821-0.199-1.266-0.199c-1.614,0-2.557,0.76-2.853,2.055l-0.66,2.876h-2.368L79.755,5.871z"/>
	<path d="M86.736,5.871h2.368l-1.534,6.674h-2.368L86.736,5.871z M87.274,3.505h2.369l-0.351,1.544h-2.368L87.274,3.505z"/>
	<path d="M98.498,10.553c-1.05,1.581-2.84,2.241-5.007,2.241c-2.854,0-4.522-1.071-3.943-3.586c0.579-2.515,2.732-3.586,5.585-3.586
		c3.122,0,4.293,1.457,3.715,3.972l-0.041,0.199h-6.944v0.025c-0.147,0.635,0.323,1.605,1.938,1.605
		c0.955,0,1.695-0.299,2.167-0.871H98.498z M96.653,8.498l0.014-0.024c0.081-0.361-0.161-1.482-1.897-1.482
		c-1.871,0-2.57,1.32-2.598,1.482l-0.013,0.024H96.653z"/>
	<path d="M102.048,10.479c-0.014,0.572,0.322,0.945,1.547,0.945c1.077,0,1.764-0.236,1.871-0.722
		c0.094-0.374-0.081-0.522-1.185-0.673l-2.086-0.273c-1.467-0.187-2.234-0.623-1.938-1.893c0.417-1.806,2.489-2.241,4.454-2.241
		c3.324,0,3.876,1.009,3.755,2.254h-2.61c0.013-0.685-0.714-0.884-1.4-0.884c-0.619,0-1.561,0.05-1.709,0.709
		c-0.081,0.312,0.054,0.523,1.05,0.623l1.602,0.162c2.355,0.237,2.988,0.897,2.719,2.054c-0.458,1.979-2.907,2.254-4.966,2.254
		c-2.732,0-3.957-0.734-3.715-2.315H102.048z"/>
</g>
</svg>
