<?xml version="1.0" encoding="utf-8"?>
<!-- Generator: Adobe Illustrator 15.0.0, SVG Export Plug-In . SVG Version: 6.00 Build 0)  -->
<!DOCTYPE svg PUBLIC "-//W3C//DTD SVG 1.1//EN" "http://www.w3.org/Graphics/SVG/1.1/DTD/svg11.dtd">
<svg version="1.1" id="Ebene_1" xmlns="http://www.w3.org/2000/svg" xmlns:xlink="http://www.w3.org/1999/xlink" x="0px" y="0px"
	 width="38px" height="38px" viewBox="0 0 38 38" enable-background="new 0 0 38 38" xml:space="preserve">
<title>B9E6DB01-56A3-4DC1-92EE-913C9A79B8DA</title>
<desc>Created with sketchtool.</desc>
<g display="none">
	<polygon display="inline" fill="#FFFFFF" points="-7.884,102.641 -9.09,109.447 -6.595,109.447 -7.843,102.641 	"/>
	<path display="inline" fill="#FFFFFF" d="M13.496,88.5H-7.496c-4.697,0-8.504,3.807-8.504,8.504v20.992
		c0,4.696,3.807,8.504,8.504,8.504h20.992c4.696,0,8.504-3.808,8.504-8.504V97.004C22,92.307,18.192,88.5,13.496,88.5z
		 M-5.553,115.141l-0.531-2.91h-3.499l-0.511,2.91h-3.559l3.723-15.281h4.296l3.641,15.281H-5.553z M3.45,115.44
		c-2.497,0-4.808-0.792-4.808-3.98v-0.985h3.314v0.536c0,1.155,0.307,2.033,1.494,2.033c1.205,0,1.555-0.942,1.555-1.819
		c0-3.297-6.28-1.456-6.28-7.171c0-2.439,1.248-4.494,4.786-4.494c3.438,0,4.664,1.819,4.664,4.174v0.363H4.86
		c0-0.729-0.08-1.263-0.285-1.604c-0.205-0.364-0.533-0.536-1.043-0.536c-0.859,0-1.371,0.536-1.371,1.648
		c0,3.189,6.279,1.584,6.279,6.978C8.44,114.05,6.601,115.44,3.45,115.44z M19.651,109.683c0,3.297-0.881,5.758-5.135,5.758
		c-4.398,0-4.744-3.446-4.744-8.047c0-3.918,0.203-7.834,5.072-7.834c3.027,0,4.684,1.37,4.684,4.966v0.642h-3.314
		c0-2.226-0.244-3.211-1.391-3.211c-1.371,0-1.492,1.37-1.492,5.373c0,4.537,0.143,5.715,1.574,5.715c1.27,0,1.412-1.52,1.432-3.896
		h3.314V109.683z"/>
</g>
<g>
	<path fill="#FFFFFF" d="M34.613,25.076c-1.134,0.134-2.276,0.017-3.427-0.354c-1.151-0.37-2.216-1.046-3.195-2.022
		c-0.979-0.979-1.655-2.041-2.028-3.191s-0.494-2.293-0.362-3.427c0.133-1.134,0.482-2.206,1.049-3.219
		c0.565-1.012,1.296-1.866,2.19-2.562c0.894-0.695,1.931-1.183,3.108-1.461c1.178-0.278,2.439-0.258,3.785,0.063l-1.747,3.42
		c-0.689-0.022-1.324,0.085-1.901,0.318c-0.578,0.234-1.073,0.558-1.483,0.968c-0.411,0.412-0.738,0.89-0.982,1.435
		c-0.244,0.544-0.378,1.112-0.399,1.702c-0.021,0.589,0.077,1.175,0.294,1.758c0.217,0.584,0.57,1.12,1.061,1.607
		c0.489,0.489,1.025,0.843,1.61,1.06c0.583,0.216,1.167,0.311,1.75,0.281c0.583-0.027,1.148-0.166,1.692-0.41
		c0.544-0.245,1.022-0.573,1.434-0.985c0.394-0.396,0.704-0.868,0.939-1.412V8.504C38,3.808,34.191,0,29.496,0H8.503
		C3.807,0,0,3.808,0,8.504v20.992C0,34.193,3.807,38,8.503,38h20.993C34.191,38,38,34.193,38,29.496v-5.578
		c-0.058,0.034-0.109,0.072-0.168,0.105C36.818,24.593,35.747,24.943,34.613,25.076z M13.793,24.441H6.18l-1.004,1.627H1.431
		L9.987,11.35l8.543,14.719h-3.785L13.793,24.441z M27.19,28.18c-0.232,0.549-0.555,1.027-0.965,1.438
		c-0.408,0.408-0.889,0.729-1.436,0.961c-0.551,0.232-1.135,0.35-1.756,0.35h-4.886V27.65h4.886c0.336,0,0.627-0.121,0.865-0.359
		c0.242-0.242,0.359-0.529,0.359-0.869c0-0.336-0.117-0.625-0.359-0.865c-0.238-0.24-0.529-0.359-0.865-0.359h-0.488
		c-0.621,0-1.203-0.117-1.744-0.35c-0.542-0.234-1.017-0.553-1.427-0.961c-0.408-0.41-0.73-0.885-0.963-1.43
		c-0.23-0.541-0.35-1.121-0.35-1.742s0.119-1.207,0.35-1.755c0.232-0.551,0.555-1.028,0.963-1.438
		c0.411-0.409,0.885-0.729,1.427-0.963c0.541-0.231,1.123-0.349,1.744-0.349h1.375v3.279h-1.375c-0.338,0-0.627,0.119-0.865,0.357
		c-0.242,0.242-0.359,0.531-0.359,0.869s0.117,0.627,0.359,0.865c0.238,0.24,0.527,0.359,0.865,0.359h0.488
		c0.621,0,1.205,0.117,1.756,0.35c0.547,0.234,1.027,0.555,1.436,0.961c0.41,0.41,0.732,0.885,0.965,1.428
		c0.23,0.543,0.348,1.125,0.348,1.744C27.538,27.043,27.421,27.629,27.19,28.18z"/>
	<polygon fill="#FFFFFF" points="8.078,21.035 11.884,21.035 9.98,17.756 	"/>
</g>
</svg>
