<?xml version="1.0" encoding="UTF-8"?>
<svg width="40px" height="14px" viewBox="0 0 40 14" version="1.1" xmlns="http://www.w3.org/2000/svg" xmlns:xlink="http://www.w3.org/1999/xlink">
    <!-- Generator: Sketch 51.3 (57544) - http://www.bohemiancoding.com/sketch -->
    <title>bada-1</title>
    <desc>Created with Sketch.</desc>
    <defs></defs>
    <g id="Guidline" stroke="none" stroke-width="1" fill="none" fill-rule="evenodd">
        <g id="popup-guidline-copy" transform="translate(-56.000000, -65.000000)" fill="#008ED1">
            <g id="bada-1" transform="translate(56.000000, 65.000000)">
                <g id="Group" transform="translate(15.673077, 2.589041)">
                    <path d="M0,1.32756556 C0.130913557,0.681408339 0.748086652,0.244891164 1.85151928,0.0180140415 C1.85151928,0.935627644 1.85151928,1.56081572 1.85151928,3.02387806 C1.85151928,2.81866969 3.71412426,1.709896 5.01185907,2.45002803 C6.95602357,3.65417119 6.70879419,4.87902213 6.70879419,5.49090833 C6.95602357,4.83422717 9.32233096,4.60486479 10.4751307,5.01563597 C10.4671418,4.98209548 10.2281206,4.10646525 9.88571688,3.96989296 C9.24043638,3.71251428 8.20718835,4.09104092 7.51493932,3.69493963 C6.75270022,3.25879039 6.84721155,2.62889043 7.03475628,2.56672501 C7.55466096,2.39439229 8.06379899,2.20652157 9.30978563,2.22562182 C10.356037,2.24166023 11.522521,2.56672501 12.1898744,3.96989296 C12.4478467,3.27711698 13.07103,2.24458475 14.4395969,2.22562182 C15.182685,2.21532555 16.1925533,2.45002803 16.7473594,3.02387806 C16.7473594,2.33081447 16.7473594,0.937137586 16.7473594,0.128743155 C17.0762274,-0.138893013 18.4969804,0.246051483 18.5602306,1.21367276 C18.6667938,2.8439073 18.6667938,4.91914345 18.6667938,5.65923097 C18.7545873,5.70584167 18.9555437,5.17746077 19.9660998,4.91914345 C20.7039145,4.73054402 22.2788656,4.75199074 22.548778,4.91914345 C22.5987171,4.95007002 22.6434642,4.22422014 21.838309,3.87735506 C21.375456,3.67795556 20.1252605,3.92059499 19.7275945,3.69493963 C19.0354782,3.30219861 18.988502,3.05335789 18.988502,2.79429491 C18.988502,2.48018125 21.0282382,1.94341759 22.4477665,2.22562182 C23.2926569,2.39358723 24.2967596,3.56249611 24.2967596,4.22579226 C24.2967596,5.37493037 24.2967596,7.46835774 24.2967596,8.71161559 C24.1532257,8.77062879 23.4161348,8.69680043 23.0291773,8.52812163 C22.7360831,8.40035879 22.835489,8.16570224 22.4477665,8.19384914 C22.2601465,8.2074695 21.4793265,8.6967551 21.2127732,8.71161559 C20.7953267,8.73488847 19.3423666,8.91780822 18.6667938,7.88948788 C18.5742726,7.83040673 18.7279479,8.75557694 18.5602306,8.71161559 C18.2961429,8.64239401 17.2842848,8.41350981 16.7473594,7.88948788 C16.430554,8.52812163 15.7501643,8.67818816 14.8321068,8.71161559 C14.6283581,8.7190343 13.9094669,8.79039515 13.2668976,8.39050116 C12.8170766,8.11056137 12.4234748,7.31484848 12.1898744,7.32009577 C12.1483798,7.32009577 12.3585991,8.69815256 12.1483798,8.71161559 C12.0187551,8.71991713 11.4267698,8.68410217 10.9138565,8.52812163 C10.6666025,8.45292995 10.3866364,8.19003368 10.2826249,8.19384914 C10.0116974,8.20378758 9.79205956,8.71161559 9.02182001,8.71161559 C8.52780472,8.71161559 7.03475628,8.91780822 6.32688285,7.32009577 C5.97691161,8.06701397 5.34856865,8.37711826 4.66044584,8.52812163 C4.0764223,8.65628121 2.83048704,8.95953377 1.85151928,8.03422665 C1.43055402,8.36348997 0.813380922,8.58928629 0,8.71161559 L0,1.32756556 Z M3.42534771,7.19178082 C4.35467301,7.19178082 4.80614878,6.29602931 4.80614878,5.36925011 C4.80614878,4.44247091 4.35467301,3.83561644 3.42534771,3.83561644 C2.49602241,3.83561644 1.82692308,4.58691943 1.82692308,5.51369863 C1.82692308,6.44047783 2.49602241,7.19178082 3.42534771,7.19178082 Z M15.3899288,7.19178082 C16.3192541,7.19178082 16.7707299,6.29602931 16.7707299,5.36925011 C16.7707299,4.44247091 16.3192541,3.83561644 15.3899288,3.83561644 C14.4606035,3.83561644 13.7915042,4.58691943 13.7915042,5.51369863 C13.7915042,6.44047783 14.4606035,7.19178082 15.3899288,7.19178082 Z M9.18477788,7.52413552 C9.99416748,7.52413552 10.4897798,6.785745 10.4897798,6.3355951 C10.4897798,5.8854452 9.46759569,5.94818701 9.01620912,5.94818701 C8.56482254,5.94818701 8.17307692,6.2979192 8.17307692,6.7480691 C8.17307692,7.198219 8.37538827,7.52413552 9.18477788,7.52413552 Z M21.3001625,7.52413552 C22.1095521,7.52413552 22.6051644,6.785745 22.6051644,6.3355951 C22.6051644,5.8854452 21.5829803,5.94818701 21.1315937,5.94818701 C20.6802072,5.94818701 20.2884615,6.2979192 20.2884615,6.7480691 C20.2884615,7.198219 20.4907729,7.52413552 21.3001625,7.52413552 Z" id="Combined-Shape"></path>
                </g>
                <g id="Group-2">
                    <path d="M0.0467024698,5.93079828 C0.624378655,11.2135989 13.4771874,14.5212795 12.6812629,2.87671233 C13.4771874,3.84792937 14.8155944,6.3835489 13.4771874,9.6357931 C12.584916,11.8039559 10.8083667,13.2231491 8.14753951,13.8933727 C6.98310509,13.9749736 5.94470391,13.9004195 5.03233598,13.6697103 C-0.119351137,11.9754544 -0.119351137,7.28254151 0.0467024698,5.93079828 Z" id="Rectangle"></path>
                    <path d="M7.98938613,3.16812644 C5.02604599,2.75082466 0.884495345,5.28874428 4.35802522,9.92081178 C2.84598247,9.40740091 -0.439165547,7.21554509 0.884495345,4.46861927 C2.20815624,1.72169346 6.20906624,2.408758 7.98938613,3.16812644 Z" id="Rectangle-2"></path>
                    <path d="M3.93262087,0.53208108 C4.80132374,0.234447334 6.88183075,-0.385906596 9.16438141,0.337020479 C10.5918973,0.789141818 11.4601461,1.50436402 12.0817617,2.45142055 C12.4312078,2.98381584 13.3605316,6.84081702 9.98328581,9.48994606 C13.5467758,2.45142055 3.27003333,0.53208108 0.769230769,3.59744599 C1.14643983,2.70741538 2.66926165,0.96493142 3.93262087,0.53208108 Z" id="Rectangle-14"></path>
                </g>
            </g>
        </g>
    </g>
</svg>