<?xml version="1.0" encoding="UTF-8" standalone="no"?>
<!-- Created with Inkscape (http://www.inkscape.org/) -->

<svg
   xmlns:dc="http://purl.org/dc/elements/1.1/"
   xmlns:cc="http://creativecommons.org/ns#"
   xmlns:rdf="http://www.w3.org/1999/02/22-rdf-syntax-ns#"
   xmlns:svg="http://www.w3.org/2000/svg"
   xmlns="http://www.w3.org/2000/svg"
   xmlns:xlink="http://www.w3.org/1999/xlink"
   xmlns:sodipodi="http://sodipodi.sourceforge.net/DTD/sodipodi-0.dtd"
   xmlns:inkscape="http://www.inkscape.org/namespaces/inkscape"
   width="117.37923"
   height="23.788649"
   id="svg2"
   version="1.1"
   inkscape:version="0.48+devel_64bit r13443"
   viewBox="0 0 117.37923 23.788649"
   sodipodi:docname="logo.svg">
  <defs
     id="defs4">
    <path
       id="path-1-8"
       d="m 19.727908,3.8668448 c -0.181924,0 -0.36309,0.0043 -0.543499,0.012886 C 17.587495,0.90631845 14.173359,-0.60053434 10.900403,0.22352684 7.6274472,1.047588 5.3339222,3.9915092 5.3354298,7.3666115 c 0,0.064431 0,0.129621 0,0.1932945 C 1.3204613,9.589524 -0.77690209,14.10928 0.26539178,18.485688 1.3076856,22.862095 5.2172,25.951241 9.7160129,25.9532 l 10.4970261,0 0,-0.01137 C 26.211931,25.678645 30.901094,20.670233 30.769164,14.66702 30.637234,8.6638073 25.73257,3.8662341 19.727908,3.8668448 Z m 0,19.4749852 c -3.982848,2.12e-4 -7.422708,-2.786401 -8.249121,-6.682568 -0.826412,-3.896168 1.186018,-7.8392603 4.826002,-9.4559204 3.639984,-1.61666 7.914765,-0.4659645 10.25134,2.7594799 L 23.89094,11.661539 c -1.460917,-1.8724812 -3.992303,-2.5390268 -6.185933,-1.628834 -2.19363,0.910193 -3.509523,3.173072 -3.215641,5.529785 0.293883,2.356713 2.1252,4.227135 4.475179,4.570738 2.349978,0.343604 4.640151,-0.924191 5.596483,-3.098103 l -4.281283,0 0,-3.151837 7.818192,0 c 0.294475,2.397287 -0.453385,4.805743 -2.053929,6.6146 -1.600544,1.808857 -3.900036,2.84437 -6.315342,2.843942 l -7.58e-4,0 z"
       inkscape:connector-curvature="0" />
  </defs>
  <sodipodi:namedview
     id="base"
     pagecolor="#ffffff"
     bordercolor="#666666"
     borderopacity="1.0"
     inkscape:pageopacity="0"
     inkscape:pageshadow="2"
     inkscape:zoom="1.4"
     inkscape:cx="-68.527999"
     inkscape:cy="-83.188436"
     inkscape:document-units="px"
     inkscape:current-layer="svg2"
     showgrid="false"
     inkscape:window-width="1920"
     inkscape:window-height="1018"
     inkscape:window-x="-8"
     inkscape:window-y="-8"
     inkscape:window-maximized="1"
     showguides="true"
     inkscape:guide-bbox="true"
     fit-margin-top="0"
     fit-margin-left="0"
     fit-margin-right="0"
     fit-margin-bottom="0" />
  <g
     transform="translate(-457.07151,255.53656)">
    <g
       transform="translate(216.42857,615.49387)"
       style="fill:#304926;fill-opacity:1;fill-rule:evenodd;stroke:none;stroke-width:1">
      <g
         transform="translate(-2799,-2356)"
         id="guideline"
         style="fill:#304926;fill-opacity:1">
        <g
           id="Login"
           transform="matrix(0.82517484,0,0,0.82517484,3001.7858,1453.4382)"
           style="fill:none;fill-rule:evenodd;stroke:none;stroke-width:1">
          <g
             transform="translate(46,40)"
             id="ic/Login/LOGO">
            <use
               xlink:href="#path-1-8"
               id="Mask"
               style="fill:#ffffff;fill-rule:nonzero"
               x="0"
               y="0"
               width="100%"
               height="100%" />
            <g
               transform="translate(40,0)"
               id="EnGenius-Logo-01"
               style="fill:#ffffff;fill-rule:nonzero">
              <path
                 id="Shape"
                 d="m 0.12729167,7.4235417 2.73812503,0 8.2847913,0 0,2.2452083 -8.2847913,0 0,4.986042 8.0762503,0 0,2.166666 -8.0762503,0 0,6.667917 8.3579163,0 0,2.266875 -11.10416633,0 0,-18.34625 0.008125,0.013542 z M 19.806042,14.010208 c 2.624375,0 4.698958,1.197084 4.677291,4.604167 l 0,0.124583 0,7.066042 -2.545833,0 0,-7.063333 0.02708,0 c 0.07042,-1.909375 -1.015622,-2.732709 -2.82208,-2.732709 -2.74625,0 -2.933125,2.345417 -3.065833,2.735417 l 0,7.063333 -2.535,0 0,-11.304583 2.529583,0 0,1.205208 c 0.943995,-1.076733 2.305553,-1.695354 3.7375,-1.698125 l -0.0027,0 z m 45.074791,-0.04604 c 2.627084,0 4.701667,1.197083 4.68,4.604166 0,0.04333 0,0.08396 0,0.127292 l 0,7.066042 -2.55125,0 0,-7.074167 0.02437,0 c 0.07042,-1.895833 -1.015625,-2.732708 -2.819375,-2.732708 -2.74625,0 -2.933125,2.345416 -3.068541,2.738125 l 0,7.063333 -2.526875,0 0,-11.307292 2.526875,0 0,1.2025 c 0.942511,-1.077181 2.303483,-1.695984 3.734791,-1.698125 l 0,0.01083 z m -28.318333,2.104375 5.278542,0 c -0.0013,-0.0126 -0.0013,-0.02531 0,-0.03792 l 2.4375,0 0,0.02979 c -0.208542,6.478333 -4.181667,9.785208 -9.23,9.787916 -5.048334,0.0027 -9.165,-4.281875 -9.167709,-9.533333 -0.0027,-5.251458 3.829584,-9.3952083 9.159584,-9.53875 3.409791,-0.092083 6.32125,1.0833333 7.924583,3.64 L 41.223542,11.895 C 40.140208,9.815 37.802917,8.7966667 35.05125,9.010625 c -4.149167,0.3222917 -6.770833,3.23375 -6.770833,7.193333 0,3.959584 3.044166,7.185209 6.770833,7.185209 3.109167,0 5.565625,-1.486875 6.448542,-5.105209 l -4.937292,0 0,-2.215416 z m 11.307292,2.348125 6.933333,0 C 54.3725,16.5425 53.199792,15.708333 51.501667,15.708333 c -1.669469,0.02078 -3.135701,1.114166 -3.631875,2.708334 z m 9.276041,1.727916 0,0.04604 -9.435833,0 c 0.24375,1.93375 1.773958,3.466667 3.705,3.463958 1.516667,0 3.209375,-0.850416 3.759167,-2.199166 l 2.196458,1.140208 C 56.5825,24.678333 53.760417,25.87 51.217292,25.87 c -1.622321,-0.005 -3.175803,-0.656124 -4.316847,-1.809366 -1.141044,-1.153242 -1.775616,-2.713561 -1.763362,-4.335842 0,-3.344792 2.4375,-6.112709 6.180417,-6.042292 3.742917,0.07042 6.229167,2.22625 6.042292,6.429583 7.06e-4,0.0072 7.06e-4,0.01446 0,0.02167 l -0.222084,0 0.0081,0.01083 z m 15.369792,-5.757916 2.738125,0 0,11.375 -2.73,0 0,-11.375 -0.0081,0 z m 1.354167,-4.7287503 c 0.736783,5.43e-5 1.33486,0.5957883 1.337807,1.3325653 0.0029,0.736778 -0.590346,1.337277 -1.327105,1.343224 -0.73676,0.0059 -1.33967,-0.584893 -1.348619,-1.321623 -0.0051,-0.357862 0.133717,-0.702784 0.385257,-0.95738 0.251541,-0.2545954 0.594762,-0.3975484 0.95266,-0.3967863 z M 88.892917,20.475 c 0.213958,3.699583 -1.947292,5.283958 -5.416667,5.283958 -3.65625,0 -5.145833,-1.841666 -5.416667,-4.333333 l -0.04604,-0.8775 0,-6.283333 2.602708,0 0,1.587083 0.02438,4.642083 0,0.99125 c 0,0.961459 1.197083,2.250625 2.979167,2.247917 1.417682,0.05195 2.611555,-1.049995 2.673125,-2.467292 l 0,-7.1825 2.602708,0 0,6.391667 -0.0027,0 z m 6.101875,-6.825 c 1.625,0 3.027916,0.858542 3.596666,2.071875 l -2.166666,1.029167 c -0.199826,-0.587559 -0.734744,-0.996236 -1.354167,-1.034584 -0.752917,-0.04333 -1.435417,0.490209 -1.432708,1.197084 0,0.566041 0.888333,1.050833 1.513958,1.229583 0.368333,0.14625 1.695417,0.679792 2.575625,1.12125 l -0.01354,0 c 1.156459,0.541667 1.9175,1.5275 1.828125,2.94125 -0.287083,2.136875 -2.074583,3.5425 -4.536458,3.545208 -2.066458,0 -3.813333,-1.115833 -4.333333,-2.621666 l 2.302083,-0.956042 c 0.254458,0.73437 0.886694,1.273325 1.652083,1.408333 0.999375,0.208542 1.95,-0.01354 2.196459,-1.272916 0.349375,-1.275625 -1.354167,-1.302709 -2.353542,-2.015 C 93.767581,20.040484 93.09914,19.70308 92.47875,19.28875 91.430625,18.709167 91.154375,17.883125 91.154375,16.918958 91.170625,15.12875 92.866042,13.652708 94.9975,13.65 l -0.0027,0 z"
                 inkscape:connector-curvature="0" />
              <path
                 id="path4436"
                 d="m 73.869792,0.12458333 c 3.345244,0.008411 6.525958,1.45230737 8.734375,3.96499997 l -0.614792,0.576875 C 79.920838,2.287223 76.916826,0.92941029 73.764171,0.9486687 70.611516,0.96792712 67.624315,2.362338 65.585,4.7666667 L 64.91875,4.265625 c 2.242573,-2.6046512 5.500551,-4.11418103 8.9375,-4.14104167 l 0.01354,0 z m 0,5.80124997 c 1.624614,0.00124 3.128322,0.8585893 3.956875,2.2560417 L 77.22,8.701875 77.1875,8.723542 C 76.518183,7.4930493 75.222615,6.7342672 73.821985,6.7524425 72.421354,6.7706177 71.145912,7.5627625 70.50875,8.8102083 L 69.861458,8.2685417 C 70.675131,6.818704 72.207237,5.9201443 73.869792,5.9177083 l 0,0.00812 z m 0,-2.8816666 c -2.528251,0.0083 -4.904751,1.207592 -6.413334,3.2364583 l 0.614792,0.4983333 c 1.369039,-1.8282404 3.517244,-2.9073571 5.80125,-2.9141666 2.227554,0.015427 4.31536,1.0879786 5.625208,2.8897916 l 0.658125,-0.560625 C 78.664519,4.2233792 76.341021,3.0591274 73.869792,3.0441667 Z"
                 inkscape:connector-curvature="0" />
              <path
                 id="path4438"
                 d="m 100.79875,13.590417 c 0.38451,-7.21e-4 0.75348,0.151705 1.02536,0.423594 0.27189,0.271889 0.42432,0.640856 0.4236,1.025364 7.2e-4,0.384038 -0.15134,0.752594 -0.42264,1.024404 -0.2713,0.271811 -0.63957,0.424555 -1.02361,0.424554 -0.38404,7.19e-4 -0.7526,-0.151335 -1.024406,-0.422638 -0.271811,-0.271302 -0.424555,-0.639573 -0.424554,-1.023612 0.0015,-0.798565 0.64769,-1.44598 1.44625,-1.448958 l 0,-0.0027 z m 0,0.24375 c -0.66333,0.0044 -1.199547,0.541872 -1.2025,1.205208 0.003,0.664386 0.54082,1.202242 1.20521,1.205208 0.31886,-0.003 0.62397,-0.130281 0.85042,-0.354791 0.2259,-0.226394 0.35256,-0.533299 0.35208,-0.853125 -0.001,-0.665001 -0.54021,-1.203719 -1.20521,-1.205209 l 0,0.0027 z"
                 inkscape:connector-curvature="0" />
              <path
                 id="path4440"
                 d="m 100.16229,15.884375 0,-1.69 0.69875,0 c 0.10934,-0.0045 0.21859,0.01109 0.32229,0.04604 0.0752,0.03162 0.13731,0.088 0.17605,0.159791 0.0446,0.07731 0.067,0.165373 0.065,0.254584 0.004,0.111274 -0.0346,0.219897 -0.10833,0.303333 -0.089,0.09164 -0.20845,0.147516 -0.33583,0.157083 0.045,0.02244 0.0869,0.05066 0.12458,0.08396 0.0673,0.06806 0.12558,0.144528 0.17334,0.2275 l 0.27083,0.457708 -0.27083,0 -0.20855,-0.352083 c -0.0623,-0.100209 -0.11375,-0.17875 -0.15166,-0.232917 -0.0304,-0.04133 -0.0659,-0.07864 -0.10563,-0.111042 -0.0287,-0.02071 -0.0608,-0.03629 -0.0948,-0.04604 -0.0387,-0.0039 -0.0777,-0.0039 -0.11646,0 l -0.24375,0 0,0.750208 -0.195,-0.0081 z m 0.20854,-0.9425 0.44959,0 c 0.0763,0.003 0.15247,-0.008 0.22479,-0.0325 0.0511,-0.01948 0.0941,-0.05577 0.12187,-0.102917 0.0749,-0.109963 0.0588,-0.258037 -0.0379,-0.349375 -0.0737,-0.05578 -0.16516,-0.08275 -0.25729,-0.07583 l -0.50105,0 0,0.560625 z"
                 inkscape:connector-curvature="0" />
            </g>
          </g>
        </g>
      </g>
    </g>
  </g>
  <metadata
     id="metadata4505">
    <rdf:RDF>
      <cc:Work
         rdf:about="">
        <dc:title></dc:title>
      </cc:Work>
    </rdf:RDF>
  </metadata>
</svg>
