<svg xmlns="http://www.w3.org/2000/svg" width="99" height="17" viewBox="0 0 99 17">
    <g fill="#FFF" fill-rule="evenodd">
        <path d="M83.787 13.92h8.424c1.309 0 2.025-.128 2.445-.406.518-.33.813-.886.813-1.543 0-.784-.394-1.466-1.06-1.796-.347-.202-.988-.303-1.78-.303h-3.515c-1.974 0-3.258-.354-4.122-1.112-.987-.885-1.555-2.25-1.555-3.719 0-2.148 1.16-4.02 2.862-4.626.743-.28 1.605-.355 3.532-.355h8.586v3.01H90.62c-1.555.026-2.156.026-2.675.151-.691.177-1.111.835-1.111 1.72 0 .759.345 1.365.938 1.644.494.227 1.367.277 2.553.277h2.64c2.422 0 3.73.38 4.694 1.392.74.757 1.233 2.25 1.233 3.716 0 1.796-.815 3.465-2.099 4.275-.814.53-1.852.682-4.296.682h-8.71v-3.008zM70.842 4.622c-.51.819-.753 2.133-.753 3.896 0 3.869 1.309 5.631 4.216 5.631 2.859 0 4.167-1.762 4.167-5.582 0-3.871-1.283-5.608-4.167-5.608-1.574 0-2.81.596-3.463 1.663m9.86-1.91c.994 1.34 1.55 3.522 1.55 6.079 0 2.901-.897 5.284-2.495 6.598-1.212.991-3.052 1.539-5.234 1.539-3.1 0-5.546-1.043-6.806-2.904-.945-1.364-1.406-3.175-1.406-5.383 0-3.174.847-5.582 2.446-6.873C70.017.726 72.005.156 74.282.156c2.882 0 5.183.918 6.42 2.557M64.224 16.928h-3.44v-6.823h-6.225v6.823h-3.44V.38h3.44v6.773h6.225V.38h3.44zM42.813 8.195c.92 0 1.453-.124 1.817-.472.436-.372.701-1.165.701-2.083 0-1.092-.436-1.886-1.186-2.159-.267-.1-.703-.15-1.26-.15h-4.748v4.864h4.676zm-4.675 8.733h-3.441V.38h8.068c2.833 0 3.827.297 4.893 1.513.944 1.042 1.452 2.407 1.452 3.87 0 1.737-.676 3.35-1.792 4.318-.944.818-1.817 1.065-3.658 1.065h-5.522v5.782zM21.231 4.622c-.51.819-.75 2.133-.75 3.896 0 3.869 1.308 5.631 4.215 5.631 2.858 0 4.166-1.762 4.166-5.582 0-3.871-1.283-5.608-4.166-5.608-1.575 0-2.811.596-3.465 1.663m9.86-1.91c.994 1.34 1.55 3.522 1.55 6.079 0 2.901-.896 5.284-2.496 6.598-1.21.991-3.05 1.539-5.232 1.539-3.101 0-5.547-1.043-6.807-2.904-.945-1.364-1.405-3.175-1.405-5.383 0-3.174.848-5.582 2.448-6.873C20.407.726 22.394.156 24.67.156c2.882 0 5.185.918 6.42 2.557M.458 13.92h8.426c1.307 0 2.024-.128 2.443-.406.52-.33.815-.886.815-1.543 0-.784-.394-1.466-1.061-1.796-.346-.202-.987-.303-1.778-.303H5.788c-1.975 0-3.26-.354-4.124-1.112C.677 7.875.108 6.51.108 5.041c0-2.148 1.161-4.02 2.865-4.626C3.713.135 4.577.06 6.504.06h8.587v3.01H7.293c-1.555.026-2.157.026-2.675.151-.691.177-1.111.835-1.111 1.72 0 .759.346 1.365.938 1.644.494.227 1.368.277 2.553.277h2.64c2.42 0 3.729.38 4.692 1.392.74.757 1.235 2.25 1.235 3.716 0 1.796-.815 3.465-2.099 4.275-.814.53-1.85.682-4.295.682H.459v-3.008z"/>
    </g>
</svg>
