<?xml version="1.0" encoding="UTF-8"?>
<svg width="56px" height="20px" viewBox="0 0 56 20" version="1.1" xmlns="http://www.w3.org/2000/svg" xmlns:xlink="http://www.w3.org/1999/xlink">
    <!-- Generator: sketchtool 51.3 (57544) - http://www.bohemiancoding.com/sketch -->
    <title>D90729BE-63CF-436F-9651-15C7AD3DA39B</title>
    <desc>Created with sketchtool.</desc>
    <defs></defs>
    <g id="Tools" stroke="none" stroke-width="1" fill="none" fill-rule="evenodd">
        <g id="Connection-Diagnostic" transform="translate(-618.000000, -187.000000)">
            <g id="AP" transform="translate(618.000000, 187.000000)">
                <rect id="Rectangle-8" fill="#4A4A4A" transform="translate(27.731120, 15.190972) scale(1, -1) translate(-27.731120, -15.190972) " x="0" y="10.6336806" width="55.4622396" height="9.11458333" rx="2"></rect>
                <path d="M4.12363789,4.54747351e-13 L51.628907,4.54747351e-13 L55.2968046,11.4331354 C54.9046295,11.5595826 54.3402509,11.737532 53.6036686,11.9669836 C41.7180515,12.1662067 24.3304877,12.170123 1.44097709,11.9787325 L1.44097702,11.9787413 C0.888706718,11.9741235 0.444746652,11.5226765 0.449364456,10.9704062 C0.450255955,10.8637866 0.46819306,10.7579958 0.502496251,10.6570413 L4.12363789,4.54747351e-13 Z" id="Rectangle-8-Copy" fill="#4A4A4A"></path>
                <path d="M2,9.765625 L53.4622015,9.765625 C54.566771,9.765625 55.4622015,10.6610555 55.4622015,11.765625 L55.4622015,16.4461806 C55.4622015,17.5507501 54.566771,18.4461806 53.4622015,18.4461806 L2,18.4461806 C0.8954305,18.4461806 1.3527075e-16,17.5507501 0,16.4461806 L0,11.765625 C-1.3527075e-16,10.6610555 0.8954305,9.765625 2,9.765625 Z" id="Rectangle-8-Copy-2" fill="#4A4A4A"></path>
                <polygon id="Rectangle-10" fill="#FFFFFF" points="3.47222222 11.5017361 5.20833333 11.5017361 5.20833333 12.8061216 4.68511348 12.8061216 4.68511348 13.2378472 3.940039 13.2378472 3.940039 12.8061216 3.47222222 12.8061216"></polygon>
                <polygon id="Rectangle-10" fill="#FFFFFF" points="3.47222222 14.9739583 5.20833333 14.9739583 5.20833333 16.2783438 4.68511348 16.2783438 4.68511348 16.7100694 3.940039 16.7100694 3.940039 16.2783438 3.47222222 16.2783438"></polygon>
                <polygon id="Rectangle-10" fill="#FFFFFF" points="7.37847222 11.5017361 9.11458333 11.5017361 9.11458333 12.8061216 8.59136348 12.8061216 8.59136348 13.2378472 7.846289 13.2378472 7.846289 12.8061216 7.37847222 12.8061216"></polygon>
                <polygon id="Rectangle-10" fill="#FFFFFF" points="7.37847222 14.9739583 9.11458333 14.9739583 9.11458333 16.2783438 8.59136348 16.2783438 8.59136348 16.7100694 7.846289 16.7100694 7.846289 16.2783438 7.37847222 16.2783438"></polygon>
                <polygon id="Rectangle-10" fill="#FFFFFF" points="11.2847222 11.5017361 13.0208333 11.5017361 13.0208333 12.8061216 12.4976135 12.8061216 12.4976135 13.2378472 11.752539 13.2378472 11.752539 12.8061216 11.2847222 12.8061216"></polygon>
                <polygon id="Rectangle-10" fill="#FFFFFF" points="11.2847222 14.9739583 13.0208333 14.9739583 13.0208333 16.2783438 12.4976135 16.2783438 12.4976135 16.7100694 11.752539 16.7100694 11.752539 16.2783438 11.2847222 16.2783438"></polygon>
                <polygon id="Rectangle-10" fill="#FFFFFF" points="15.1909722 11.5017361 16.9270833 11.5017361 16.9270833 12.8061216 16.4038635 12.8061216 16.4038635 13.2378472 15.658789 13.2378472 15.658789 12.8061216 15.1909722 12.8061216"></polygon>
                <polygon id="Rectangle-10" fill="#FFFFFF" points="15.1909722 14.9739583 16.9270833 14.9739583 16.9270833 16.2783438 16.4038635 16.2783438 16.4038635 16.7100694 15.658789 16.7100694 15.658789 16.2783438 15.1909722 16.2783438"></polygon>
                <polygon id="Rectangle-10" fill="#FFFFFF" points="19.0972222 11.5017361 20.8333333 11.5017361 20.8333333 12.8061216 20.3101135 12.8061216 20.3101135 13.2378472 19.565039 13.2378472 19.565039 12.8061216 19.0972222 12.8061216"></polygon>
                <polygon id="Rectangle-10" fill="#FFFFFF" points="19.0972222 14.9739583 20.8333333 14.9739583 20.8333333 16.2783438 20.3101135 16.2783438 20.3101135 16.7100694 19.565039 16.7100694 19.565039 16.2783438 19.0972222 16.2783438"></polygon>
                <polygon id="Rectangle-10" fill="#FFFFFF" points="23.0034722 11.5017361 24.7395833 11.5017361 24.7395833 12.8061216 24.2163635 12.8061216 24.2163635 13.2378472 23.471289 13.2378472 23.471289 12.8061216 23.0034722 12.8061216"></polygon>
                <polygon id="Rectangle-10" fill="#FFFFFF" points="23.0034722 14.9739583 24.7395833 14.9739583 24.7395833 16.2783438 24.2163635 16.2783438 24.2163635 16.7100694 23.471289 16.7100694 23.471289 16.2783438 23.0034722 16.2783438"></polygon>
                <polygon id="Rectangle-10" fill="#FFFFFF" points="26.9097222 11.5017361 28.6458333 11.5017361 28.6458333 12.8061216 28.1226135 12.8061216 28.1226135 13.2378472 27.377539 13.2378472 27.377539 12.8061216 26.9097222 12.8061216"></polygon>
                <polygon id="Rectangle-10" fill="#FFFFFF" points="26.9097222 14.9739583 28.6458333 14.9739583 28.6458333 16.2783438 28.1226135 16.2783438 28.1226135 16.7100694 27.377539 16.7100694 27.377539 16.2783438 26.9097222 16.2783438"></polygon>
                <circle id="Oval-5-Copy" fill="#FFFFFF" cx="43.21875" cy="15.8420139" r="1"></circle>
                <circle id="Oval-5-Copy-3" fill="#FFFFFF" cx="47.125" cy="15.8420139" r="1"></circle>
                <circle id="Oval-5-Copy-5" fill="#FFFFFF" cx="51.03125" cy="15.8420139" r="1"></circle>
            </g>
        </g>
    </g>
</svg>