<svg xmlns="http://www.w3.org/2000/svg" xmlns:xlink="http://www.w3.org/1999/xlink" width="70.718" height="52.657" viewBox="0 0 70.718 52.657">
  <defs>
    <clipPath id="clip-path">
      <rect id="Rectangle_1" data-name="Rectangle 1" width="70.718" height="52.657" fill="none"/>
    </clipPath>
    <linearGradient id="linear-gradient" x1="0.5" x2="0.5" y2="1" gradientUnits="objectBoundingBox">
      <stop offset="0" stop-color="#606060"/>
      <stop offset="1" stop-color="#3d3d3e"/>
    </linearGradient>
  </defs>
  <g id="ic_dashboard_clients" data-name="ic/dashboard/clients" clip-path="url(#clip-path)">
    <g id="clients" transform="translate(0)">
      <g id="Group" transform="translate(0.004 0.005)">
        <path id="Path_7970-2" d="M67,19.106H62.98V3.334A3.334,3.334,0,0,0,59.647,0H5.156A3.334,3.334,0,0,0,1.823,3.334V38.554H0v4.976c0,.041.01.078.011.124L0,43.642c0,.083.021.161.03.248a3.038,3.038,0,0,0,.045.372c.02.094.055.182.082.274a3.424,3.424,0,0,0,.11.335,2.945,2.945,0,0,0,.139.262,3.172,3.172,0,0,0,.161.29,2.631,2.631,0,0,0,.192.237,3.07,3.07,0,0,0,.208.243c.082.078.154.124.232.2a2.441,2.441,0,0,0,.248.2,2.862,2.862,0,0,0,.259.144A3.063,3.063,0,0,0,2,46.607c.086.037.18.057.269.087a3.236,3.236,0,0,0,.344.108c.055.011.113.01.167.019a3.3,3.3,0,0,0,.485.053H49.693v2.051a3.722,3.722,0,0,0,3.722,3.722H67a3.722,3.722,0,0,0,3.722-3.722v-26.1A3.722,3.722,0,0,0,67,19.106Z" fill="#5f5f5f"/>
      </g>
      <g id="Group_1804" transform="translate(0)">
        <g id="laptop">
          <path id="Path_7888" d="M61.158,3.334V38.554L30.427,40.629,0,38.554V3.334A3.334,3.334,0,0,1,3.334,0H57.824a3.334,3.334,0,0,1,3.334,3.334Z" transform="translate(1.823)" fill="url(#linear-gradient)"/>
          <path id="Path_7890" d="M64.8,0V4.979a3.3,3.3,0,0,1-3.268,3.334H3.269A3.3,3.3,0,0,1,0,4.979V0Z" transform="translate(0 38.556)" fill="#b5b4b4"/>
          <path id="Path_7891" d="M64.413,0V3.5a3.3,3.3,0,0,1-3.269,3.334H2.88A3.26,3.26,0,0,1,0,5.087,3.3,3.3,0,0,0,3.267,8.312h58.27a3.3,3.3,0,0,0,3.269-3.334V0Z" transform="translate(0.003 38.556)" fill="#a5a4a4"/>
          <path id="Path_7892" d="M0,0H18.3a4.15,4.15,0,0,1-1.215,2.934A4.15,4.15,0,0,1,14.153,4.15h-10A4.151,4.151,0,0,1,0,0Z" transform="translate(23.25 38.556)" fill="#a5a4a4"/>
          <g id="Group_75" transform="translate(23.126 38.556)" opacity="0.2">
            <path id="Path_7893" d="M.138.328A2.61,2.61,0,0,1,.124,0H0A3.152,3.152,0,0,0,.138.328Z" transform="translate(0)"/>
          </g>
          <rect id="Rectangle_7530" width="51.187" height="27.92" transform="translate(6.809 5.218)" fill="#fff"/>
        </g>
        <rect id="Rectangle_7537" width="8.333" height="1.666" rx="0.672" transform="translate(50.538 45.76)" fill="#fff"/>
        <g id="Group_80" transform="translate(50.936 20.348)">
          <g id="Rectangle_7535">
            <rect id="Rectangle-path" width="16.059" height="28.57" rx="1" transform="translate(1.241 1.241)" fill="#fff"/>
            <rect id="Rectangle-path-2" data-name="Rectangle-path" width="18.54" height="31.051" rx="2" fill="none" stroke="#5f5f5f" stroke-miterlimit="10" stroke-width="3"/>
          </g>
          <path id="Rectangle_7536" d="M0,0H9.635V.135A2.481,2.481,0,0,1,7.154,2.617H2.481A2.481,2.481,0,0,1,0,.135Z" transform="translate(4.453 1.241)" fill="#5f5f5f"/>
        </g>
      </g>
    </g>
  </g>
</svg>
