<?xml version="1.0" encoding="UTF-8"?>
<svg width="60px" height="60px" viewBox="0 0 60 60" version="1.1" xmlns="http://www.w3.org/2000/svg" xmlns:xlink="http://www.w3.org/1999/xlink">
    <!-- Generator: sketchtool 51.3 (57544) - http://www.bohemiancoding.com/sketch -->
    <title>5059E286-5619-4DF1-9579-F640873C0E02</title>
    <desc>Created with sketchtool.</desc>
    <defs></defs>
    <g id="Page-1" stroke="none" stroke-width="1" fill="none" fill-rule="evenodd">
        <g id="dashbord-new-2-guidline" transform="translate(-815.000000, -144.000000)">
            <g id="Group-5" transform="translate(815.000000, 144.000000)">
                <g id="ic/dashboard/clients-copy-3">
                    <g id="internet" transform="translate(-313.000000, -402.000000)">
                        <g id="Group" transform="translate(311.000000, 398.000000)" fill="#C6CBD4" fill-rule="nonzero">
                            <circle id="Ellipse_7-2" transform="translate(33.022669, 33.020000) rotate(-45.000000) translate(-33.022669, -33.020000) " cx="33.0226693" cy="33.02" r="22.997"></circle>
                        </g>
                        <g id="Group_22" transform="translate(0.097000, 0.170000)">
                            <path d="M345.672,451.632 C345.438758,451.637775 345.206351,451.662187 344.977,451.705 C344.799,451.667 344.671,451.552 344.692,451.705 C344.713,451.858 344.768,451.9 344.65,451.905 C344.532,451.91 344.435,451.898 344.574,451.988 C344.713,452.078 344.838,452.009 344.974,451.939 C345.11,451.869 345.349,451.624 345.169,451.83 C344.989,452.036 344.78,452.115 345.092,452.03 C345.404,451.945 345.245,451.897 345.523,451.89 C345.801,451.883 345.871,451.932 345.898,451.883 C345.925,451.834 345.798,451.783 345.78,451.695 C345.762,451.607 346.151,451.643 345.672,451.632 Z" id="Path_7856" fill="#737373" fill-rule="nonzero"></path>
                            <path d="M337.771,423.68 C337.871,423.71 338.132,423.664 338.98,423.68 C339.828,423.696 339.453,423.645 339.362,423.527 C339.271,423.409 339.091,423.427 338.931,423.284 C338.771,423.141 338.889,423.131 338.744,423.131 C338.599,423.131 338.424,422.992 338.202,422.909 C337.98,422.826 338.035,422.916 337.802,422.687 C337.569,422.458 337.76,422.597 337.26,422.534 C336.76,422.471 336.906,422.381 336.906,422.381 L336.288,422.249 L335.688,422.326 C335.688,422.326 335.118,422.402 335.028,422.521 C334.964024,422.634436 334.850938,422.711675 334.722,422.73 C334.611,422.758 334.694,422.813 334.822,422.83 C334.95,422.847 334.968,422.858 335.162,422.663 C335.356,422.468 335.294,422.608 335.6,422.538 C335.906,422.468 335.725,422.438 335.906,422.42 C336.087,422.402 336.219,422.51 336.087,422.552 C335.955,422.594 335.948,422.601 336.198,422.67 C336.448,422.739 336.323,422.732 336.525,422.719 C336.727,422.706 336.678,422.781 336.859,422.819 C337.04,422.857 337.033,422.93 337.325,422.909 C337.617,422.888 337.471,422.909 337.519,423.062 C337.567,423.215 337.619,423.25 337.943,423.34 C338.267,423.43 337.674,423.655 337.771,423.68 Z" id="Path_7857" fill="#737373" fill-rule="nonzero"></path>
                            <path d="M343.043,424.532 C342.827,424.493 342.934,424.527 342.775,424.519 C342.507,424.506 342.538,424.777 342.731,424.766 C342.924,424.755 342.825,424.761 343.031,424.899 C343.237,425.037 343.114,424.855 343.219,424.824 C343.324,424.793 343.56,424.733 343.55,424.724 C343.54,424.715 343.412,424.672 343.271,424.599 C343.13,424.526 343.259,424.571 343.043,424.532 Z" id="Path_7858" fill="#737373" fill-rule="nonzero"></path>
                            <path d="M338.028,421.938 C338.128,421.945 338.216,421.889 338.195,421.723 C338.174,421.557 338.028,421.25 337.917,421.271 C337.67,421.318 337.431,421.146 337.729,421.542 C338.027,421.938 337.923,421.931 338.028,421.938 Z" id="Path_7859" fill="#737373" fill-rule="nonzero"></path>
                            <path d="M340.328,409.619 C340.321,409.487 340.204,409.602 340.204,409.602 L340.138,409.602 C340.26,409.668 340.333,409.71 340.328,409.619 Z" id="Path_7860" fill="#737373" fill-rule="nonzero"></path>
                            <path d="M339.947,409.511 C339.762,409.44 339.747,409.606 339.642,409.606 L339.773,409.606 L340.138,409.599 C340.076154,409.565866 340.012372,409.53648 339.947,409.511 Z" id="Path_7861" fill="#737373" fill-rule="nonzero"></path>
                            <path d="M339.3,409.656 C339.3,409.656 339.147,409.7 339.258,409.721 C339.369,409.742 339.32,409.751 339.536,409.689 C339.57015,409.673248 339.60562,409.660533 339.642,409.651 L339.605,409.651 C339.335,409.651 339.3,409.656 339.3,409.656 Z" id="Path_7862" fill="#737373" fill-rule="nonzero"></path>
                            <path d="M339.842,409.675 C339.762593,409.738351 339.665427,409.775399 339.564,409.781 C339.564,409.781 339.599,409.981 339.641,409.981 L339.919,409.981 C339.935788,409.915562 339.94551,409.848512 339.948,409.781 C339.942,409.724 339.842,409.675 339.842,409.675 Z" id="Path_7863" fill="#737373" fill-rule="nonzero"></path>
                            <path d="M340.369,409.919 C340.418,409.863 340.369,409.752 340.369,409.752 L340.23,409.794 L340.175,409.919 C340.175,409.919 340.321,409.974 340.369,409.919 Z" id="Path_7864" fill="#737373" fill-rule="nonzero"></path>
                            <path d="M346.624,413.558 C346.733,413.641 346.724,413.688 346.864,413.6 C346.934248,413.552572 346.993012,413.490049 347.036,413.417 C347.089843,413.452718 347.161977,413.441919 347.203,413.392 C347.245,413.34 347.192,413.334 347.276,413.303 C347.36,413.272 347.411,413.235 347.417,413.214 C347.423,413.193 347.517,413.177 347.417,413.094 C347.317,413.011 347.135,413.078 347.245,412.948 C347.355,412.818 347.667,412.891 347.328,412.766 C346.989,412.641 347.01,412.641 346.854,412.646 C346.698,412.651 346.896,412.766 346.604,412.667 C346.312,412.568 346.213,412.578 346.322,412.467 C346.431,412.356 346.609,412.191 346.583,412.133 C346.557,412.075 346.51,412.039 346.39,412.06 C346.29806,412.082191 346.210278,412.118992 346.13,412.169 C346.106539,412.25604 346.076794,412.341264 346.041,412.424 L345.864,412.695 L345.764,412.903 C345.764,412.903 345.806,412.913 345.717,412.961 C345.628,413.009 345.394,412.982 345.556,413.018 C345.718,413.054 345.863,413.028 345.686,413.118 C345.509,413.208 345.268,413.259 345.5,413.274 C345.732,413.289 346.238,413.274 346.238,413.274 L346.41,413.258 L346.592,413.388 C346.685916,413.360835 346.781906,413.341437 346.879,413.33 L346.912,413.33 C346.912528,413.37179 346.8923,413.411122 346.858,413.435 C346.722,413.548 346.514,413.474 346.624,413.558 Z" id="Path_7865" fill="#737373" fill-rule="nonzero"></path>
                            <path d="M345.159,413.828 C345.186397,413.870933 345.217877,413.911119 345.253,413.948 C345.29,413.979 345.253,413.948 345.399,413.917 C345.545,413.886 345.519,413.86 345.535,413.823 C345.551,413.786 345.399,413.807 345.326,413.75 C345.253,413.693 345.3,413.714 345.264,413.464 C345.228,413.214 345.186,413.417 345.186,413.417 L344.952,413.647 C344.927756,413.715832 344.911973,413.787357 344.905,413.86 C344.892,413.96 345.005,413.975 345.077,413.96 C345.149,413.945 345.077,413.96 345.093,413.903 C345.10351,413.869851 345.127457,413.842639 345.159,413.828 Z" id="Path_7866" fill="#737373" fill-rule="nonzero"></path>
                            <path d="M347.337,413.573 C347.337,413.615 347.466,413.458 347.48,413.573 C347.494,413.688 347.52,413.709 347.52,413.709 L347.72,413.653 L347.84,413.5 L347.871,413.381 C347.871,413.381 347.876,413.224 347.788,413.25 C347.7,413.276 347.715,413.298 347.642,413.339 C347.569,413.38 347.585,413.433 347.569,413.381 C347.557482,413.305225 347.552131,413.22864 347.553,413.152 C347.418,413.215 347.402,413.293 347.402,413.293 C347.345181,413.305509 347.308481,413.360779 347.319,413.418 C347.331895,413.468631 347.337949,413.520761 347.337,413.573 Z" id="Path_7867" fill="#737373" fill-rule="nonzero"></path>
                            <path d="M343.997,408.223 C344.247841,408.262271 344.50288,408.266982 344.755,408.237 L345.248,408.411 C345.741,408.585 345.331,408.46 345.568,408.536 C345.805,408.612 345.679,408.536 345.868,408.536 C346.057,408.536 345.958,408.605 345.84,408.605 C345.74058,408.61478 345.642608,408.635918 345.548,408.668 C345.374,408.703 345.569,408.723 345.791,408.786 C346.013,408.849 346.062,408.716 346.062,408.716 C346.085415,408.754377 346.085415,408.802623 346.062,408.841 C346.02,408.897 346.02,408.869 345.93,408.973 C345.84,409.077 345.93,408.973 346.069,409.113 C346.214658,409.237637 346.367595,409.353508 346.527,409.46 C346.807988,409.622617 347.098138,409.768861 347.396,409.898 L347.959,409.947 C348.127528,409.954541 348.293854,409.988279 348.452,410.047 C348.695,410.147 348.584,410.172 348.646,410.172 C348.80222,410.200138 348.96033,410.216517 349.119,410.221 C349.14,410.193 348.987,409.964 348.91,409.821 C348.833,409.678 348.903,409.647 348.903,409.647 L348.868,409.536 C348.868,409.536 348.768,409.314 348.847,409.252 C348.926,409.19 348.972,409.244 349.368,409.252 C349.764,409.26 349.514,409.238 349.41,409.092 C349.306,408.946 349.396,409.009 349.466,409.009 C349.536,409.009 349.605,409.051 349.654,409.009 C349.703,408.967 349.754,408.968 349.925,408.968 C350.096,408.968 350.245,408.982 350.078,408.816 C349.268586,408.560659 348.436381,408.384172 347.593,408.289 C346.658681,408.065386 345.697852,407.972501 344.738,408.013 C344.638,408.013 344.238,408.044 344.149,408.051 C343.941566,408.076445 343.732953,408.091131 343.524,408.095 C343.376566,408.106729 343.228434,408.106729 343.081,408.095 C342.956512,408.088817 342.831799,408.101289 342.711,408.132 C342.661516,408.138521 342.612675,408.149226 342.565,408.164 C342.728789,408.171072 342.891867,408.189786 343.053,408.22 C343.872,408.362 343.393,408.167 343.997,408.223 Z" id="Path_7868" fill="#737373" fill-rule="nonzero"></path>
                            <path d="M352.069,409.748 C352.397,409.774 352.469,409.905 352.616,409.831 C352.335307,409.666098 352.040474,409.526546 351.735,409.414 C351.575528,409.402847 351.415472,409.402847 351.256,409.414 L351.356,409.685 C351.356,409.685 351.741,409.722 352.069,409.748 Z" id="Path_7869" fill="#737373" fill-rule="nonzero"></path>
                            <path d="M356.994,412.854 C356.994,412.854 357.286,412.844 357.307,412.802 C357.365965,412.702407 357.365965,412.578593 357.307,412.479 C357.017612,412.268239 356.71462,412.076822 356.4,411.906 C356.331232,411.901868 356.271353,411.952501 356.264,412.021 L356.473,412.542 L356.994,412.854 Z" id="Path_7870" fill="#737373" fill-rule="nonzero"></path>
                            <path d="M360.006,416.026 C360.014936,416.248583 360.084055,416.464579 360.206,416.651 C360.270493,416.75957 360.344804,416.861999 360.428,416.957 C360.528,417.057 361.067,417.575 361.255,417.565 C361.443,417.555 361.484,417.899 361.516,417.565 C361.548,417.231 361.641,417.325 361.516,417.127 C361.391,416.929 361.316,416.783 361.216,416.637 C361.116,416.491 360.955,416.45 360.955,416.2 C360.949231,416.06065 360.956261,415.921065 360.976,415.783 C360.339379,415.049133 359.653454,414.359534 358.923,413.719 C358.523,413.719 358.123,413.354 358.523,413.719 C358.685742,413.854438 358.839095,414.000775 358.982,414.157 L359.357,414.501 C359.357,414.501 360.034,415.033 360.003,415.21 C359.972,415.387 359.203,415.022 359.273,415.21 C359.343,415.398 360.015,415.706 360.006,416.026 Z" id="Path_7871" fill="#737373" fill-rule="nonzero"></path>
                            <path d="M359.834,424.913 C359.777,424.866 359.688,424.913 359.688,424.913 C359.641,425.007 359.636,425.038 359.719,425.075 C359.802,425.112 359.834,425.075 359.834,425.075 C359.834,425.075 359.891,424.96 359.834,424.913 Z" id="Path_7872" fill="#737373" fill-rule="nonzero"></path>
                            <path d="M360.032,425.069 C359.938,425.126 359.922,425.152 359.964,425.184 C360.002519,425.210689 360.042589,425.235065 360.084,425.257 L360.162,425.163 L360.032,425.069 Z" id="Path_7873" fill="#737373" fill-rule="nonzero"></path>
                            <path d="M360.235,424.991 L360.329,425.048 L360.412,425.022 L360.329,424.892 C360.225,424.949 360.235,424.991 360.235,424.991 Z" id="Path_7874" fill="#737373" fill-rule="nonzero"></path>
                            <path d="M360.327,425.277 L360.447,425.366 L360.536,425.324 L360.416,425.162 C360.366758,425.180126 360.332196,425.224786 360.327,425.277 Z" id="Path_7875" fill="#737373" fill-rule="nonzero"></path>
                            <path d="M360.349,425.58 C360.411,425.627 360.401,425.721 360.458,425.663 L360.515,425.606 L360.348,425.481 C360.318,425.517 360.287,425.533 360.349,425.58 Z" id="Path_7876" fill="#737373" fill-rule="nonzero"></path>
                            <path d="M360.12,425.648 C360.128929,425.695229 360.157213,425.736568 360.198,425.762 C360.226368,425.774414 360.258632,425.774414 360.287,425.762 C360.287,425.762 360.239,425.632 360.234,425.611 C360.229,425.59 360.12,425.648 360.12,425.648 Z" id="Path_7877" fill="#737373" fill-rule="nonzero"></path>
                            <polygon id="Path_7878" fill="#737373" fill-rule="nonzero" points="359.823 425.642 359.942 425.742 360 425.642 359.9 425.542"></polygon>
                            <path d="M351.229,451.969 C351.062,451.955 350.868,451.934 350.868,451.934 C350.743,451.969 350.791,452.101 350.791,452.101 L350.965,452.226 C350.965,452.226 351.215,452.358 351.299,452.309 C351.383,452.26 351.57,452.379 351.417,452.184 C351.264,451.989 351.396,451.983 351.229,451.969 Z" id="Path_7879" fill="#737373" fill-rule="nonzero"></path>
                            <path d="M340.227,451.526 C340.227,451.498 340.161,451.486 340.161,451.486 C340.161,451.486 340.116,451.536 340.161,451.515 C340.176,451.508 340.192,451.52 340.207,451.538 C340.219,451.537 340.227,451.533 340.227,451.526 Z" id="Path_7880" fill="#737373" fill-rule="nonzero"></path>
                            <g id="Path_7881" transform="translate(0.794000, 0.653000)"></g>
                            <path d="M340.207,451.566 C340.17,451.566 340.045,451.545 340.025,451.566 C339.960683,451.591157 339.89351,451.608286 339.825,451.617 L339.825,451.697 L340.025,451.739 L340.178,451.747 C340.216803,451.724163 340.258514,451.706671 340.302,451.695 L340.255,451.695 C340.24571,451.649793 340.22952,451.606284 340.207,451.566 Z" id="Path_7882" fill="#737373" fill-rule="nonzero"></path>
                            <path d="M340.627,424.892 C340.745,424.843 340.814,424.67 340.951,424.558 C341.088,424.446 341.085,424.641 341.351,424.537 C341.617,424.433 341.4,424.437 341.733,424.6 C342.066,424.763 342.011,424.725 342.122,424.517 C342.233,424.309 341.747,424.232 341.483,424.066 C341.280921,423.896556 341.024693,423.80535 340.761,423.809 C340.261,423.747 340.552,423.909 340.323,423.774 C340.094,423.639 340.05,423.69 339.767,423.774 C339.584,423.828 339.739,423.934 339.962,423.934 C340.185,423.934 340.115,424.011 340.115,424.143 C340.115,424.275 340.025,424.254 339.893,424.296 C339.687221,424.37886 339.468674,424.425546 339.247,424.434 C338.847,424.462 339.247,424.601 339.247,424.601 C339.446077,424.653844 339.652634,424.672776 339.858,424.657 C340.233,424.636 340.108,424.546 340.448,424.643 L340.464,424.643 C340.777,424.746 340.511,424.94 340.627,424.892 Z" id="Path_7883" fill="#737373" fill-rule="nonzero"></path>
                            <path d="M366.497,426.828 C365.940412,423.71248 364.743525,420.746312 362.982,418.117 L362.657,417.772 C362.292,417.626 362.199,417.553 362.105,417.626 C362.011,417.699 361.876,417.826 361.876,417.887 C361.876,417.948 362.189,417.929 361.876,417.95 C361.563,417.971 361.511,418.033 361.449,417.95 C361.387,417.867 361.24,417.502 361.261,417.668 C361.282,417.834 361.49,418.168 361.449,418.325 C361.414348,418.482309 361.396912,418.64292 361.397,418.804 C361.433173,419.076206 361.496146,419.344174 361.585,419.604 C361.664764,419.630242 361.730748,419.687245 361.768301,419.76235 C361.805853,419.837454 361.811864,419.924444 361.785,420.004 C361.712,420.317 361.712,420.358 361.67,420.494 C361.635,420.606 361.537,420.547 361.504,420.701 C361.767568,420.705865 362.02967,420.741439 362.285,420.807 C362.285,420.807 362.415,420.923 362.62,421.121 L362.62,421.115 C362.569594,421.198138 362.543603,421.293785 362.545,421.391 C362.559,421.544 362.489,421.669 362.357,421.6 C362.225,421.531 361.864,421.183 361.989,421.489 C362.114,421.795 362.35,421.948 362.184,422.114 C362.018,422.28 361.892,421.905 362.017,422.281 C362.142,422.657 362.462,423.101 362.225,423.115 C362.054,423.125 361.656,423.015 361.35,423.028 C361.404769,423.206186 361.486736,423.374841 361.593,423.528 C361.693,423.685 361.493,423.74 361.704,424.018 C361.849323,424.228731 361.909029,424.486859 361.871,424.74 C361.862643,424.85875 361.877591,424.977987 361.915,425.091 C361.927,425.127 361.94,425.164 361.957,425.205 C362.045,425.413 361.892,425.546 361.871,425.657 C361.85,425.768 361.857,425.706 362.017,425.991 C362.177,426.276 362.309,426.165 362.205,426.429 C362.116477,426.629237 362.180305,426.86411 362.358,426.992 C362.511,427.152 362.558,427.006 362.567,427.249 C362.571504,427.351832 362.621299,427.447394 362.703,427.51 C362.771,427.567 362.841,427.597 362.851,427.61 C362.861,427.623 363.191,427.944 363.177,428.173 C363.233176,428.598195 363.420539,428.995292 363.713,429.309 L363.747,429.354 C364.171,429.903 364.226,430.521 364.504,430.236 C364.686311,430.062402 364.901078,429.926474 365.136,429.836 C365.192,429.794 365.185,429.69 365.336,429.676 C365.487,429.662 365.565,429.662 365.545,429.516 C365.541084,429.382602 365.594184,429.253853 365.691,429.162 C365.691,429.162 365.642,427.752 365.691,427.641 C365.720585,427.394862 365.683994,427.145287 365.585,426.918 C365.571979,426.894178 365.550608,426.876013 365.525,426.867 C365.554495,426.872768 365.579832,426.891495 365.594,426.918 C365.691142,427.145789 365.725665,427.395395 365.694,427.641 C365.644,427.752 365.694,429.162 365.694,429.162 C365.75,429.113 365.908,429.002 365.936,429.405 C365.964,429.808 365.915,429.829 366.026,429.822 C366.137,429.815 366.297,429.722 366.326,430.058 C366.337,430.196 366.451,428.891 366.579,427.318 C366.551,427.155333 366.523667,426.992 366.497,426.828 Z M363.105,425.745 L363.12,425.775 L363.105,425.745 Z M363.231,421.745 L363.213,421.754 L363.231,421.745 Z M363.212,426.845 C363.23742,426.862405 363.264169,426.877786 363.292,426.891 C363.262987,426.879906 363.2349,426.866531 363.208,426.851 L363.212,426.845 Z M365.297,425.47 C365.303359,425.528441 365.306031,425.587224 365.305,425.646 C365.305591,425.588894 365.30292,425.531801 365.297,425.475 C365.212373,425.020071 365.078242,424.575762 364.897,424.15 C365.078838,424.575892 365.212988,425.020598 365.297,425.476 L365.297,425.47 Z M364.571,427.742 C364.578538,427.728582 364.582336,427.713387 364.582,427.698 C364.580703,427.713848 364.575922,427.729213 364.568,427.743 L364.571,427.742 Z M364.885,427.874 L364.904,427.888 L364.885,427.874 Z M364.804,427.498 C364.813,427.564 364.904,427.657 364.904,427.778 C364.897,427.657 364.806,427.565 364.797,427.499 L364.804,427.498 Z M364.567,426.598 C364.522843,426.780311 364.501679,426.967432 364.504,427.155 C364.497268,426.950799 364.518123,426.746623 364.566,426.548 C364.666,426.089 364.574,425.958 364.907,425.774 C364.977292,425.731411 365.058996,425.711509 365.141,425.717 C365.115088,425.781149 365.115088,425.852851 365.141,425.917 C365.083,425.917 365.006,425.823 364.914,425.874 C364.573,426.057 364.669,426.137 364.564,426.596 L364.567,426.598 Z M365.481,426.888 C365.435476,426.950693 365.414487,427.027887 365.422,427.105 C365.422,427.263 365.413,427.319 365.193,427.364 C365.369,427.319 365.24,427.264 365.24,427.107 C365.24,427.035 365.087,426.974 365.087,426.932 C365.253,426.568 364.932,426.211 365.074,425.932 C365.134,426.132 365.34,426.387 365.416,426.62 C365.456507,426.702841 365.477705,426.793787 365.478,426.886 L365.481,426.888 Z" id="Path_7884" fill="#737373" fill-rule="nonzero"></path>
                            <path d="M357.067,434.938 C356.775,434.948 356.761,434.959 356.296,434.538 C356.066781,434.269716 355.731869,434.114861 355.379,434.114 C355.198,434.121 354.844,434.163 354.816,434.093 C354.788,434.023 354.716,434.017 354.642,434.1 C354.568,434.183 354.503,434.107 354.225,433.961 C353.947,433.815 353.961,433.94 353.808,434.061 C353.655,434.182 353.481,434.361 353.481,434.339 C353.481,434.317 353.495,434.249 353.495,434.2 C353.506825,434.106816 353.537443,434.017003 353.585,433.936 C353.654,433.79 353.578,433.714 353.522,433.636 C353.466,433.558 353.314,433.546 353.175,433.566 C353.036,433.586 353.168,433.455 353.099,433.379 C353.03,433.303 352.71,433.289 352.404,433.157 C352.098,433.025 352.029,433.081 351.876,433.178 C351.723,433.275 351.723,433.504 351.605,433.567 C351.487,433.63 351.334,433.748 351.341,433.713 C351.348,433.678 351.23,433.63 351.369,433.581 C351.508,433.532 351.487,433.504 351.633,433.381 C351.779,433.258 351.703,433.221 351.765,433.04 C351.827,432.859 351.758,432.971 351.556,432.94 C351.337176,432.876604 351.133196,432.770194 350.956,432.627 C350.762,432.502 350.775,432.808 350.775,432.808 C350.653738,432.837807 350.543024,432.900429 350.455,432.989 C350.358015,433.101869 350.287008,433.234665 350.247,433.378 C350.205,433.517 350.059,433.478 350.101,433.364 C350.143,433.25 350.24,433.183 350.441,432.864 C350.642,432.545 350.531,432.815 350.663,432.735 C350.795,432.655 350.757,432.693 350.777,432.6 C350.797,432.507 351.051,432.239 351.051,432.127 C351.051,432.015 350.951,432.127 350.87,432.106 C350.789,432.085 350.675,431.912 350.564,431.633 C350.453,431.354 350.47,431.05 350.227,431.008 C350.108,430.988 349.892,430.964 349.892,430.93 C349.892,430.896 350.034,430.847 349.942,430.779 C349.761,430.647 349.857,430.748 349.742,430.57 C349.627,430.392 349.618,430.424 349.482,430.393 C349.366104,430.361362 349.253571,430.318493 349.146,430.265 L349.146,430.257 L348.968,430.174 C348.707,430.049 348.668,430.174 348.668,430.174 C348.668,430.174 348.355,430.112 348.22,430.247 C348.085,430.382 348.074,430.216 347.751,430.216 C347.568,430.216 347.522,430.203 347.501,430.168 C347.487251,430.126862 347.469849,430.087036 347.449,430.049 C347.2783,429.903282 347.059315,429.826602 346.835,429.834 C346.625,429.834 346.809,429.771 346.835,429.639 C346.861,429.507 346.814,429.569 346.703,429.431 C346.599142,429.330006 346.473127,429.254671 346.335,429.211 C346.299,429.194 346.262,429.175 346.224,429.152 C346.024,429.034 346.024,429.103 345.953,429.052 C345.882,429.001 345.901,428.952 345.848,428.8 C345.842,428.783 345.836,428.766 345.828,428.746 C345.769746,428.631556 345.656046,428.555756 345.528,428.546 C345.473,428.535 345.428,428.53 345.396,428.521 C345.237772,428.48235 345.08267,428.431875 344.932,428.37 C344.875,428.328 344.875,428.198 344.812,428.07 C344.749,427.942 344.723,428.07 344.327,428.049 C343.931,428.028 344.027,428.033 344.02,428.138 C344.013,428.243 344.015,428.238 343.811,428.338 C343.607,428.438 343.629,428.421 343.42,428.369 C343.235646,428.292538 343.070148,428.17686 342.935,428.03 C342.835,427.947 342.794,428.025 342.635,428.113 C342.497544,428.191793 342.333735,428.210596 342.182,428.165 C341.974,428.134 342.062,428.076 342.072,427.873 C342.082,427.67 341.895,427.673 341.41,427.618 C340.925,427.563 341.03,427.764 340.748,427.806 C340.466,427.848 340.555,427.801 340.555,427.947 C340.555,428.093 340.717,428.385 340.722,428.547 C340.727,428.709 340.691,428.703 340.555,428.747 C340.419,428.791 340.383,428.867 340.388,428.778 C340.393,428.689 340.315,428.653 340.247,428.523 C340.179,428.393 340.289,428.423 340.315,428.323 C340.341,428.223 340.393,428.266 340.456,428.167 C340.519,428.068 340.44,427.985 340.425,427.891 C340.41,427.797 340.363,427.791 340.274,427.641 C340.185,427.491 340.29,427.558 340.441,427.505 C340.592,427.452 340.561,427.427 340.623,427.265 C340.685,427.103 340.498,427.124 340.253,427.197 C340.008,427.27 340.133,427.478 340.024,427.421 C339.915,427.364 339.847,427.321 339.816,427.515 C339.810115,427.575575 339.77512,427.629497 339.722193,427.659542 C339.669266,427.689587 339.605029,427.691996 339.55,427.666 C339.488,427.64 339.331,427.572 339.3,427.619 C339.269,427.666 339.253,427.796 339.118,427.749 C338.983,427.702 339.018,427.749 338.818,427.843 C338.618,427.937 338.618,428.213 338.618,428.474 C338.618,428.735 338.451,428.432 338.326,428.661 C338.201,428.89 338.013,428.692 338.013,428.995 C338.013,429.298 337.94,429.115 337.924,429.068 C337.913192,429.038567 337.898022,429.010925 337.879,428.986 C337.84007,428.93416 337.797637,428.885046 337.752,428.839 C337.637,428.719 337.596,428.776 337.424,428.547 C337.252,428.318 336.804,428.516 336.524,428.547 C336.304585,428.592141 336.091155,428.662613 335.888,428.757 C335.666,428.823 335.624,428.684 335.565,428.552 C335.506,428.42 335.495,428.521 335.488,428.615 C335.481,428.709 335.439,428.615 335.388,428.605 C335.337,428.595 335.315,428.556 335.343,428.452 C335.365,428.369 335.328,428.376 335.255,428.36 C335.234215,428.355221 335.213823,428.348869 335.194,428.341 C335.083,428.296 335.062,428.23 335.02,428.146 C334.976848,428.066938 334.943278,427.983012 334.92,427.896 C334.902496,427.826324 334.87629,427.759129 334.842,427.696 C334.842,427.696 334.79,427.596 334.742,427.477 C334.694,427.358 334.705,427.368 334.804,427.305 C334.903,427.242 334.804,427.268 334.783,427.117 C334.762,426.966 334.82,427.023 334.945,426.935 C335.07,426.847 334.945,426.735 334.935,426.598 C334.925,426.461 334.949,426.515 335.012,426.383 C335.060911,426.288548 335.115339,426.197057 335.175,426.109 C335.199446,426.071813 335.201703,426.024264 335.18089,425.984928 C335.160078,425.945592 335.119497,425.92071 335.075,425.92 C335.033,425.925 334.903,425.956 334.809,425.962 C334.715,425.968 334.903,425.92 334.97,425.852 C335.037,425.784 335.1,425.821 335.163,425.763 C335.226,425.705 335.199,425.69 335.126,425.68 C335.053,425.67 334.996,425.618 334.865,425.524 C334.734,425.43 334.589,425.482 334.516,425.394 C334.443,425.306 334.271,425.467 334.172,425.394 C334.073,425.321 334.044,425.401 333.872,425.457 C333.696158,425.494477 333.512841,425.47231 333.351,425.394 C333.177,425.332 333.163,425.457 333.101,425.401 C333.039,425.345 333.073,425.366 332.941,425.394 C332.809,425.422 332.83,425.339 332.753,425.339 C332.728,425.339 332.732,425.328 332.753,425.308 C332.798,425.267 332.921,425.19 333.038,425.096 C333.212,424.957 333.163,424.804 333.184,424.631 C333.205,424.458 333.267,424.471 333.372,424.431 C333.427,424.409 333.407,424.4 333.411,424.347 C333.430991,424.236209 333.479988,424.132695 333.553,424.047 C333.796,423.699 333.685,423.852 333.692,423.727 C333.685288,423.626226 333.712001,423.526051 333.768,423.442 C333.83,423.359 334.039,423.171 334.129,423.042 C334.219,422.913 334.229,422.827 334.029,422.847 C333.829,422.867 333.786,422.958 333.696,422.854 C333.606,422.75 333.244,422.833 332.987,422.868 C332.73,422.903 332.709,423.007 332.647,423.268 C332.593562,423.490773 332.501868,423.702582 332.376,423.894 C332.286,424.019 332.188,424.061 331.827,424.081 C331.466,424.101 331.75,424.137 331.556,424.164 C331.402825,424.178127 331.256321,424.233412 331.132,424.324 C330.868,424.463 330.868,424.254 330.792,424.115 C330.716,423.976 330.549,424.15 330.431,424.015 C330.313,423.88 330.394,423.754 330.4,423.609 C330.406,423.464 330.244,423.453 330.228,423.202 C330.187641,422.974523 330.16159,422.744739 330.15,422.514 C330.15,422.149 330.15,422.285 330.338,421.889 C330.526,421.493 330.4,421.545 330.525,421.399 C330.566502,421.350119 330.596871,421.292793 330.614,421.231 C330.637732,421.125305 330.649804,421.017326 330.65,420.909 C330.66,420.748 330.65,420.809 330.728,420.7 C330.794914,420.635031 330.827807,420.542637 330.817,420.45 C330.817,420.32 330.864,420.304 330.989,420.189 C331.114,420.074 331.145,420.1 331.197,420.007 C331.249,419.914 331.234,419.976 331.397,419.976 C331.56,419.976 331.48,419.96 331.553,419.893 C331.626,419.826 331.595,419.888 331.709,419.872 C331.823,419.856 331.792,419.841 331.809,419.762 C331.826,419.683 331.783,419.653 331.861,419.548 C331.939,419.443 331.903,419.626 332.21,419.522 C332.517,419.418 332.335,419.444 332.538,419.538 C332.741,419.632 332.694,419.575 332.871,419.517 C333.048,419.459 332.944,419.595 333.033,419.611 C333.114064,419.621348 333.193015,419.644291 333.267,419.679 C333.30578,419.704135 333.353406,419.711628 333.398031,419.699613 C333.442655,419.687599 333.480082,419.657208 333.501,419.616 C333.558,419.538 333.579,419.621 333.658,419.684 C333.737,419.747 333.71,419.616 333.627,419.491 C333.544,419.366 333.643,419.391 333.653,419.261 C333.663,419.131 333.606,419.261 333.491,419.261 C333.376,419.261 333.391,419.225 333.465,419.147 C333.539,419.069 333.621,419.168 333.887,419.189 C334.153,419.21 334.127,419.137 334.168,419.089 C334.209,419.041 334.194,419.104 334.199,419.209 C334.204,419.314 334.263,419.204 334.493,419.162 C334.723,419.12 334.601,419.068 334.929,419.193 C335.257,419.318 334.903,419.393 335.216,419.469 C335.529,419.545 335.48,419.356 335.668,419.356 C335.856,419.356 335.849,419.405 335.939,419.55 C336.029,419.695 336.175,419.613 336.209,419.8 C336.243,419.987 336.109,420.009 336.099,420.175 C336.089,420.341 336.12,420.575 336.209,420.575 C336.298,420.575 336.231,420.675 336.279,420.742 C336.327,420.809 336.522,421.166 336.585,421.18 C336.648,421.194 336.759,421.28 336.939,421.08 C337.108707,420.879552 337.139206,420.595949 337.016,420.364 C336.898,420.211 336.988,420.17 337.023,420.031 C337.058,419.892 336.988,419.899 336.912,419.711 C336.855098,419.567891 336.815484,419.418501 336.794,419.266 C336.766,419.12 336.694,419.127 336.794,418.981 C336.874978,418.815451 336.975711,418.660321 337.094,418.519 C337.238166,418.417337 337.387717,418.323534 337.542,418.238 C337.713384,418.127532 337.877092,418.005587 338.032,417.873 C338.199,417.748 338.412,417.79 338.454,417.706 C338.496,417.622 338.539,417.64 338.772,417.557 C338.891294,417.518365 339.006512,417.468125 339.116,417.407 C339.304,417.317 339.416,417.159 339.246,417.044 C339.076,416.929 339.246,416.976 339.528,416.934 C339.81,416.892 339.491,416.845 339.403,416.773 C339.315,416.701 339.33,416.617 339.356,416.507 C339.39869,416.415985 339.414974,416.314814 339.403,416.215 C339.382,416.053 339.445,416.001 339.575,415.876 C339.705,415.751 339.575,415.923 339.549,416.076 C339.523,416.229 339.549,416.176 339.658,416.248 C339.767,416.32 339.752,416.316 339.778,416.211 C339.790618,416.114098 339.811357,416.018428 339.84,415.925 C339.882,415.825 339.871,415.915 339.996,415.993 C340.121,416.071 340.058,415.962 340.189,415.837 C340.32,415.712 340.283,415.743 340.33,415.597 C340.33,415.597 340.184,415.508 340.392,415.482 C340.6,415.456 340.423,415.409 340.528,415.326 C340.633,415.243 340.585,415.31 340.872,415.321 C341.159,415.332 341.153,415.331 341.226,415.206 C341.299,415.081 341.268,415.206 341.419,415.279 C341.57,415.352 341.648,415.128 341.612,415.092 C341.576,415.056 341.461,415.034 341.476,414.892 C341.491,414.75 341.481,414.725 341.776,414.532 C342.071,414.339 341.963,414.485 342.11,414.391 C342.257,414.297 342.21,414.308 342.344,414.323 C342.478,414.338 342.5,414.297 342.594,414.292 C342.688,414.287 342.694,414.228 342.877,414.221 C343.06,414.214 342.977,414.172 342.977,414.065 C342.977,413.958 342.998,414.02 343.213,414.009 C343.403486,413.988772 343.590448,413.943377 343.769,413.874 C343.969,413.815 343.769,413.94 343.776,413.957 C343.783,413.974 343.852,413.957 344.054,413.981 C344.256,414.005 344.054,414.033 344.036,414.071 C344.018,414.109 343.942,414.106 343.855,414.085 C343.768,414.064 343.768,414.043 343.688,414.075 C343.608,414.107 343.375,414.175 343.375,414.175 C343.350017,414.228384 343.322314,414.280452 343.292,414.331 C343.23,414.439 343.23,414.431 343.216,414.501 C343.202,414.571 343.303,414.647 343.358,414.651 C343.461076,414.637606 343.561941,414.610709 343.658,414.571 C343.743207,414.528015 343.822525,414.474239 343.894,414.411 C343.964,414.366 343.894,414.359 343.943,414.29 C343.992,414.221 344.043,414.339 344.043,414.339 C344.091823,414.333978 344.138424,414.316028 344.178,414.287 C344.258,414.235 344.223,414.266 344.341,414.259 C344.459,414.252 344.487,414.259 344.556,414.197 C344.625,414.135 344.598,414.166 344.823,414.131 C345.048,414.096 344.923,414.051 344.868,413.968 C344.813,413.885 344.816,413.968 344.733,413.898 C344.65,413.828 344.733,413.86 344.66,413.905 C344.587,413.95 344.58,413.895 344.36,413.895 C344.14,413.895 344.044,413.84 344.033,413.777 C344.022,413.714 344.049,413.709 343.846,413.668 C343.643,413.627 343.757,413.606 343.757,413.459 C343.757,413.312 343.757,413.428 343.632,413.428 C343.507,413.428 343.606,413.407 343.674,413.292 C343.742,413.177 343.752,413.204 343.783,413.146 C343.814,413.088 343.668,413.125 343.574,413.183 C343.48,413.241 343.42,413.219 343.374,413.144 C343.328,413.069 343.309,413.087 343.189,413.074 C343.069,413.061 343.158,413.053 343.189,413.043 C343.234972,413.027449 343.283608,413.021327 343.332,413.025 C343.383681,413.023401 343.434828,413.035842 343.48,413.061 L343.68,413.035 C343.769887,413.023167 343.858791,413.004785 343.946,412.98 C344.11,412.936 344.103,412.912 343.99,412.855 C343.878393,412.77186 343.742128,412.72855 343.603,412.732 C343.366908,412.741821 343.132398,412.775322 342.903,412.832 C342.903,412.832 342.649,412.901 342.521,412.943 C342.3905,412.989389 342.268533,413.056961 342.16,413.143 C342.031,413.237 341.99,413.133 342.073,413.043 C342.156,412.953 342.285,412.903 342.454,412.76 C342.623,412.617 342.634,412.75 342.816,412.765 C342.998,412.78 342.962,412.734 343.097,412.546 C343.232,412.358 343.222,412.484 343.378,412.446 C343.536894,412.423789 343.698106,412.423789 343.857,412.446 C343.857,412.446 344.232,412.477 344.795,412.508 C345.358,412.539 345.066,412.446 345.41,412.268 C345.754,412.09 345.591,412.084 345.928,412.068 C346.265,412.052 346.161,412.037 346.161,412.037 C346.247965,412.019283 346.327083,411.974473 346.387,411.909 C346.526,411.784 346.312,411.866 346.338,411.74 C346.364,411.614 346.307,411.615 346.181,411.54 C346.055,411.465 346.014,411.54 345.999,411.456 C345.984,411.372 346.025,411.414 345.733,411.414 C345.568546,411.40958 345.406122,411.451139 345.264,411.534 C345.197797,411.567076 345.122198,411.576261 345.05,411.56 C344.972,411.544 345.133,411.477 345.133,411.477 C345.234282,411.481133 345.335571,411.468979 345.433,411.441 C345.51069,411.405441 345.59091,411.375692 345.673,411.352 C345.829,411.3 345.84,411.305 345.751,411.252 C345.662,411.199 345.803,411.169 345.584,411.21 C345.365,411.251 345.344,411.21 345.308,411.116 C345.272,411.022 345.277,411.116 345.108,411.131 C344.939,411.146 344.931,411.131 344.908,411.006 C344.885,410.881 344.689,410.975 344.554,410.975 C344.419,410.975 344.476,410.892 344.549,410.767 C344.622,410.642 344.528,410.73 344.523,410.621 C344.518,410.512 344.487,410.558 344.237,410.454 C344.038866,410.37428 343.86215,410.249277 343.721,410.089 C343.539,409.912 343.638,410.094 343.621,410.126 C343.604,410.158 343.475,410.326 343.421,410.386 C343.367,410.446 343.301,410.386 343.072,410.506 C342.843,410.626 342.872,410.542 342.872,410.542 C342.789036,410.465886 342.698189,410.39884 342.601,410.342 C342.455,410.259 342.601,410.342 342.471,410.232 C342.341,410.122 342.471,410.149 342.497,409.932 C342.523,409.715 342.497,409.932 342.283,409.969 C342.069,410.006 342.153,409.969 342.127,409.875 C342.101,409.781 341.981,409.807 341.809,409.698 C341.637,409.589 341.7,409.693 341.491,409.672 C341.282696,409.660345 341.073824,409.663687 340.866,409.682 C340.543,409.692 340.793,409.776 340.72,409.859 C340.647,409.942 340.48,409.911 340.574,410.088 C340.668,410.265 340.459,410.288 340.188,410.317 C339.917,410.346 340.115,410.359 340.488,410.588 C340.861,410.817 340.519,410.807 340.436,410.974 C340.353,411.141 340.103,411.174 339.79,411.203 C339.477,411.232 339.384,411.234 339.55,411.318 C339.716,411.402 339.529,411.735 339.529,411.735 L339.435,412.306 C339.435,412.306 339.279,412.668 339.143,412.668 L339.049,412.668 C338.955,412.668 338.872,412.275 338.872,412.275 C338.80033,412.138602 338.74109,411.996026 338.695,411.849 C338.662046,411.743855 338.662046,411.631145 338.695,411.526 C338.739471,411.406303 338.798946,411.29273 338.872,411.188 C338.972,411.021 338.726,411.17 338.59,411.188 C338.457237,411.203175 338.323434,411.207189 338.19,411.2 C338.023,411.2 338.054,411.154 337.784,411.008 C337.514,410.862 337.555,410.964 337.325,410.797 C337.095,410.63 336.811,410.797 336.603,410.845 C336.395,410.893 336.603,410.758 336.617,410.594 C336.631,410.43 336.607,410.43 336.527,410.368 C336.447,410.306 336.61,410.229 337.02,409.999 C337.43,409.769 337.395,409.752 337.729,409.738 C338.063,409.724 337.962,409.606 338.229,409.516 C338.496,409.426 338.829,409.631 338.92,409.516 C339.011,409.401 339.097,409.405 339.288,409.29 C339.374246,409.249178 339.452746,409.193687 339.52,409.126 C339.576,409.073 339.802,409.151 339.927,409.11 C340.052,409.069 340.274,409.01 340.518,408.929 C340.762,408.848 340.56,408.797 340.532,408.629 C340.504,408.461 341.095,408.723 341.241,408.716 C341.362,408.71 341.387,408.486 341.408,408.486 L341.46,408.486 C341.424,408.486 341.433,408.558 341.428,408.696 C341.421,408.89 341.428,408.691 341.546,408.691 C341.664,408.691 341.664,408.709 341.803,408.779 C341.942,408.849 341.796,408.812 341.764,408.854 C341.670769,408.898707 341.57131,408.929051 341.469,408.944 C341.469,408.944 341.233,409.006 341.358,409.022 C341.466227,409.035818 341.575773,409.035818 341.684,409.022 C341.83,409.009 341.784,408.958 341.893,408.854 C342.002,408.75 341.948,408.868 342.108,408.826 C342.268,408.784 342.254,408.868 342.254,408.902 C342.254,408.936 342.171,408.972 342.032,409.022 C341.956195,409.039742 341.885198,409.073876 341.824,409.122 C341.703393,409.168011 341.577352,409.198261 341.449,409.212 C341.26478,409.234025 341.082098,409.267422 340.902,409.312 C340.841,409.347 341.025,409.437 341.241,409.425 C341.457,409.413 341.519,409.381 341.765,409.375 C342.011,409.369 341.922,409.458 342.096,409.562 C342.27,409.666 342.214,409.662 342.296,409.643 C342.36424,409.627826 342.43414,409.621441 342.504,409.624 L343.136,409.687 C343.267164,409.692591 343.398399,409.677747 343.525,409.643 C343.636,409.591 343.184,409.624 343.184,409.624 C343.049963,409.582455 342.921638,409.524339 342.802,409.451 C342.702,409.368 343.219,409.486 343.219,409.486 L343.601,409.548 C343.671708,409.52085 343.735804,409.478915 343.789,409.425 C343.838,409.358 343.775,409.325 343.608,409.266 C343.441,409.207 343.316,409.277 343.208,409.208 C343.1,409.139 343.152,409.083 343.166,409.062 C343.352864,409.115562 343.536217,409.180688 343.715,409.257 C343.808209,409.279366 343.906525,409.261589 343.986,409.208 C344.125,409.118 344.229,409.048 344.286,409.008 C344.343,408.968 343.73,408.908 343.73,408.908 L343.32,408.873 L342.959,408.748 C343.036437,408.722893 343.110883,408.689359 343.181,408.648 C343.341,408.565 343.035,408.599 343.035,408.599 L342.715,408.557 L342.333,408.529 L341.952,408.341 L342.218,408.241 C342.314996,408.194143 342.415258,408.154372 342.518,408.122 C342.292583,408.111336 342.067665,408.151671 341.86,408.24 C341.771,408.259 341.603,408.313 341.426,408.356 C341.417,408.315 341.332,408.35 341.138,408.345 C340.974969,408.330943 340.811031,408.330943 340.648,408.345 C340.44,408.366 340.476,408.6 340.46,408.486 C340.444,408.372 340.382,408.429 340.153,408.46 C339.924,408.491 339.866,408.66 340.002,408.674 C340.138,408.688 340.21,408.684 340.169,408.804 C340.128,408.924 339.924,408.894 339.809,408.922 C339.694,408.95 339.655,408.96 339.651,409.009 C339.643394,409.036503 339.624401,409.059446 339.598803,409.072054 C339.573204,409.084662 339.543439,409.085734 339.517,409.075 C339.454,409.054 339.517,409.075 339.496,408.997 C339.475,408.919 339.559,408.94 339.658,408.887 C339.757,408.834 339.663,408.787 339.507,408.787 C339.351,408.787 339.179,408.938 338.949,408.938 C338.719,408.938 339.037,408.792 339.183,408.646 C339.329,408.5 338.983,408.584 338.823,408.646 C338.655558,408.702716 338.518383,408.825091 338.443,408.985 C338.406,409.126 338.234,409.105 338.062,409.105 C337.834331,409.105367 337.608521,409.145992 337.395,409.225 C337.046,409.335 337.01,409.246 336.921,409.199 C336.832,409.152 336.968,409.116 337.093,409.116 C337.208188,409.130652 337.325064,409.108607 337.427,409.053 C337.511202,409.007175 337.5984,408.967084 337.688,408.933 C337.761,408.891 337.568,408.891 337.313,408.871 C337.025597,408.896071 336.744918,408.971912 336.484,409.095 C336.27,409.168 336.494,409.195 336.442,409.329 C336.39,409.463 336.281,409.444 336.077,409.402 C335.873,409.36 335.963,409.402 335.728,409.475 C335.513,409.542 335.565,409.499 335.535,409.399 C334.824964,409.673007 334.129093,409.982395 333.45,410.326 C332.717,410.709 331.927,411.167 331.34,411.537 C331.101333,411.691 330.866,411.849333 330.634,412.012 C329.989,412.482 329.503,412.936 329.312,413.088 C329.104,413.255 329.242,413.283 329.112,413.394 C328.982,413.505 329.105,413.63 328.98,413.714 C328.938491,413.744885 328.902342,413.782386 328.873,413.825 C328.788306,413.959264 328.694063,414.087261 328.591,414.208 C328.427641,414.447557 328.23629,414.666773 328.021,414.861 C327.685351,415.117302 327.420101,415.454456 327.25,415.841 C327.12325,416.129655 326.927511,416.382742 326.68,416.578 C326.540768,416.670805 326.469712,416.837256 326.499,417.002 C326.519075,417.164678 326.465545,417.327833 326.353,417.447 C326.253,417.516 326.374,417.547 326.253,417.822 C326.132,418.097 326.142,418.128 326.343,418.253 C326.544,418.378 326.489,418.322 326.433,418.559 C326.414095,418.687201 326.412414,418.817354 326.428,418.946 C326.426211,419.020263 326.411666,419.093666 326.385,419.163 C326.285,419.427 326.308,419.726 326.225,419.913 C326.142,420.1 326.35,420.073 326.325,420.351 C326.3,420.629 326.2,420.678 326.025,420.678 C325.85,420.678 326.004,420.878 326.164,421.067 C326.324,421.256 326.421,421.22 326.338,421.467 C326.256013,421.704249 326.297639,421.966753 326.449,422.167 C326.602,422.382 326.526,422.549 326.581,422.438 C326.636,422.327 326.706,422.327 326.706,422.132 C326.706,421.937 326.685,421.972 326.588,421.958 C326.491,421.944 326.595,421.805 326.595,421.632 C326.595,421.459 326.539,421.486 326.581,421.326 C326.633487,421.138291 326.59938,420.93695 326.488,420.777 C326.354,420.562 326.456,420.687 326.488,420.377 C326.52,420.067 326.574,420.023 326.511,419.821 C326.448,419.619 326.511,419.446 326.711,419.209 C326.911,418.972 326.78,419.119 326.811,419.133 C326.881888,419.202916 326.930289,419.292404 326.95,419.39 C326.971,419.508 326.908,419.536 326.867,419.661 C326.826,419.786 326.839,419.918 326.777,419.995 C326.715,420.072 326.84,420.141 326.847,420.28 C326.854,420.419 326.882,420.412 326.965,420.489 C327.048,420.566 327.014,420.565 327.003,420.704 C326.992,420.843 327.11,420.829 327.034,420.961 C326.975216,421.133537 327.013378,421.324344 327.134,421.461 C327.233163,421.568861 327.276742,421.716587 327.252,421.861 C327.245,422.042 327.433,422.035 327.433,422.431 C327.412836,422.614606 327.479822,422.797059 327.614,422.924 C327.64634,423.04992 327.618249,423.183718 327.538,423.286 C327.439731,423.414832 327.392702,423.575515 327.406,423.737 C327.434,423.918 327.746,424.102 327.762,424.196 C327.821096,424.379958 327.990808,424.505835 328.184,424.509 C328.471,424.54 328.284,424.53 328.393,424.66 C328.496024,424.781571 328.615118,424.888553 328.747,424.978 C328.847,425.046 328.992,425.051 329.289,425.186 C329.586,425.321 329.383,425.332 329.497,425.347 C329.623264,425.36883 329.746026,425.407509 329.862,425.462 C330.123,425.556 330.029,425.504 330.18,425.42 C330.331,425.336 330.409,425.128 330.696,425.165 C330.983,425.202 330.701,425.227 330.972,425.265 C331.243,425.303 331.003,425.265 331.092,425.365 C331.163,425.448 331.346,425.677 331.515,425.907 C331.558,425.965 331.6,426.023 331.639,426.079 C331.832,426.355 331.967,426.23 332.212,426.214 C332.254639,426.211814 332.297361,426.211814 332.34,426.214 C332.418,426.214 332.368,426.257 332.368,426.385 C332.368,426.557 332.436,426.5 332.639,426.599 C332.842,426.698 332.889,426.63 333.107,426.499 C333.325,426.368 333.186,426.556 333.129,426.676 C333.072,426.796 333.124,426.796 333.311,426.952 C333.498,427.108 333.499,427.395 333.785,427.416 C334.071,427.437 333.775,427.265 333.848,427.116 C333.921,426.967 334.166,427.392 334.255,427.501 C334.344,427.61 334.213,427.543 334.047,427.543 C333.881,427.543 333.974,427.543 333.847,427.621 C333.72,427.699 333.847,427.788 333.847,427.928 C333.847,428.068 333.884,428.183 334.133,428.162 C334.382,428.141 334.404,428.303 334.404,428.303 L334.54,428.46 C334.579754,428.534857 334.60615,428.616074 334.618,428.7 C334.618,428.789 334.602,428.789 334.785,428.94 C334.82386,428.983466 334.87911,429.008723 334.937406,429.009673 C334.995702,429.010622 335.051745,428.987177 335.092,428.945 C335.264057,429.004781 335.439746,429.053547 335.618,429.091 C335.718,429.096 335.675,429.101 335.842,429.211 C336.009,429.321 335.904,429.362 335.942,429.524 C335.98,429.686 335.999,429.519 336.142,429.466 C336.216142,429.448364 336.27999,429.40147 336.319,429.336 L336.277,429.185 L336.126,428.985 C336.126,428.985 336.326,428.949 336.426,428.923 C336.526,428.897 336.567,428.741 336.681,428.683 C336.795,428.625 337.171,428.772 337.186,428.918 C337.190098,429.036965 337.204147,429.155379 337.228,429.272 C337.259,429.382 337.416,429.454 337.442,429.553 C337.468,429.652 337.593,429.819 337.542,429.887 C337.491,429.955 337.662,430.049 337.563,430.148 C337.464,430.247 337.605,430.57 337.501,430.732 C337.397,430.894 337.558,430.993 337.558,431.165 C337.531668,431.330902 337.436997,431.478169 337.297,431.571 C337.24,431.587 336.932,431.597 336.897,431.771 C336.862,431.945 336.741,431.943 336.741,431.943 C336.722964,431.982166 336.719421,432.026464 336.731,432.068 C336.752,432.13 336.741,432.146 336.648,432.256 C336.555,432.366 336.548,432.298 336.231,432.318 C335.914,432.338 336.142,432.334 336.273,432.542 C336.404,432.75 336.226,432.62 336.158,432.667 C336.09,432.714 336.085,432.829 336.012,432.959 C335.939,433.089 335.902,432.98 335.923,433.115 C335.96688,433.264133 335.946203,433.424833 335.866,433.558 C335.757,433.735 335.835,433.693 335.918,433.792 C336.001,433.891 336.018,433.787 336.241,433.933 C336.464,434.079 336.283,434.199 336.141,434.199 C335.999,434.199 336.141,434.199 335.99,434.299 C335.839,434.399 335.928,434.367 335.69,434.653 C335.452,434.939 335.648,434.778 335.82,435.023 C335.992,435.268 335.867,435.31 335.763,435.346 C335.659,435.382 335.945,435.476 336.305,435.731 C336.665,435.986 336.43,435.799 336.498,435.981 C336.566,436.163 336.54,436.075 336.748,436.262 C336.956,436.449 337.139,437.07 337.274,437.21 C337.392499,437.328308 337.463634,437.485873 337.474,437.653 C337.479,437.794 337.464,437.809 337.599,437.809 C337.734,437.809 337.839,438.075 338.016,438.267 C338.193,438.459 338.216,438.507 338.224,438.637 C338.232,438.767 338.182,438.824 338.224,438.937 C338.266,439.05 338.443,439.146 338.766,439.39 C339.104518,439.675777 339.498413,439.888555 339.923,440.015 C340.632,440.27 340.064,440.13 340.35,440.265 C340.636,440.4 340.371,440.374 340.433,440.447 C340.495,440.52 340.683,440.494 340.84,440.598 C340.882683,440.624063 340.923453,440.653137 340.962,440.685 C340.989,440.712 340.989,440.733 341.001,440.796 C341.022,440.905 341.043,440.958 341.101,441.27 C341.133989,441.4258 341.14975,441.584755 341.148,441.744 C341.169,442.044 341.122,441.9 341.075,442.229 C341.028,442.558 341.054,442.687 340.934,442.784 C340.814,442.881 340.845,442.901 340.924,442.974 C341.003,443.047 340.955,443.115 341.007,443.365 C341.059,443.615 341.064,443.714 341.017,443.818 C340.97,443.922 341.074,443.99 340.981,444.131 C340.888,444.272 340.919,444.292 340.934,444.444 C340.949,444.596 340.908,444.684 340.773,444.902 C340.638,445.12 340.794,445.126 340.799,445.392 C340.804,445.658 340.643,445.621 340.69,445.809 C340.736349,445.961569 340.774735,446.116445 340.805,446.273 C340.836,446.466 340.8,446.466 340.758,446.638 C340.716,446.81 340.638,447.128 340.596,447.238 C340.56013,447.370697 340.516726,447.501242 340.466,447.629 C340.377,447.838 340.336,447.697 340.336,447.829 C340.336,447.961 340.32,447.902 340.236,447.964 C340.152,448.026 340.168,448.011 340.215,448.146 C340.250936,448.261031 340.292656,448.374175 340.34,448.485 C340.365326,448.536754 340.386072,448.590627 340.402,448.646 L340.324,448.787 C340.294112,448.843239 340.255271,448.894238 340.209,448.938 C340.136,449.021 340.173,449.099 340.204,449.209 C340.235,449.319 340.204,449.246 340.214,449.391 C340.225807,449.463135 340.210872,449.537099 340.172,449.599 C340.145043,449.672966 340.100415,449.739223 340.042,449.792 C339.964,449.881 340.021,449.839 340.042,449.892 C340.063,449.945 340.125,449.897 340.235,449.897 C340.345,449.897 340.277,449.876 340.298,449.86 C340.331896,449.796092 340.359685,449.729129 340.381,449.66 C340.403881,449.558043 340.444499,449.4609 340.501,449.373 C340.595,449.227 340.683,449.373 340.683,449.373 L340.668,449.592 C340.668,449.592 340.626,449.681 340.574,449.806 C340.522,449.931 340.537,449.895 340.548,450.035 C340.559,450.175 340.531,450.247 340.531,450.417 C340.531,450.587 340.475,450.591 340.437,450.587 C340.399,450.583 340.367,450.542 340.322,450.465 C340.294316,450.401644 340.26995,450.33689 340.249,450.271 C340.207,450.184 340.235,450.313 340.176,450.379 C340.117,450.445 340.093,450.445 340.068,450.535 C340.043,450.625 339.985,450.635 339.859,450.643 C339.733,450.651 339.633,450.643 339.38,450.643 C339.127,450.643 339.48,450.671 339.648,450.712 C339.780786,450.756689 339.925415,450.750633 340.054,450.695 C340.165,450.639 340.116,450.695 340.154,450.709 C340.220109,450.719679 340.287048,450.724365 340.354,450.723 C340.454,450.723 340.385,450.803 340.319,450.823 C340.253,450.843 340.246,450.861 340.219,450.913 C340.192,450.965 340.285,451 340.285,451 C340.285,451 340.261,451.087 340.219,451.08 C340.177,451.073 340.149,451.059 340.097,451.049 C340.037686,451.050363 339.980445,451.071083 339.934,451.108 C339.906,451.129 339.996,451.219 339.996,451.219 C340.034871,451.19952 340.07579,451.184428 340.118,451.174 C340.188,451.157 340.167,451.358 340.212,451.374 C340.257,451.39 340.244,451.574 340.243,451.583 L340.25,451.576 C340.264141,451.553633 340.282892,451.534542 340.305,451.52 C340.346988,451.526437 340.387985,451.538198 340.427,451.555 L340.427,451.614 L340.311,451.669 C340.245,451.7 340.298,451.707 340.311,451.728 C340.324,451.749 340.44,451.728 340.44,451.728 C340.500023,451.73618 340.557815,451.756237 340.61,451.787 C340.662,451.829 340.798,451.909 340.798,451.909 C340.798,451.909 340.784,452.034 340.729,452.02 C340.674,452.006 340.666,451.978 340.639,451.971 C340.612,451.964 340.639,452.027 340.604,452.071 C340.584427,452.095205 340.584427,452.129795 340.604,452.154 L340.847,452.237 L341.083,452.355 L341.278,452.334 L341.417,452.272 L341.487,452.335 C341.474349,452.371083 341.464978,452.408234 341.459,452.446 C341.459,452.474 341.709,452.557 341.709,452.557 C341.783677,452.566259 341.857788,452.579612 341.931,452.597 C341.993,452.616 342.137,452.558 342.255,452.584 C342.362468,452.599157 342.471532,452.599157 342.579,452.584 L342.964,452.55 C343.002995,452.541981 343.040464,452.527803 343.075,452.508 C343.117,452.48 342.943,452.46 342.88,452.425 C342.796386,452.381341 342.710609,452.341957 342.623,452.307 C342.567,452.286 342.504,452.363 342.462,452.307 C342.414998,452.25629 342.370607,452.203222 342.329,452.148 C342.278234,452.051653 342.213912,451.963085 342.138,451.885 C342.055,451.808 342.009,451.72 342.097,451.637 C342.151,451.587 342.158,451.578 342.366,451.573 C342.574,451.568 342.507,451.531 342.522,451.412 C342.537,451.293 342.538,451.292 342.736,451.212 C342.934,451.132 342.96,451.15 343.153,450.858 C343.346,450.566 343.132,450.758 343.101,450.775 C343.07,450.792 342.919,450.853 342.668,450.713 C342.417,450.573 342.595,450.557 342.678,450.437 C342.761,450.317 342.949,450.307 343.158,450.296 C343.367,450.285 343.2,450.223 343.304,450.15 C343.408,450.077 343.361,450.124 343.393,449.999 C343.425,449.874 343.388,449.848 343.586,449.775 C343.784,449.702 343.486,449.64 343.513,449.556 C343.54,449.472 343.419,449.535 343.461,449.347 C343.503,449.159 343.336,449.316 343.419,449.097 C343.502,448.878 343.659,449.18 344.159,449.191 C344.659,449.202 344.524,449.056 344.524,449.056 C344.524,449.056 344.305,448.856 344.451,448.756 C344.597,448.656 344.451,448.6 344.461,448.412 C344.471,448.224 344.561,448.422 344.795,448.464 C345.225803,448.518785 345.663291,448.449398 346.056,448.264 C346.817,448.003 346.796,447.67 346.671,447.649 C346.546,447.628 346.471,447.649 346.577,447.549 C346.683,447.449 346.587,447.382 346.535,447.309 C346.483,447.236 346.16,447.08 346.149,447.038 C346.138,446.996 346.149,446.924 346.232,446.938 C346.315,446.952 346.774,447.125 346.774,447.125 C346.774,447.125 347.18,447.188 347.441,447.198 C347.702,447.208 347.733,447.167 347.941,446.979 C348.023,446.905 348.111,446.813 348.208,446.713 C348.370975,446.538784 348.546441,446.376687 348.733,446.228 C348.803245,446.161726 348.883581,446.107044 348.971,446.066 C348.982613,446.025541 348.989986,445.983984 348.993,445.942 C348.993,445.88 349.082,445.802 349.082,445.802 L349.243,445.551 C349.280507,445.539742 349.320493,445.539742 349.358,445.551 C349.4,445.572 349.458,445.635 349.41,445.681 C349.32013,445.75171 349.23649,445.829996 349.16,445.915 C349.131918,445.947474 349.112941,445.986809 349.105,446.029 C349.142,446.016 349.19,445.996 349.254,445.967 C349.645,445.79 349.554,445.634 349.754,445.404 C349.898091,445.211855 350.100517,445.071524 350.331,445.004 C350.637,444.893 350.484,444.775 350.539,444.497 C350.554977,444.297233 350.616924,444.103865 350.72,443.932 C350.871,443.656 350.902,443.781 351.158,443.598 C351.344717,443.423634 351.551107,443.27161 351.773,443.145 C352.065,443.01 352.023,442.895 352.242,442.905 C352.461,442.915 352.367,442.895 352.542,442.717 C352.717,442.539 352.928,442.617 353.342,442.644 C353.756,442.671 353.467,442.509 353.642,442.425 C353.78395,442.38253 353.886731,442.259272 353.903,442.112 C353.94664,441.944142 354.060781,441.803381 354.216,441.726 C354.336965,441.665396 354.430296,441.560981 354.477,441.434 C354.55,441.288 354.654,441.246 354.748,441.059 C354.842,440.872 354.883,440.621 354.935,440.705 C354.987,440.789 354.966,440.549 355.154,440.288 C355.291561,440.044283 355.376712,439.774525 355.404,439.496 C355.477,439.215 355.518,438.839 355.592,438.589 C355.666,438.339 355.759,438.402 355.8,438.558 C355.841,438.714 355.9,438.37 356.154,438.068 C356.408,437.766 356.519,437.588 356.602,437.474 C356.685,437.36 356.79,437.297 356.956,437.057 C357.122,436.817 357.185,436.588 357.415,436.257 C357.645,435.926 357.498,435.465 357.477,435.194 C357.456,434.923 357.358,434.928 357.067,434.938 Z M341.811,412.638 C341.821,412.568 341.843,412.576 341.975,412.562 C341.975,412.562 342.114,412.631 342.086,412.708 C342.058,412.785 342.086,412.708 341.893,412.736 C341.7,412.764 341.801,412.711 341.811,412.641 L341.811,412.638 Z M340.947,412.238 C341.008211,412.185279 341.079239,412.145177 341.156,412.12 C341.165598,412.217007 341.151173,412.314885 341.114,412.405 C341.052,412.579 340.989,412.641 340.947,412.6 C340.905,412.559 340.739,412.371 340.739,412.371 L340.947,412.238 Z M340.565,412.857 C340.665,412.816 340.665,412.877 340.665,413.002 L340.54,413.044 C340.54,413.044 340.408,413.016 340.415,412.954 C340.422,412.892 340.467,412.903 340.564,412.858 L340.565,412.857 Z M340.165,411.432 C340.260715,411.393093 340.36195,411.369471 340.465,411.362 C340.434263,411.472847 340.37126,411.57205 340.284,411.647 C340.152,411.747 340.194,411.709 340.173,411.647 C340.152,411.585 340.138,411.564 340.006,411.494 C339.874,411.424 340.002,411.495 340.161,411.433 L340.165,411.432 Z M342.419,409.369 C342.419,409.369 342.286,409.398 342.271,409.369 C342.256,409.34 342.292,409.275 342.292,409.275 L342.392,409.249 C342.420083,409.250561 342.446837,409.261474 342.468,409.28 L342.419,409.369 Z M342.437,408.993 C342.473913,408.989408 342.511087,408.989408 342.548,408.993 C342.583,408.993 342.743,409.093 342.708,409.093 C342.654723,409.096481 342.601277,409.096481 342.548,409.093 C342.548,409.093 342.479,409.079 342.486,409.163 C342.493,409.247 342.386,409.17 342.386,409.163 C342.386,409.156 342.399,409.003 342.434,408.994 L342.437,408.993 Z M338.796,414.413 L339.157,414.462 L339.407,414.33 L339.567,414.247 L339.692,414.3 L339.748,414.324 C339.705913,414.415481 339.657113,414.503722 339.602,414.588 C339.526,414.699 339.227,414.63 339.227,414.63 C339.227,414.63 339.032,414.637 338.817,414.63 C338.602,414.623 338.678,414.766 338.678,414.766 L338.358,414.887 C338.112146,414.937111 337.879914,415.039416 337.677,415.187 C337.377,415.421 337.302,415.187 337.302,415.187 C337.302,415.187 337.177,414.987 337.302,414.871 C337.427,414.755 337.441,414.759 337.483,414.766 C337.525,414.773 337.476,414.905 337.56,414.866 C337.56,414.866 337.713,414.838 337.886,414.824 C337.975881,414.817521 338.064583,414.799713 338.15,414.771 C338.235621,414.749473 338.319256,414.720703 338.4,414.685 C338.56,414.629 338.5,414.585 338.5,414.585 L338.543,414.446 L338.796,414.413 Z M336.385,412.468 C336.475,412.28 336.385,412.468 336.524,412.426 C336.578659,412.515671 336.61629,412.614664 336.635,412.718 C336.642,412.836 336.566,412.753 336.301,412.779 C336.036,412.805 336.291,412.655 336.382,412.468 L336.385,412.468 Z M335.44,412.399 C335.468,412.211 335.44,412.399 335.593,412.399 L335.871,412.531 L335.746,412.642 C335.746,412.642 335.409,412.586 335.437,412.403 L335.44,412.399 Z M335.169,413.399 L335.869,413.156 L336.557,412.948 C336.557,412.948 336.932,412.748 337.023,412.948 C337.073258,413.052294 337.131428,413.152588 337.197,413.248 C337.243312,413.333707 337.276994,413.425657 337.297,413.521 C337.297,413.521 337.033,413.715 337.533,413.715 C338.033,413.715 338.068,413.527 338.29,413.715 C338.512,413.903 338.526,413.764 338.519,413.958 C338.512,414.152 338.595,414.264 338.429,414.187 C338.263,414.11 338.137,414.055 338.068,414.117 C337.995702,414.202775 337.932684,414.295961 337.88,414.395 C337.88,414.395 337.78,414.631 337.706,414.652 C337.632,414.673 337.497,414.694 337.497,414.694 C337.497,414.694 337.518,414.423 337.455,414.374 C337.392,414.325 337.274,414.485 337.177,414.464 C337.08,414.443 337.365,414.311 337.413,414.144 C337.434063,414.07834 337.422037,414.006546 337.380727,413.951333 C337.339418,413.896121 337.273935,413.864323 337.205,413.866 C337.08,413.866 337.149,413.766 336.99,413.88 C336.831,413.994 336.629,414.165 336.629,414.165 C336.629,414.165 336.316,414.234 336.274,414.429 C336.232,414.624 336.323,414.665 336.225,414.818 C336.127,414.971 336.025,415.124 336.025,415.124 C336.025,415.124 335.858,415.242 335.803,415.166 C335.792922,414.930907 335.814108,414.695516 335.866,414.466 L336.026,414.028 L336.436,413.82 C336.436,413.82 336.672,413.764 336.783,413.75 C336.867013,413.729137 336.954218,413.724386 337.04,413.736 C337.095,413.757 337.179,413.722 337.061,413.597 C336.943,413.472 336.631,413.597 336.631,413.597 C336.554,413.618 336.638,413.667 336.443,413.597 C336.248,413.527 336.475,413.497 336.181,413.514 C336.000916,413.528121 335.822884,413.561649 335.65,413.614 L335.38,413.573 C335.308562,413.581101 335.236438,413.581101 335.165,413.573 C335.089,413.552 335.166,413.403 335.166,413.403 L335.169,413.399 Z M334.78,412.999 C334.697,413.027 334.78,412.999 334.631,412.899 C334.482,412.799 334.631,412.843 334.815,412.718 C334.854376,412.776909 334.88787,412.839543 334.915,412.905 C334.919,412.961 334.86,412.968 334.777,412.996 L334.78,412.999 Z M334.585,410.984 C334.655,410.72 334.55,410.884 334.759,410.713 L334.912,410.943 C334.810932,411.059343 334.701652,411.168289 334.585,411.269 C334.419,411.403 334.513,411.245 334.582,410.981 L334.585,410.984 Z M334.493,411.884 C334.505,411.696 334.564,411.784 334.738,411.689 L334.773,411.807 C334.778706,411.943816 334.75483,412.080253 334.703,412.207 C334.643089,412.335155 334.572858,412.458227 334.493,412.575 C334.462,412.582 334.502,412.513 334.551,412.311 C334.6,412.109 334.478,412.072 334.49,411.884 L334.493,411.884 Z M333.929,410.918 C333.828957,410.943696 333.724043,410.943696 333.624,410.918 C333.524,410.869 333.507,410.818 333.929,410.757 L333.929,410.918 Z M334.168,412.269 C334.224,412.404 334.134,412.558 334.126,412.704 C334.118,412.85 333.987,412.739 333.987,412.739 C333.987,412.739 334.029,412.607 334.077,412.482 C334.125,412.357 333.987,412.253 333.987,412.253 C334.031305,412.173034 334.061736,412.086136 334.077,411.996 C334.098,411.857 334.077,411.857 334.209,411.76 C334.160386,411.925006 334.145423,412.098099 334.165,412.269 L334.168,412.269 Z M333.605,410.578 C333.834,410.516 333.8,410.453 334.057,410.307 L334.21,410.432 C334.096686,410.525039 333.97595,410.608651 333.849,410.682 C333.634,410.807 333.585,410.744 333.39,410.724 C333.195,410.704 333.373,410.64 333.602,410.578 L333.605,410.578 Z M332.683,424.586 L332.693,424.594 L332.707,424.606 L332.683,424.586 Z M341.626,437.709 C341.615532,437.70463 341.60434,437.702256 341.593,437.702 L341.626,437.709 Z M341.859,438.357 C341.781,438.482 341.826,438.385 341.814,438.557 C341.802,438.729 341.783,438.724 341.783,438.821 C341.783,438.918 341.804,438.87 341.814,438.904 C341.831189,438.960726 341.831189,439.021274 341.814,439.078 C341.794185,439.12309 341.761923,439.161595 341.721,439.189 C341.644,439.245 341.693,439.3 341.651,439.425 C341.609,439.55 341.609,439.488 341.638,439.631 C341.638,439.64 341.638,439.651 341.644,439.661 C341.681,439.717 341.724,439.789 341.785,439.883 C341.907,440.074 341.829,440.112 341.811,440.133 C341.793,440.154 341.755,440.117 341.678,440.033 C341.667112,440.073697 341.65307,440.113484 341.636,440.152 C341.621,440.178 341.568,440.2 341.528,440.226 C341.567,440.2 341.521,440.178 341.537,440.152 C341.553,440.126 341.482,440.028 341.482,440.028 C341.490514,439.966921 341.47188,439.905173 341.431,439.859 C341.35,439.759 341.339,439.74 341.342,439.735 C341.319292,439.727861 341.297481,439.71813 341.277,439.706 C341.124,439.623 341.303,439.588 341.254,439.431 C341.205,439.274 341.343,439.413 341.517,439.521 C341.561842,439.548128 341.600916,439.583804 341.632,439.626 C341.603,439.483 341.606,439.545 341.648,439.42 C341.69,439.295 341.643,439.239 341.719,439.184 C341.760145,439.156573 341.792725,439.118101 341.813,439.073 C341.830189,439.016274 341.830189,438.955726 341.813,438.899 C341.803,438.864 341.783,438.913 341.783,438.816 C341.783,438.719 341.802,438.726 341.813,438.552 C341.824,438.378 341.78,438.476 341.858,438.352 C341.93541,438.25263 341.93541,438.11337 341.858,438.014 C341.937455,438.114792 341.936625,438.257141 341.856,438.357 L341.859,438.357 Z M342.725,441.15 C342.697,441.296 342.631,441.16 342.513,440.99 C342.395,440.82 342.469,440.81 342.6,440.764 C342.677,440.737 342.75,441.003 342.719,441.15 L342.725,441.15 Z M346.043,433.542 C345.819,433.349 345.897,433.454 345.96,433.342 C345.996,433.279 346.147,433.352 346.314,433.316 C346.481,433.28 346.324,433.566 346.387,433.749 C346.45,433.932 346.264,433.735 346.04,433.542 L346.043,433.542 Z M346.21,431.76 C346.11,431.531 346.075,431.437 346.21,431.312 C346.345,431.187 346.433,431.176 346.342,431.012 C346.282138,430.858417 346.193176,430.717843 346.08,430.598 C346.193176,430.717843 346.282138,430.858417 346.342,431.012 C346.433,431.179 346.342,431.189 346.21,431.312 C346.078,431.435 346.11,431.531 346.21,431.76 C346.31,431.989 346.325,432.125 346.473,432.229 C346.552419,432.29095 346.647076,432.330333 346.747,432.343 C346.647102,432.330237 346.552469,432.290864 346.473,432.229 C346.319,432.124 346.311,431.989 346.206,431.76 L346.21,431.76 Z M348.241,431.86 C348.265633,431.861828 348.290367,431.861828 348.315,431.86 C348.28705,431.862356 348.25895,431.862356 348.231,431.86 L348.164,431.86 C348.188588,431.857483 348.213284,431.856148 348.238,431.856 L348.241,431.86 Z M347.665,431.921 L347.685,431.971 C347.841,431.999 348.042,432.116 348.134,432.117 C348.045,432.117 347.841,431.995 347.682,431.966 L347.664,431.922 L347.665,431.921 Z M347.834,442.716 L347.797,442.699 L347.76,442.684 L347.754,442.684 L347.717,442.67 L347.71,442.67 L347.672,442.658 L347.665,442.658 L347.626,442.646 L347.621,442.646 L347.585,442.636 L347.578,442.636 C347.567,442.636 347.555,442.595 347.544,442.592 C347.471,442.573 347.406,442.506 347.366,442.506 C347.359,442.506 347.352,442.535 347.347,442.532 L347.347,442.548 C347.342,442.548 347.338,442.548 347.334,442.548 L347.289,442.548 C347.289,442.548 347.239,442.548 347.239,442.548 C347.239,442.548 347.282,442.541 347.283,442.538 C347.284,442.535 347.314,442.526 347.324,442.52 C347.34651,442.496905 347.374842,442.480321 347.406,442.472 C347.512,442.393 347.513,442.36 347.627,442.461 C347.763,442.581 347.99,442.661 347.944,442.689 C347.898,442.717 348.051,442.827 347.831,442.712 L347.834,442.716 Z M348.278,443.959 L348.29,443.952 L348.302,443.946 L348.278,443.959 Z M348.252,433.77 C348.189,433.681 348.127,433.692 347.952,433.598 C347.777,433.504 347.797,433.469 347.905,433.426 C347.957,433.405 348.139,433.515 348.249,433.65 C348.359,433.785 348.312,433.855 348.249,433.766 L348.252,433.77 Z M348.97,431.94 C348.888021,431.869646 348.796852,431.810773 348.699,431.765 C348.688315,431.76168 348.677189,431.759994 348.666,431.76 C348.677241,431.757573 348.688982,431.759352 348.699,431.765 C348.797209,431.808586 348.887978,431.867299 348.968,431.939 C348.968,431.939 349.043,431.939 349.13,431.939 C349.008,431.94 348.967,431.935 348.967,431.935 L348.97,431.94 Z M349.355,431.94 L349.388,431.94 C349.423317,431.936841 349.458914,431.940231 349.493,431.95 C349.462,431.968 349.446,431.941 349.353,431.936 L349.355,431.94 Z M351.248,435.13 C351.211,434.958 351.191,435.005 351.048,434.823 C350.905,434.641 351.106,434.672 351.126,434.411 C351.126,434.411 351.152,434.557 351.174,434.672 C351.196,434.787 351.274,434.86 351.335,435.105 C351.396,435.35 351.282,435.298 351.246,435.126 L351.248,435.13 Z M352.259,441.868 C352.17,441.821 352.181,441.868 352.159,442.035 C352.137,442.202 352.086,442.118 352.086,441.946 C352.086,441.774 352.003,441.821 352.086,441.691 C352.086,441.691 352.138,441.639 352.279,441.691 C352.42,441.743 352.345,441.911 352.257,441.864 L352.259,441.868 Z M354.797,437.032 C354.718118,437.096271 354.612651,437.117589 354.515,437.089 C354.38,437.073 354.463,437.297 354.376,437.313 C354.25187,437.327158 354.13957,437.393302 354.067,437.495 C353.973,437.63 353.885,437.745 353.817,437.704 C353.749,437.663 353.791,437.646 353.874,437.464 C353.957,437.282 354.01,437.334 354.213,437.084 C354.416,436.834 354.385,436.933 354.474,436.933 C354.608062,436.935275 354.738785,436.891112 354.844,436.808 C355.044,436.683 354.944,436.774 354.969,436.871 C354.983,436.919 354.894,436.955 354.795,437.028 L354.797,437.032 Z" id="Path_7885" fill="#737373" fill-rule="nonzero"></path>
                        </g>
                        <path d="M358.393,413.126 C365.749228,422.27645 365.032629,435.498674 356.730549,443.800497 C348.428468,452.102321 335.206222,452.818511 326.056,445.462 C331.577895,452.330714 340.53919,455.440142 349.128762,453.467885 C357.718334,451.495628 364.425649,444.788521 366.398171,436.19901 C368.370694,427.609498 365.261543,418.648107 358.393,413.126 Z" id="Path_7886" fill="#AFAFB3" fill-rule="nonzero" opacity="0.45"></path>
                        <path d="M323.333,433.329 C323.335817,424.325469 328.591837,416.151472 336.782452,412.412835 C344.973066,408.674198 354.591993,410.058469 361.396,415.955 C355.762967,409.431507 346.955445,406.604918 338.578246,408.632123 C330.201047,410.659327 323.660327,417.200047 321.633123,425.577246 C319.605918,433.954445 322.432507,442.761967 328.956,448.395 C325.322645,444.217499 323.325145,438.86549 323.333,433.329 Z" id="Path_7887" fill="#EEEDF2" fill-rule="nonzero" opacity="0.35"></path>
                    </g>
                </g>
            </g>
        </g>
    </g>
</svg>