<?xml version="1.0" encoding="UTF-8"?>
<svg width="20px" height="20px" viewBox="0 0 20 20" version="1.1" xmlns="http://www.w3.org/2000/svg" xmlns:xlink="http://www.w3.org/1999/xlink">
    <!-- Generator: sketchtool 51.3 (57544) - http://www.bohemiancoding.com/sketch -->
    <title>A0DBB143-6E66-47DB-A6F1-4C11796A19C6</title>
    <desc>Created with sketchtool.</desc>
    <defs>
        <path d="M2.84578087,5.93393245 C2.60377194,2.35800582 9.43071082,-4.13313337 14.8621125,3.70131483 C17.6354452,3.43229059 20.2126081,6.14807738 19.9860982,8.93137602 C19.9860982,9.91898147 18.0438751,10.1947528 18.0694211,8.5411062 C18.094967,6.88745958 17.158102,5.66280772 14.5118679,5.53108896 C14.1194349,5.53108896 13.4888856,5.58807492 13.288095,4.89357483 C11.6876218,0.809783205 5.21045332,1.47011736 4.7639298,6.3744397 C4.66709982,7.2950257 4.56027407,7.14950879 4.24670581,7.33917681 C2.40066801,7.73944114 1.22737259,9.60427597 2.4448515,11.0126921 C3.20033672,11.5728246 3.20033672,11.5728246 4.24670581,11.8382044 C4.24670581,11.3366547 4.25372893,10.2930413 4.23900752,9.70002128 C4.2321757,9.60427597 4.83085492,9.38287528 5.1823287,9.60427597 C5.91737985,10.0673001 7.01739171,10.8917721 8.25457663,12.1949923 C8.39884687,12.346963 8.65200647,12.6688398 8.19351044,13.1628952 C7.54939574,13.8408589 7.01739171,14.5183005 5.22917051,15.5545329 C4.90446223,15.8669181 4.24223358,15.5874891 4.24670581,15.406556 C4.27365092,14.3164371 4.24670581,13.6481124 4.24670581,13.4015822 C3.35367614,13.4015822 2.67010089,13.4015822 1.70940546,12.6688398 C0.22700455,12.0609037 -1.71896276,7.54036158 2.84578087,5.93393245 Z M10.1440444,11.1111111 L17.7738799,11.1111111 C18.5172192,11.1111111 18.8888889,11.5265604 18.8888889,12.3574589 C18.8888889,13.1223836 18.8888889,14.1489009 18.8888889,15.4370107 C18.8888889,15.7722024 18.8888889,16.4957264 17.5109913,16.4957264 C15.1657246,16.4957264 12.7086312,16.4957264 10.1397111,16.4957264 C9.30582961,16.4957264 8.88888889,16.1428212 8.88888889,15.4370107 C8.88888889,14.3479494 8.88888889,13.3214321 8.88888889,12.3574589 C8.88888889,11.5265604 9.30727406,11.1111111 10.1440444,11.1111111 Z M11.2196299,12.5431781 C10.5688085,12.5431781 10.2433978,12.7739833 10.2433978,13.2355936 C10.2433978,13.7711343 10.2433978,14.2344365 10.2433978,14.6255001 C10.2433978,15.017617 10.5676851,15.2136755 11.2162595,15.2136755 C13.2143086,15.2136755 14.6245871,15.2136755 16.4486834,15.2136755 C17.5203816,15.2136755 17.5203816,14.8117177 17.5203816,14.6255001 C17.5203816,13.9098835 17.5203816,13.6605518 17.5203816,13.2355936 C17.5203816,12.7739833 17.2313052,12.5431781 16.6531523,12.5431781 L11.2196299,12.5431781 Z" id="path-1"></path>
    </defs>
    <g id="Ensky/EZmaster" stroke="none" stroke-width="1" fill="none" fill-rule="evenodd">
        <g id="ezmcloud---List" transform="translate(-691.000000, -20.000000)">
            <g id="sky" transform="translate(691.000000, 20.000000)">
                <g id="🎨icon-color">
                    <g transform="translate(0.000000, 2.222222)">
                        <mask id="mask-2" fill="white">
                            <use xlink:href="#path-1"></use>
                        </mask>
                        <use id="Mask" fill="#FFFFFF" xlink:href="#path-1"></use>
                        <g mask="url(#mask-2)" fill="#9B9B9B" id="Icon-Shade">
                            <g transform="translate(0.000000, -2.222222)">
                                <rect x="0" y="0" width="20" height="20"></rect>
                            </g>
                        </g>
                    </g>
                </g>
            </g>
        </g>
    </g>
</svg>