<?xml version="1.0" encoding="UTF-8"?>
<svg width="30px" height="30px" viewBox="0 0 30 30" version="1.1" xmlns="http://www.w3.org/2000/svg" xmlns:xlink="http://www.w3.org/1999/xlink">
    <!-- Generator: sketchtool 51.3 (57544) - http://www.bohemiancoding.com/sketch -->
    <title>89CBB10F-6B8C-46F5-99D5-E72096C25E89</title>
    <desc>Created with sketchtool.</desc>
    <defs>
        <path d="M4.26867131,8.90089868 C3.90565792,3.53700873 14.1460662,-6.19970006 22.2931688,5.55197225 C26.4531679,5.14843589 30.3189121,9.22211608 29.9791473,13.397064 C29.9791473,14.8784722 27.0658126,15.2921292 27.1041316,12.8116593 C27.1424506,10.3311894 25.7371531,8.49421158 21.7678018,8.29663345 C21.1791523,8.29663345 20.2333284,8.38211237 19.9321425,7.34036225 C17.5314327,1.21467481 7.81567998,2.20517604 7.1458947,9.56165954 C7.00064972,10.9425385 6.84041111,10.7242632 6.37005871,11.0087652 C3.60100202,11.6091617 1.84105888,14.406414 3.66727725,16.5190381 C4.80050509,17.3592368 4.80050509,17.3592368 6.37005871,17.7573066 C6.37005871,17.004982 6.38059339,15.439562 6.35851128,14.5500319 C6.34826355,14.406414 7.24628238,14.0743129 7.77349305,14.406414 C8.87606978,15.1009501 10.5260876,16.3376581 12.3818649,18.2924884 C12.5982703,18.5204445 12.9780097,19.0032598 12.2902657,19.7443428 C11.3240936,20.7612884 10.5260876,21.7774507 7.84375577,23.3317994 C7.35669334,23.8003772 6.36335037,23.3812336 6.37005871,23.109834 C6.41047637,21.4746556 6.37005871,20.4721687 6.37005871,20.1023732 C5.03051421,20.1023732 4.00515133,20.1023732 2.56410819,19.0032598 C0.340506826,18.0913556 -2.57844414,11.3105424 4.26867131,8.90089868 Z M15.2160666,16.6666667 L26.6608198,16.6666667 C27.7758288,16.6666667 28.3333333,17.2898405 28.3333333,18.5361883 C28.3333333,19.6835754 28.3333333,21.2233513 28.3333333,23.1555161 C28.3333333,23.6583036 28.3333333,24.7435896 26.2664869,24.7435896 C22.7485869,24.7435896 19.0629468,24.7435896 15.2095666,24.7435896 C13.9587444,24.7435896 13.3333333,24.2142317 13.3333333,23.1555161 C13.3333333,21.5219241 13.3333333,19.9821482 13.3333333,18.5361883 C13.3333333,17.2898405 13.9609111,16.6666667 15.2160666,16.6666667 Z M16.8294449,18.8147672 C15.8532128,18.8147672 15.3650967,19.1609749 15.3650967,19.8533904 C15.3650967,20.6567015 15.3650967,21.3516547 15.3650967,21.9382501 C15.3650967,22.5264255 15.8515276,22.8205132 16.8243893,22.8205132 C19.8214629,22.8205132 21.9368806,22.8205132 24.6730251,22.8205132 C26.2805724,22.8205132 26.2805724,22.2175765 26.2805724,21.9382501 C26.2805724,20.8648252 26.2805724,20.4908277 26.2805724,19.8533904 C26.2805724,19.1609749 25.8469578,18.8147672 24.9797285,18.8147672 L16.8294449,18.8147672 Z" id="path-1"></path>
    </defs>
    <g id="new0305-menu改個概念" stroke="none" stroke-width="1" fill="none" fill-rule="evenodd">
        <g id="Edit-Profile--1" transform="translate(-15.000000, -250.000000)">
            <g id="Left-menu">
                <g id="Enkey" transform="translate(15.000000, 250.000000)">
                    <g id="🎨icon-color">
                        <g transform="translate(0.000000, 3.333333)">
                            <mask id="mask-2" fill="white">
                                <use xlink:href="#path-1"></use>
                            </mask>
                            <use id="Mask" fill="#FFFFFF" xlink:href="#path-1"></use>
                            <g mask="url(#mask-2)" fill="#FFFFFF" id="Icon-Shade">
                                <g transform="translate(0.000000, -3.333333)">
                                    <rect x="0" y="0" width="30" height="30"></rect>
                                </g>
                            </g>
                        </g>
                    </g>
                </g>
            </g>
        </g>
    </g>
</svg>