<?xml version="1.0" encoding="UTF-8"?>
<svg width="131px" height="92px" viewBox="0 0 131 92" version="1.1" xmlns="http://www.w3.org/2000/svg" xmlns:xlink="http://www.w3.org/1999/xlink">
    <!-- Generator: sketchtool 51.3 (57544) - http://www.bohemiancoding.com/sketch -->
    <title>0C0F1E7E-39D8-41B6-B0F6-96A073631826</title>
    <desc>Created with sketchtool.</desc>
    <defs>
        <linearGradient x1="25.3484823%" y1="13.3676958%" x2="93.4070624%" y2="90.8286123%" id="linearGradient-1">
            <stop stop-color="#616161" offset="0%"></stop>
            <stop stop-color="#525252" offset="100%"></stop>
        </linearGradient>
    </defs>
    <g id="建構中" stroke="none" stroke-width="1" fill="none" fill-rule="evenodd">
        <g id="table---Alert-Setting-switch" transform="translate(-685.000000, -185.000000)">
            <g id="Group-11" transform="translate(685.000000, 185.000000)">
                <path d="M109.477477,39.6546547 C110.312406,37.47426 110.780781,35.0900901 110.780781,32.6040326 C110.780781,21.8039468 102.024212,13.041613 91.2312312,13.041613 C87.2195008,13.041613 83.4725038,14.2642643 80.3771584,16.3427713 C74.7362988,6.56156156 64.2080518,0 52.1321321,0 C34.1302553,0 19.5495495,14.5903046 19.5495495,32.6040326 C19.5495495,33.1542257 19.5699137,33.7044187 19.5902778,34.2546118 C8.18637387,38.2689833 0,49.1505792 0,61.9476619 C0,78.1477906 13.1348536,91.2912913 29.3243243,91.2912913 L104.264264,91.2912913 C118.661693,91.2912913 130.33033,79.6149721 130.33033,65.2080652 C130.33033,52.5943801 121.37012,42.0592021 109.477477,39.6546547 Z" id="Mask" fill="url(#linearGradient-1)"></path>
                <g id="Group-10" transform="translate(39.000000, 24.000000)">
                    <path d="M26,51.7753154 C40.3594035,51.7753154 52,40.1850163 52,25.8876577 C52,11.5902991 40.3594035,0 26,0 C11.6405965,0 0,11.5902991 0,25.8876577 C0,35.4389405 5.19501758,43.7821046 12.9251261,48.2687167 C13.6162016,48.2687167 11.9323951,57.400846 13.6162016,57.9632264 C15.4100626,58.5623643 22.2606201,51.6420459 23.3454672,51.6420459 C25.2899532,51.8383785 25.1038434,51.7753154 26,51.7753154 Z" id="Oval-3" fill="#FFFFFF" transform="translate(26.000000, 29.000000) scale(-1, 1) translate(-26.000000, -29.000000) "></path>
                    <g id="Group-4" transform="translate(23.000000, 9.000000)" fill="#565656">
                        <ellipse id="Oval-4" cx="4" cy="28.5090909" rx="3.42857143" ry="3.49090909"></ellipse>
                        <path d="M4,0 L4,0 C6.03638347,-3.74077575e-16 7.68719845,1.65081498 7.68719845,3.68719845 C7.68719845,3.7871815 7.6831317,3.88712319 7.67500828,3.98677569 L6.38504273,19.8111893 C6.27921465,21.1094156 5.19473242,22.1090909 3.89219979,22.1090909 L3.89219979,22.1090909 C2.59303633,22.1090909 1.51463893,21.105312 1.42164264,19.8094813 L0.286326682,3.98973897 C0.139134722,1.93873383 1.68248024,0.156742991 3.73348538,0.00955103122 C3.82218103,0.00318572012 3.91107624,1.63350292e-17 4,0 Z" id="Rectangle-5"></path>
                    </g>
                </g>
            </g>
        </g>
    </g>
</svg>