<?xml version="1.0" encoding="UTF-8"?>
<svg width="109px" height="17px" viewBox="0 0 109 17" version="1.1" xmlns="http://www.w3.org/2000/svg" xmlns:xlink="http://www.w3.org/1999/xlink">
    <!-- Generator: sketchtool 51.3 (57544) - http://www.bohemiancoding.com/sketch -->
    <title>3FDF47C5-041A-4D62-A0C4-E26AA9F33A98</title>
    <desc>Created with sketchtool.</desc>
    <defs></defs>
    <g id="Voucher" stroke="none" stroke-width="1" fill="none" fill-rule="evenodd">
        <g id="A4-VOUCHER" transform="translate(-100.000000, -242.000000)">
            <g id="fitcon-icon-copy" transform="translate(100.000000, 242.000000)">
                <g id="Group">
                    <path d="M44.7345924,1.78031809 C45.2414818,1.78165592 45.7448819,1.86421353 46.2256461,2.02485089 C46.400817,2.08130615 46.5721494,2.14904223 46.7385686,2.22763419 C46.9054484,2.3035907 47.0677523,2.38922341 47.2246521,2.48409543 C47.7600285,2.80784185 48.2294801,3.22974125 48.6083499,3.72763419 L48.6560636,3.79324056 L48.5934394,3.84393638 L48.1968191,4.18389662 L48.1252485,4.24652087 L48.0715706,4.16898608 C47.8205396,3.82705882 47.5188656,3.52538488 47.1769384,3.27435388 C47.0487078,3.17892644 46.9145129,3.09244533 46.7803181,3.01192843 C46.6418204,2.9342285 46.4994926,2.86356222 46.3538767,2.80019881 C45.8433351,2.57676119 45.2918856,2.46200283 44.7345924,2.46322068 C44.2797195,2.46347341 43.8277713,2.53594616 43.3956262,2.67793241 C43.2395372,2.72954726 43.0862473,2.78927058 42.9363817,2.85685885 C42.7882763,2.92567692 42.6439371,3.002326 42.5039761,3.08648111 C42.0309775,3.36864719 41.6184838,3.7416144 41.2902584,4.18389662 L41.2365805,4.2584493 L41.1650099,4.20178926 L40.7922465,3.90357853 L40.7296223,3.8528827 L40.777336,3.78727634 C41.0771926,3.38105975 41.4383618,3.02391473 41.8479125,2.72862823 C41.9993803,2.62065583 42.1566758,2.5211017 42.3190855,2.4304175 C42.4801193,2.34095427 42.6500994,2.25745527 42.8230616,2.18290258 C43.4296779,1.92544328 44.0815703,1.79161779 44.7405567,1.78926441 L44.7345924,1.78031809 Z M44.7345924,0.00894632207 C44.1409553,0.0108318198 43.5498853,0.0869696427 42.9751491,0.235586481 C42.7544732,0.292246521 42.5337972,0.36083499 42.3190855,0.438369781 C42.1029455,0.514763359 41.890929,0.60235704 41.6838966,0.700795229 C40.7453178,1.13534574 39.912075,1.7681626 39.2415507,2.555666 L39.1819085,2.62425447 L39.2564612,2.67793241 L39.6590457,2.97614314 L39.7246521,3.02385686 L39.77833,2.9612326 C40.1083377,2.56329355 40.4881988,2.20949145 40.9085487,1.90854871 C41.0725646,1.79224652 41.2425447,1.68190855 41.4214712,1.57753479 C41.5980316,1.46864255 41.7801913,1.36910178 41.9671968,1.27932406 C42.8346686,0.877679344 43.7786552,0.668130608 44.7345924,0.66500994 C45.2556862,0.666092417 45.7746076,0.73220981 46.2793241,0.861829026 C46.4750693,0.910471211 46.6681698,0.969197651 46.8578529,1.03777336 C47.0516899,1.10636183 47.2365805,1.18389662 47.4184891,1.26739563 C48.2490899,1.65348069 48.990405,2.20794375 49.5954274,2.89562624 L49.6550696,2.96421471 L49.7176938,2.90159046 L50.0934394,2.5526839 L50.1530815,2.49602386 L50.0994036,2.4333996 C49.732239,2.01025868 49.3146149,1.63369596 48.8558648,1.31212724 C48.6769384,1.18687873 48.4920477,1.06759443 48.3011928,0.957256461 C48.110338,0.846918489 47.9135189,0.748508946 47.7047714,0.659045726 C46.7699422,0.226737369 45.7526118,0.0019073621 44.722664,0 L44.7345924,0.00894632207 Z M0.00298210736,4.52683897 L6.6888668,4.52683897 L6.6888668,5.8777336 L1.65506958,5.8777336 L1.65506958,8.91053678 L6.55168986,8.91053678 L6.55168986,10.2316103 L1.65805169,10.2316103 L1.65805169,14.27833 L6.72763419,14.27833 L6.72763419,15.6500994 L0,15.6500994 L0,4.52087475 L0.00298210736,4.52683897 Z M11.9314115,8.51988072 C13.526839,8.51988072 14.7823062,9.24751491 14.7703777,11.3141153 L14.7703777,11.3916501 L14.7703777,15.6769384 L13.222664,15.6769384 L13.222664,11.3916501 L13.2375746,11.3916501 C13.2823062,10.2345924 12.6232604,9.73359841 11.528827,9.73359841 C9.86182903,9.73359841 9.73956262,11.1560636 9.66500994,11.3946322 L9.66500994,15.6799205 L8.13220676,15.6799205 L8.13220676,8.82107356 L9.67992048,8.82107356 L9.67992048,9.55168986 C10.2518944,8.89788759 11.0776407,8.52195573 11.9463221,8.51988072 L11.9314115,8.51988072 Z M39.2803181,8.49304175 C40.8727634,8.49304175 42.1312127,9.22067594 42.1163022,11.2872763 L42.1163022,11.3648111 L42.1163022,15.6500994 L40.5685885,15.6500994 L40.5685885,11.3648111 L40.583499,11.3648111 C40.6252485,10.2047714 39.9662028,9.70675944 38.8717694,9.70675944 C37.2047714,9.70675944 37.082505,11.1292247 37.0109344,11.3648111 L37.0109344,15.6530815 L35.4781312,15.6530815 L35.4781312,8.79423459 L37.0109344,8.79423459 L37.0109344,9.52485089 C37.5845391,8.87153936 38.4109329,8.49580708 39.2803181,8.49304175 Z M22.0974155,9.7693837 L26.7882704,9.7693837 C26.6630219,13.6998012 24.250497,15.7007952 21.1878728,15.7007952 C18.1252485,15.7007952 15.6262425,13.1033797 15.6262425,9.91848907 C15.6262425,6.73359841 17.9493042,4.2166998 21.1848907,4.13021869 C23.2514911,4.07654076 25.0198807,4.78926441 25.9890656,6.33996024 L24.9333996,7.23459245 C24.2683897,5.97017893 22.8459245,5.3528827 21.1908549,5.48409543 C18.6709742,5.67793241 17.084493,7.44333996 17.084493,9.84691849 C17.084493,12.250497 18.9333996,14.2067594 21.193837,14.2067594 C23.0785288,14.2067594 24.5695825,13.3121272 25.1063618,11.111332 L22.0974155,11.111332 L22.0974155,9.7693837 Z M34.5894632,12.2445328 L34.5894632,12.2713718 L28.8638171,12.2713718 C28.9805944,13.434195 29.9440441,14.3286443 31.112326,14.3588469 C32.0308151,14.3588469 33.05666,13.8399602 33.3906561,13.0228628 L34.7296223,13.7326044 C34.249503,14.9970179 32.5377734,15.7186879 30.9930417,15.7186879 C30.008931,15.7155418 29.0666005,15.3205575 28.3743725,14.6210546 C27.6821444,13.9215517 27.2970329,12.9751436 27.304175,11.9910537 C27.2734965,10.994708 27.6618749,10.0311251 28.3749022,9.33453486 C29.0879295,8.63794458 30.0603066,8.27214076 31.055666,8.32604374 C33.3280318,8.36779324 34.8280318,9.67693837 34.7206759,12.2266402 L34.5894632,12.2445328 Z M28.9592445,11.1888668 L33.166998,11.1888668 C32.9045726,10.0526839 32.1918489,9.54274354 31.1630219,9.54274354 C30.1483978,9.55596682 29.2581355,10.2221577 28.9592445,11.1918489 L28.9592445,11.1888668 Z M43.9115308,8.74950298 L45.5725646,8.74950298 L45.5725646,15.6500994 L43.9145129,15.6500994 L43.9145129,8.74950298 L43.9115308,8.74950298 Z M44.7345924,5.8777336 C45.064411,5.87652767 45.362369,6.07443712 45.4891428,6.3789205 C45.6159166,6.68340388 45.5464541,7.03429144 45.3132356,7.26750992 C45.0800171,7.5007284 44.7291295,7.57019091 44.4246461,7.44341712 C44.1201628,7.31664333 43.9222533,7.01868534 43.9234592,6.6888668 C43.9234592,6.4737409 44.0089177,6.267426 44.1610347,6.11530901 C44.3131516,5.96319203 44.5194665,5.8777336 44.7345924,5.8777336 Z M53.8479125,12.4383698 C53.9761431,14.6809145 52.6550696,15.6411531 50.5675944,15.6411531 C48.3518887,15.6411531 47.4423459,14.5258449 47.2872763,13.0139165 L47.2544732,12.4860835 L47.2544732,8.66898608 L48.832008,8.66898608 L48.832008,9.63220676 L48.832008,12.4502982 L48.832008,13.0467197 C48.832008,13.6431412 49.5596421,14.4125249 50.6361829,14.4125249 C51.4943579,14.4445502 52.2181527,13.7792976 52.2584493,12.9214712 L52.2584493,8.56163022 L53.8389662,8.56163022 L53.8389662,12.4383698 L53.8479125,12.4383698 Z M57.5487078,8.29622266 C58.4565885,8.26590893 59.3029036,8.75381187 59.7316103,9.55467197 L58.4194831,10.1779324 C58.2973809,9.82042785 57.9706349,9.57271426 57.5934394,9.55168986 C57.3809168,9.52758577 57.1677689,9.59132276 57.0033655,9.72813789 C56.8389622,9.86495302 56.7375665,10.0629766 56.722664,10.2763419 C56.722664,10.6222664 57.2624254,10.9145129 57.6441352,11.0218688 C57.8648111,11.111332 58.6699801,11.4333996 59.2037773,11.7017893 C59.9212601,11.9955318 60.367941,12.7179268 60.3101392,13.4910537 C60.1371769,14.7882704 59.054672,15.638171 57.5606362,15.6411531 C56.305169,15.6411531 55.2465209,14.9642147 54.9363817,14.0516899 L56.3349901,13.4552684 C56.4887704,13.9008036 56.8725991,14.2275149 57.3369781,14.3081511 C57.9333996,14.4363817 58.5298211,14.3081511 58.6699801,13.5387674 C58.8817097,12.7634195 57.8499006,12.7485089 57.2415507,12.3161034 C56.8159877,12.1676803 56.4103442,11.9673626 56.0337972,11.7196819 C55.497503,11.4498085 55.179738,10.8804302 55.2316103,10.2823062 C55.2316103,9.18489066 56.2574553,8.28727634 57.5487078,8.28727634 L57.5487078,8.29622266 Z M44.7256461,3.52485089 C43.9822778,3.52443122 43.2678944,3.813179 42.7335984,4.33001988 C42.6329342,4.422376 42.5392392,4.52205151 42.4532803,4.62823062 C42.3669105,4.73839406 42.2891461,4.85504061 42.2206759,4.97713718 L42.1878728,5.03976143 L42.2415507,5.08449304 L42.6351889,5.40656064 L42.7186879,5.47514911 L42.7664016,5.37972167 C42.9870967,4.9541044 43.338221,4.61029518 43.7683897,4.39860835 C43.8530585,4.35947165 43.9396499,4.32463603 44.027833,4.29423459 C44.2525007,4.21752208 44.4882429,4.17823171 44.7256461,4.17793241 C45.3027511,4.17748203 45.8567482,4.40465298 46.2673956,4.81013917 C46.3452203,4.88593881 46.4170089,4.96769811 46.4821074,5.05467197 C46.5500122,5.14046037 46.6099053,5.23229636 46.6610338,5.32902584 L46.7027833,5.40954274 L46.7803181,5.36182903 L46.8011928,5.36182903 L47.1709742,5.04572565 L47.2246521,4.99801193 L47.1888668,4.93538767 C46.9043224,4.46160077 46.4905132,4.07882735 45.9960239,3.83200795 C45.8988842,3.78418052 45.7993492,3.74138046 45.6978131,3.70377734 C45.3792174,3.58490309 45.0418393,3.52429626 44.7017893,3.52485089 L44.7256461,3.52485089 Z" id="Shape" fill="#000000"></path>
                    <path d="M71.1450195,11.4160156 L66.8530273,11.4160156 L66.8530273,15.9350586 L65,15.9350586 L65,5.27099609 L71.7749023,5.27099609 L71.7749023,6.76513672 L66.8530273,6.76513672 L66.8530273,9.93652344 L71.1450195,9.93652344 L71.1450195,11.4160156 Z M75.3109376,15.9350586 L73.5311524,15.9350586 L73.5311524,8.01025391 L75.3109376,8.01025391 L75.3109376,15.9350586 Z M73.4212892,5.95214844 C73.4212892,5.67870957 73.5079582,5.45166106 73.6812989,5.27099609 C73.8546396,5.09033113 74.1024399,5 74.4247071,5 C74.7469744,5 74.9959953,5.09033113 75.1717774,5.27099609 C75.3475596,5.45166106 75.4354493,5.67870957 75.4354493,5.95214844 C75.4354493,6.22070447 75.3475596,6.44409091 75.1717774,6.62231445 C74.9959953,6.800538 74.7469744,6.88964844 74.4247071,6.88964844 C74.1024399,6.88964844 73.8546396,6.800538 73.6812989,6.62231445 C73.5079582,6.44409091 73.4212892,6.22070447 73.4212892,5.95214844 Z M79.8284182,6.08398438 L79.8284182,8.01025391 L81.2273439,8.01025391 L81.2273439,9.32861328 L79.8284182,9.32861328 L79.8284182,13.7524414 C79.8284182,14.0551773 79.888232,14.273681 80.0078615,14.407959 C80.127491,14.542237 80.3411119,14.609375 80.6487307,14.609375 C80.8538098,14.609375 81.0613273,14.5849612 81.2712893,14.5361328 L81.2712893,15.9130859 C80.8660138,16.0253912 80.4753927,16.081543 80.0994143,16.081543 C78.7322199,16.081543 78.048633,15.327156 78.048633,13.8183594 L78.048633,9.32861328 L76.7449221,9.32861328 L76.7449221,8.01025391 L78.048633,8.01025391 L78.048633,6.08398438 L79.8284182,6.08398438 Z M91.2453128,12.4633789 C91.1378904,13.6010799 90.7179727,14.4885222 89.9855472,15.1257324 C89.2531216,15.7629426 88.2790103,16.081543 87.0631839,16.081543 C86.2135703,16.081543 85.4652867,15.880129 84.8183108,15.4772949 C84.171335,15.0744609 83.6720724,14.5019568 83.3205081,13.7597656 C82.9689439,13.0175744 82.7858402,12.1557666 82.7711917,11.1743164 L82.7711917,10.1782227 C82.7711917,9.17235825 82.9494126,8.28613665 83.3058597,7.51953125 C83.6623068,6.75292585 84.1737763,6.16211145 84.8402835,5.74707031 C85.5067907,5.33202917 86.2770467,5.12451172 87.1510745,5.12451172 C88.3278382,5.12451172 89.2750944,5.44433274 89.9928714,6.08398438 C90.7106484,6.72363601 91.1281247,7.62694729 91.2453128,8.79394531 L89.3996097,8.79394531 C89.3117186,8.02733992 89.0883322,7.47436693 88.7294437,7.13500977 C88.3705551,6.7956526 87.8444374,6.62597656 87.1510745,6.62597656 C86.3454064,6.62597656 85.7265161,6.92016307 85.2943851,7.50854492 C84.862254,8.09692677 84.6413089,8.95995525 84.6315433,10.0976562 L84.6315433,11.0424805 C84.6315433,12.19483 84.83784,13.0737274 85.2504398,13.6791992 C85.6630395,14.284671 86.2672815,14.5874023 87.0631839,14.5874023 C87.7907266,14.5874023 88.3375961,14.4238298 88.7038089,14.0966797 C89.0700217,13.7695296 89.3019529,13.2251015 89.3996097,12.4633789 L91.2453128,12.4633789 Z M92.7452152,11.8994141 C92.7452152,11.123043 92.8990223,10.4235871 93.206641,9.80102539 C93.5142598,9.17846368 93.9463843,8.69995284 94.5030277,8.36547852 C95.0596712,8.03100419 95.6993132,7.86376953 96.4219731,7.86376953 C97.4913143,7.86376953 98.3592256,8.20800437 99.0257328,8.89648438 C99.6922401,9.58496438 100.052344,10.4980412 100.106055,11.6357422 L100.113379,12.0532227 C100.113379,12.8344766 99.9632343,13.5327118 99.6629399,14.1479492 C99.3626454,14.7631867 98.9329622,15.2392561 98.3738774,15.5761719 C97.8147925,15.9130876 97.169047,16.081543 96.4366215,16.081543 C95.3184518,16.081543 94.4236854,15.7092322 93.7522953,14.9645996 C93.0809052,14.219967 92.7452152,13.2275453 92.7452152,11.9873047 L92.7452152,11.8994141 Z M94.5250004,12.0532227 C94.5250004,12.8686564 94.6934557,13.5070778 95.0303715,13.9685059 C95.3672872,14.4299339 95.8360326,14.6606445 96.4366215,14.6606445 C97.0372104,14.6606445 97.5047351,14.4262719 97.8392094,13.9575195 C98.1736837,13.4887672 98.3409184,12.8027389 98.3409184,11.8994141 C98.3409184,11.0986288 98.1688009,10.4638695 97.8245609,9.99511719 C97.4803209,9.52636484 97.0127963,9.29199219 96.4219731,9.29199219 C95.8409155,9.29199219 95.3794943,9.52270277 95.0376957,9.98413086 C94.6958971,10.4455589 94.5250004,11.1352493 94.5250004,12.0532227 Z M103.620118,8.01025391 L103.671387,8.92578125 C104.257328,8.2177699 105.026363,7.86376953 105.978516,7.86376953 C107.628915,7.86376953 108.46875,8.8085843 108.498047,10.6982422 L108.498047,15.9350586 L106.718262,15.9350586 L106.718262,10.8007812 C106.718262,10.297849 106.609621,9.92553832 106.392334,9.68383789 C106.175048,9.44213746 105.819827,9.32128906 105.326661,9.32128906 C104.608884,9.32128906 104.074221,9.64599285 103.722657,10.2954102 L103.722657,15.9350586 L101.942872,15.9350586 L101.942872,8.01025391 L103.620118,8.01025391 Z" id="FitCon" fill="#363638"></path>
                </g>
            </g>
        </g>
    </g>
</svg>