<?xml version="1.0" encoding="UTF-8"?>
<svg width="40px" height="8px" viewBox="0 0 40 8" version="1.1" xmlns="http://www.w3.org/2000/svg" xmlns:xlink="http://www.w3.org/1999/xlink">
    <!-- Generator: Sketch 51.3 (57544) - http://www.bohemiancoding.com/sketch -->
    <title>maemo icon</title>
    <desc>Created with Sketch.</desc>
    <defs></defs>
    <g id="Guidline" stroke="none" stroke-width="1" fill="none" fill-rule="evenodd">
        <g id="popup-guidline-copy" transform="translate(-56.000000, -47.000000)">
            <g id="maemo-icon" transform="translate(56.000000, 47.000000)">
                <path d="M0,2.11981643 L2.74939721,1.61734078 L2.01394872,4.2406926 C2.72990451,3.08180493 3.24194808,2.37484621 3.55007942,2.11981643 C4.33493266,1.47022025 5.00443891,1.48942832 5.26512741,1.88422309 C5.50754131,2.25134225 5.39093227,2.91004473 4.82636877,4.50976807 C4.80424787,4.57244892 6.48887793,1.33598365 7.95131163,1.61734078 C8.0631523,1.63885776 8.37154461,1.90421119 8.39278042,2.11981643 C8.47141249,2.91816105 7.92201797,4.46304817 7.57583732,5.43659442 C7.4394098,5.82026258 7.31216454,6.33304309 7.30120902,6.34689901 C7.28728219,6.3645129 7.35453187,6.55423888 7.51355147,6.49920128 C8.01547192,6.32548373 9.13253355,5.68485193 9.03218507,5.74295349 C9.00276295,5.75998883 9.15138785,4.83963444 9.63488387,3.93725774 C9.92923297,3.3878969 10.4167508,2.86470826 10.8638645,2.50727342 C11.2617424,2.18919904 12.0209074,1.61734078 12.85782,1.72441537 C13.496641,1.80614612 13.5112961,2.24476987 13.7042419,2.41998594 C13.7493783,2.46097485 13.8081774,2.28238724 13.8806392,1.88422309 C14.4978577,1.73164343 14.8015369,1.67837418 14.7916767,1.72441537 C14.6906179,2.19630123 14.187098,3.804704 13.8441698,5.07342728 C13.6816139,5.67483115 13.4915559,6.25315117 13.5145606,6.49920128 C13.5475921,6.85249374 13.9643938,6.4259981 14.3946639,6.05735411 C14.515752,5.95360897 14.7176721,5.77673843 15.0004241,5.5267425 L15.2,5.65566298 C14.7352908,6.06016055 14.4062952,6.34133998 14.2130133,6.49920128 C13.752999,6.87491378 13.3869381,7.1494697 13.1697217,7.19115555 C13.1186286,7.20096078 12.6675676,7.23048753 12.6051097,6.93101428 C12.5657665,6.74237146 12.6331071,6.26322734 12.8071314,5.49358192 C12.4617626,5.93978747 12.0649642,6.33299321 11.6167361,6.67319916 C11.1685081,7.0134051 10.8197777,7.18605723 10.5705448,7.19115555 C10.0658434,7.23325027 9.69505838,7.12508423 9.45818963,6.86665742 C9.22132089,6.60823061 9.09213656,6.29747401 9.07063666,5.93438762 C8.77795894,6.13750371 8.15466349,6.52646208 7.2007503,7.10126272 C6.23045583,7.45618173 6.32223806,6.67319916 6.39533604,6.26994788 C6.30833122,6.29885756 6.76941494,5.02871858 7.12301277,3.99024194 C7.41762461,3.12500042 7.64528036,2.48049551 7.34772793,2.32355443 C7.2007503,2.25770968 7.11182862,2.29572934 6.9930804,2.36157408 C6.80176184,2.46765839 6.0529797,2.93219018 4.98963073,4.73194824 C4.77922803,5.08806271 4.46569759,5.85962991 4.04903941,7.04664985 L3.17226699,7.04664985 C3.52514093,5.85386848 3.76725098,5.03511466 3.89859715,4.59038839 C4.25869701,3.37112278 4.46275141,2.6643636 4.41540159,2.57318078 C4.41540159,1.88422309 3.52554763,2.5458212 3.27025107,2.87901236 C2.86415271,3.40901711 2.25066121,4.19045614 1.89528502,5.00645005 C1.45048805,6.02776668 1.30022785,7.04664985 1.20948506,7.04664985 C0.699609265,7.04664985 0.402015937,7.04664985 0.316705076,7.04664985 C0.76429472,5.29397228 1.25943966,3.81055966 1.56786829,2.69496328 C1.71477028,2.32355443 1.5293591,2.256038 1.43985225,2.17617981 C1.3129877,2.06299101 0.847831676,2.11211588 0.0443841841,2.32355443 L0,2.11981643 Z M10.3965304,6.33784094 C10.7004168,6.48210555 11.2478542,6.39734194 11.8096039,5.93649108 C12.1544293,5.65360162 12.5413366,5.1177091 12.7723255,4.73457709 C13.2168706,3.99722815 13.1898726,3.15179855 13.0462822,2.82763135 C12.9115939,2.52356117 12.5793807,2.40198314 12.4139952,2.40198314 C11.8229692,2.40198314 10.9733691,3.16462856 10.5164478,3.9557486 C10.0595264,4.74686864 9.54710766,5.93459277 10.3965304,6.33784094 Z" id="Combined-Shape" fill="#000000"></path>
                <path d="M23.2,2.11408414 L25.9604586,1.61714955 L25.2220512,4.21157227 C25.9408875,3.06546428 26.4549911,2.36630157 26.7643621,2.11408414 C27.5523729,1.4716514 28.2245727,1.49064765 28.48631,1.88108881 C28.7296992,2.24415955 28.6126211,2.89559816 28.0457862,4.4776805 C28.0235763,4.53967014 29.714984,1.3388951 31.1833013,1.61714955 C31.2955919,1.63842926 31.605225,1.90085649 31.6265462,2.11408414 C31.7054946,2.90362498 31.1538898,4.43147581 30.8063164,5.39428623 C30.66934,5.77372349 30.5415828,6.28084929 30.5305832,6.29455241 C30.5166004,6.31197206 30.5841206,6.49960583 30.74378,6.44517517 C31.2477197,6.27337329 32.3692755,5.63980608 32.2685233,5.69726692 C32.2389828,5.71411441 32.2108006,4.56712965 32.6962418,3.67470393 C32.9917751,3.13140119 33.6346852,2.52331918 34.0835978,2.16982597 C34.282212,2.01342852 35.0066297,1.45005742 36.2299317,1.73174297 C37.4532336,2.01342852 37.5890591,2.90909616 37.5987365,3.32806322 C37.6141769,3.99653272 37.4905592,4.76938985 37.0924131,5.39428623 C36.7105363,5.99364768 36.0588288,6.45562398 35.8303589,6.61725427 C35.4576264,6.88094265 34.8964378,7.16491631 34.3405136,7.19674481 C33.7575535,7.23012122 33.1840396,7.00036297 33.0014391,6.80412988 C32.7636174,6.54855288 32.5321809,6.24270625 32.3071296,5.88659 C32.0132744,6.08746623 31.3874713,6.47213534 30.4297203,7.04059734 C29.4555222,7.39160248 29.5476737,6.61725427 29.6210657,6.21844987 C29.5337109,6.24704074 29.9966496,4.99090826 30.35167,3.96388346 C30.6474672,3.10818343 30.8760388,2.47078581 30.5772893,2.31557541 C30.4297203,2.25045677 30.3404409,2.28805716 30.2212149,2.3531758 C30.0291267,2.45809026 29.277332,2.91749941 28.209705,4.69741057 C27.9984558,5.04959797 27.683664,5.81265669 27.2653295,6.98658672 L26.3850296,6.98658672 C26.7393233,5.80695879 26.9824074,4.99723381 27.114282,4.55741178 C27.4758306,3.35159166 27.6807059,2.65262629 27.6331656,2.56244899 C27.6331656,1.88108881 26.7397316,2.53539112 26.4834079,2.864908 C26.0756758,3.38906811 25.4597161,4.16188979 25.1029101,4.9688853 C24.6563236,5.97893932 24.5054589,6.98658672 24.4143511,6.98658672 C23.9024239,6.98658672 23.6036333,6.98658672 23.5179792,6.98658672 C23.9673696,5.25323687 24.4645066,3.78618263 24.7741761,2.68288853 C24.9216691,2.31557541 24.735512,2.24880352 24.6456451,2.16982597 C24.5182701,2.05788536 24.0512427,2.1064685 23.2445628,2.31557541 L23.2,2.11408414 Z M34.119487,6.76417293 C34.5674347,6.92679769 35.2380835,6.54842379 35.6465559,5.91879661 C35.9335042,5.47648906 36.1487311,5.19982273 36.3483967,4.68269903 C36.7013922,3.76845879 36.6370753,2.86134342 36.4895156,2.51083897 C36.3511039,2.18206435 35.8639505,1.9532307 35.5411159,2.01074916 C35.2033219,2.07093286 34.9197472,2.16458725 34.6223118,2.51083897 C34.3883238,2.78323015 34.1323941,3.26625055 33.9256481,3.64288483 C33.5856959,4.26218434 33.2322156,5.49250388 33.5048802,6.23578527 C33.6088281,6.51914669 33.8726698,6.67456741 34.119487,6.76417293 Z" id="Combined-Shape" fill="#000000"></path>
                <path d="M16.1304325,4.10070389 C17.1345884,1.05271724 19.2298522,-0.0533038306 20.9814431,0.00196220253 C21.549922,0.0198987953 22.1962898,0.197081662 22.6077365,0.421456825 C22.9308428,0.597657119 23.2046051,1.06831171 23.1999413,1.58200596 C23.1939597,2.24084272 22.7775581,2.98162847 21.9261887,3.38150024 C21.5723544,3.54768937 21.0987901,3.80017478 20.5336367,3.94947655 C19.9161235,4.11261074 19.1996213,4.16651799 18.667056,4.19593059 C17.961539,4.23489498 17.5904972,4.19593059 17.4557228,4.19593059 C17.3963679,4.36514154 16.9230199,6.48279281 18.8265332,7.0569486 C19.7237824,7.32758544 20.8022244,7.03327979 22.0618593,6.17403164 L22.2408961,6.44824137 C21.7053232,7.01143148 20.8304837,7.48974222 19.6163777,7.88317361 C16.7629433,8.60307043 15.5827039,5.8302031 16.1304325,4.10070389 Z M20.7096368,3.16105675 C21.4901641,2.72319325 22.0964407,1.76333961 21.9165321,1.11549696 C21.7366235,0.467654316 20.7455632,0.252633126 19.8050292,0.890590198 C18.8644952,1.52854727 17.9483934,2.96261012 17.9483934,3.64470727 C18.6372651,3.84566262 20.0544561,3.52745826 20.7096368,3.16105675 Z" id="Combined-Shape" fill="#FFA001"></path>
                <g id="Group-4" transform="translate(37.600000, 0.000000)" fill="#000000">
                    <polygon id="Rectangle-15" points="0 0 0.95156336 0 0.95156336 0.150561044 0.597352988 0.150561044 0.597352988 1.58662175 0.370354502 1.58662175 0.370354502 0.150561044 0 0.150561044"></polygon>
                    <polygon id="Rectangle-15" points="1.2 1.35890089e-05 1.38588522 1.35890089e-05 1.75491807 0.798692037 2.14173296 1.35890089e-05 2.30983615 1.35890089e-05 2.30983615 1.59737048 2.10592225 1.59737048 2.10592225 0.461328754 1.8197325 1.02628244 1.7038142 1.02628244 1.40033776 0.461328754 1.38588522 1.59737048 1.2 1.59737048"></polygon>
                </g>
            </g>
        </g>
    </g>
</svg>