<?xml version="1.0" encoding="UTF-8" standalone="no"?>
<svg
   xmlns:dc="http://purl.org/dc/elements/1.1/"
   xmlns:cc="http://creativecommons.org/ns#"
   xmlns:rdf="http://www.w3.org/1999/02/22-rdf-syntax-ns#"
   xmlns:svg="http://www.w3.org/2000/svg"
   xmlns="http://www.w3.org/2000/svg"
   xmlns:sodipodi="http://sodipodi.sourceforge.net/DTD/sodipodi-0.dtd"
   xmlns:inkscape="http://www.inkscape.org/namespaces/inkscape"
   version="1.0"
   width="550.000000pt"
   height="550.000000pt"
   viewBox="0 0 550.000000 550.000000"
   preserveAspectRatio="xMidYMid meet"
   id="svg4137"
   inkscape:version="0.48+devel_64bit r13443"
   sodipodi:docname="nintendo-switch.svg">
  <defs
     id="defs4151" />
  <sodipodi:namedview
     pagecolor="#ffffff"
     bordercolor="#666666"
     borderopacity="1"
     objecttolerance="10"
     gridtolerance="10"
     guidetolerance="10"
     inkscape:pageopacity="0"
     inkscape:pageshadow="2"
     inkscape:window-width="1920"
     inkscape:window-height="1018"
     id="namedview4149"
     showgrid="false"
     inkscape:zoom="1.2247273"
     inkscape:cx="343.75"
     inkscape:cy="343.75"
     inkscape:window-x="-8"
     inkscape:window-y="-8"
     inkscape:window-maximized="1"
     inkscape:current-layer="svg4137" />
  <metadata
     id="metadata4139">
Created by potrace 1.13, written by Peter Selinger 2001-2015
<rdf:RDF>
  <cc:Work
     rdf:about="">
    <dc:format>image/svg+xml</dc:format>
    <dc:type
       rdf:resource="http://purl.org/dc/dcmitype/StillImage" />
  </cc:Work>
</rdf:RDF>
</metadata>
  <g
     transform="translate(0.000000,550.000000) scale(0.100000,-0.100000)"
     fill="#000000"
     stroke="none"
     id="g4141"
     style="fill:#e4000f;fill-opacity:1">
    <path
       d="M1365 5154 c-481 -86 -868 -442 -990 -910 -44 -169 -47 -268 -42 -1579 3 -1204 4 -1232 24 -1325 111 -501 467 -858 973 -976 66 -15 150 -18 691 -21 560 -4 618 -3 633 12 15 15 16 208 16 2396 0 1622 -3 2386 -10 2400 -10 18 -27 19 -613 18 -476 -1 -619 -4 -682 -15z m905 -2400 l0 -2026 -407 5 c-375 4 -415 6 -490 25 -322 83 -561 331 -628 654 -22 101 -22 2589 -1 2688 60 281 255 514 518 619 132 53 193 59 621 60 l387 1 0 -2026z"
       id="path4143"
       style="fill:#e4000f;fill-opacity:1" />
    <path
       d="M1451 4169 c-63 -12 -159 -60 -210 -105 -105 -91 -157 -220 -149 -372 4 -79 9 -100 41 -164 47 -97 118 -168 215 -216 67 -33 84 -37 171 -40 79 -3 107 0 160 18 217 73 348 284 311 500 -43 257 -287 429 -539 379z"
       id="path4145"
       style="fill:#e4000f;fill-opacity:1" />
    <path
       d="M3157 5163 c-4 -3 -7 -1087 -7 -2409 0 -2181 1 -2402 16 -2408 27 -10 803 -6 899 4 406 46 764 293 959 660 25 47 58 126 75 175 63 188 61 138 61 1575 0 1147 -2 1318 -16 1391 -99 521 -496 914 -1018 1004 -70 12 -178 15 -526 15 -240 0 -440 -3 -443 -7z m1068 -2178 c156 -41 284 -160 336 -312 33 -94 32 -232 -1 -318 -61 -158 -181 -269 -335 -310 -250 -65 -516 86 -589 334 -22 76 -21 204 4 282 75 245 335 389 585 324z"
       id="path4147"
       style="fill:#e4000f;fill-opacity:1" />
  </g>
</svg>
