<?xml version="1.0" encoding="UTF-8"?>
<svg width="20px" height="20px" viewBox="0 0 20 20" version="1.1" xmlns="http://www.w3.org/2000/svg" xmlns:xlink="http://www.w3.org/1999/xlink">
    <!-- Generator: sketchtool 51.3 (57544) - http://www.bohemiancoding.com/sketch -->
    <title>4404B973-5130-46A4-AF26-0B0867CE7595</title>
    <desc>Created with sketchtool.</desc>
    <defs>
        <path d="M12.1531254,3.01561326 C12.3835828,3.29149968 12.5928422,3.58569853 12.7783912,3.89569756 C13.3956337,4.92693223 13.7504956,6.13301318 13.7504956,7.42145906 C13.7504956,11.2139345 10.6649487,13.9916839 6.87524557,14.0000007 C3.09108699,14.0083176 0.0055445547,11.2194791 5.18868527e-13,7.43254816 C-0.00277227735,4.98185495 1.27524758,2.82779542 3.20198034,1.60799337 C3.36277242,1.5054191 3.57623778,1.55809237 3.67049521,1.72442902 L3.99762394,2.30383499 C4.08356453,2.45631025 4.03643582,2.65036967 3.88950512,2.7446271 C2.35089119,3.73155785 1.33069313,5.45591438 1.33069313,7.42145906 C1.33069313,10.4848256 3.79801772,12.6693076 6.86138419,12.6693076 C9.92475066,12.6693076 12.4198025,10.4848256 12.4198025,7.42145906 C12.4198025,6.07796724 11.9431645,4.84715888 11.1501286,3.88838891 C10.7829435,3.44446688 11.6953373,2.4675834 12.1531254,3.01561326 Z M7.54059412,5.96296296 C7.54059412,6.10555556 7.39089114,6.22222222 7.20792084,6.22222222 L6.54257429,6.22222222 C6.35960399,6.22222222 6.20990102,6.10555556 6.20990102,5.96296296 L6.20990102,0.259259259 C6.20990102,0.116666667 6.35960399,0 6.54257429,0 L7.20792084,0 C7.39089114,0 7.54059412,0.116666667 7.54059412,0.259259259 L7.54059412,5.96296296 Z M9.84014189,2.9098849 C9.85700334,2.66875497 10.0659647,2.48710764 10.3070755,2.50424186 L13.5271421,2.72941085 C14.1103274,2.77019113 14.3531592,3.49573355 13.9118889,3.87932399 C12.1855789,3.71753569 11.2293659,3.71753569 11.0432497,3.879324 C10.8571336,4.0411123 10.7427602,4.97175887 10.7001297,6.67126371 C10.2588594,7.05485415 9.57417354,6.71340958 9.61495383,6.13022429 L9.84014189,2.9098849 Z" id="path-1"></path>
    </defs>
    <g id="Dashboard/Diagnosis" stroke="none" stroke-width="1" fill="none" fill-rule="evenodd">
        <g id="newSchedule-POE-Disable" transform="translate(-1224.000000, -506.000000)">
            <g id="Enable" transform="translate(1224.000000, 506.000000)">
                <circle id="Oval" fill="#114684" cx="10" cy="10" r="10"></circle>
                <g id="ic/Reflash/Reflash-3" transform="translate(3.000000, 3.000000)">
                    <g id="🎨icon-color">
                        <mask id="mask-2" fill="white">
                            <use xlink:href="#path-1"></use>
                        </mask>
                        <use id="Mask" fill="#000000" fill-rule="nonzero" xlink:href="#path-1"></use>
                        <g mask="url(#mask-2)" fill="#FFFFFF" id="Icon-Shade">
                            <rect x="0" y="0" width="14" height="14"></rect>
                        </g>
                    </g>
                </g>
            </g>
        </g>
    </g>
</svg>