<?xml version="1.0" encoding="UTF-8"?>
<svg width="16px" height="16px" viewBox="0 0 18 18" version="1.1" xmlns="http://www.w3.org/2000/svg" xmlns:xlink="http://www.w3.org/1999/xlink">
    <!-- Generator: sketchtool 51.3 (57544) - http://www.bohemiancoding.com/sketch -->
    <title>91383031-0802-4353-A1B6-122A00524D76</title>
    <desc>Created with sketchtool.</desc>
    <defs>
        <path d="M2.2027972,13.2307692 C0.776223776,13.2307692 0,12.4825175 0,11.048951 L0,4.62937063 C0,3.2027972 0.832167832,2.45454545 2.2027972,2.45454545 L2.83916084,2.45454545 L2.83916084,2.06993007 C2.83916084,0.65034965 3.60839161,0 4.92307692,0 L11.0769231,0 C12.4475524,0 13.1538462,0.65034965 13.1538462,2.06993007 L13.1538462,2.45454545 L13.7972028,2.45454545 C15.2237762,2.45454545 16,3.2027972 16,4.62937063 L16,11.048951 C16,12.4825175 15.2237762,13.2307692 13.7972028,13.2307692 L13.0699301,13.2307692 L13.0699301,13.9160839 C13.0699301,14.951049 12.5734266,15.4125874 11.5734266,15.4125874 L4.42657343,15.4125874 C3.42657343,15.4125874 2.93006993,14.951049 2.93006993,13.9160839 L2.93006993,13.2307692 L2.2027972,13.2307692 Z M4.13986014,1.97202797 L4.13986014,2.45454545 L11.8601399,2.45454545 L11.8601399,1.97202797 C11.8601399,1.45454545 11.5944056,1.18881119 11.0769231,1.18881119 L4.92307692,1.18881119 C4.40559441,1.18881119 4.13986014,1.45454545 4.13986014,1.97202797 Z M2.2027972,11.979021 L2.93006993,11.979021 L2.93006993,8.03496503 C2.93006993,7 3.46153846,6.53846154 4.42657343,6.53846154 L11.5734266,6.53846154 C12.5734266,6.53846154 13.0699301,7 13.0699301,8.03496503 L13.0699301,11.979021 L13.7972028,11.979021 C14.3706294,11.979021 14.6713287,11.6713287 14.6713287,11.1048951 L14.6713287,4.58041958 C14.6713287,4.00699301 14.3706294,3.70629371 13.7972028,3.70629371 L2.2027972,3.70629371 C1.62937063,3.70629371 1.32867133,4.00699301 1.32867133,4.58041958 L1.32867133,11.1048951 C1.32867133,11.6713287 1.62937063,11.979021 2.2027972,11.979021 Z M4.71328671,14.1958042 L11.2937063,14.1958042 C11.6293706,14.1958042 11.7902098,14.027972 11.7902098,13.6923077 L11.7902098,8.25874126 C11.7902098,7.92307692 11.6293706,7.76223776 11.2937063,7.76223776 L4.71328671,7.76223776 C4.37762238,7.76223776 4.2027972,7.92307692 4.2027972,8.25874126 L4.2027972,13.6923077 C4.2027972,14.027972 4.37762238,14.1958042 4.71328671,14.1958042 Z M5.6993007,10.2307692 C5.44055944,10.2307692 5.24475524,10.034965 5.24475524,9.77622378 C5.24475524,9.53146853 5.44055944,9.34265734 5.6993007,9.34265734 L10.3146853,9.34265734 C10.5664336,9.34265734 10.7622378,9.53146853 10.7622378,9.77622378 C10.7622378,10.034965 10.5664336,10.2307692 10.3146853,10.2307692 L5.6993007,10.2307692 Z M5.6993007,12.6363636 C5.44055944,12.6363636 5.24475524,12.4405594 5.24475524,12.1958042 C5.24475524,11.9440559 5.44055944,11.7482517 5.6993007,11.7482517 L10.3146853,11.7482517 C10.5664336,11.7482517 10.7622378,11.9440559 10.7622378,12.1958042 C10.7622378,12.4405594 10.5664336,12.6363636 10.3146853,12.6363636 L5.6993007,12.6363636 Z" id="path-1"></path>
    </defs>
    <g id="guidline" stroke="none" stroke-width="1" fill="none" fill-rule="evenodd">
        <g id="Icon" transform="translate(-146.000000, -747.000000)">
            <g id="Print-白" transform="translate(146.000000, 747.000000)">
                <g id="Print-白-ic/tool/白/Print">
                    <g id="🎨icon-color" transform="translate(1.000000, 1.000000)">
                        <mask id="mask-2" fill="white">
                            <use xlink:href="#path-1"></use>
                        </mask>
                        <use id="Mask" fill="#000000" xlink:href="#path-1"></use>
                        <g id="🎨icon-color-🎨icon-color/無障礙版/Gray/Gray6/Gray6-深色-" mask="url(#mask-2)" fill="#242426">
                            <g transform="translate(-1.000000, -1.000000)" id="Icon-Shade">
                                <rect x="0" y="0" width="18" height="18"></rect>
                            </g>
                        </g>
                    </g>
                </g>
            </g>
        </g>
    </g>
</svg>