<?xml version="1.0" encoding="UTF-8"?>
<svg width="50px" height="15px" viewBox="0 0 50 15" version="1.1" xmlns="http://www.w3.org/2000/svg" xmlns:xlink="http://www.w3.org/1999/xlink">
    <!-- Generator: Sketch 51.3 (57544) - http://www.bohemiancoding.com/sketch -->
    <title>roku -B</title>
    <desc>Created with Sketch.</desc>
    <defs></defs>
    <g id="Guidline" stroke="none" stroke-width="1" fill="none" fill-rule="evenodd">
        <g id="popup-guidline-copy" transform="translate(-618.000000, -1168.000000)" fill="#6C3C97" fill-rule="nonzero">
            <g id="roku--B" transform="translate(618.000000, 1168.000000)">
                <path d="M7.892,4.94358521 C7.892,3.57477492 6.7504,2.47244373 5.35445,2.47244373 L4.09605,2.47244373 L4.09605,7.39287781 L5.35445,7.39287781 C6.7504,7.39287781 7.892,6.28977492 7.892,4.94358521 M13.6163,14.7526206 L8.9969,14.7526206 L5.3295,9.84318328 L4.09605,9.84318328 L4.09605,14.7420096 L0.025,14.7420096 L0.025,0.0246463023 L5.857,0.0246463023 C9.2191,0.0246463023 11.96335,2.23008039 11.96335,4.94358521 C11.96335,6.59850482 10.9113,8.07665595 9.3102,8.98109325 L13.6163,14.7526206" id="Shape"></path>
                <path d="M18.2075,5.82680064 C17.1324,5.82680064 16.2179,7.23646302 16.2179,8.98143087 C16.2179,10.7263987 17.1324,12.1378457 18.2075,12.1378457 C19.30755,12.1378457 20.22055,10.7263505 20.22055,8.98143087 C20.22055,7.23641479 19.30755,5.82680064 18.2075,5.82680064 Z M24.4737,8.98143087 C24.4737,12.315 21.66335,14.9844212 18.2075,14.9844212 C14.7528,14.9844212 11.9632,12.315 11.9632,8.98143087 C11.9632,5.65036977 14.7528,2.97950161 18.2075,2.97950161 C21.66335,2.97950161 24.4737,5.65036977 24.4737,8.98143087 Z M34.0272,3.22360129 L29.33755,7.74665595 L29.33755,3.20864952 L25.2673,3.20864952 L25.2673,14.7419614 L29.33755,14.7419614 L29.33755,10.0636013 L34.23355,14.7419614 L39.35665,14.7419614 L33.135,8.73959807 L38.2883,3.77040193 L38.2883,10.6147428 C38.2883,12.8871704 39.705,14.9843248 43.2727,14.9843248 C44.9664,14.9843248 46.52065,14.057701 47.27605,13.2192926 L49.1062,14.7419132 L49.975,14.7419132 L49.975,3.22360129 L45.9047,3.22360129 L45.9047,10.6811093 C45.44635,11.4528135 44.8077,11.9380225 43.82065,11.9380225 C42.8192,11.9380225 42.3597,11.3653215 42.3597,9.53353698 L42.3597,3.22360129 L34.0272,3.22360129 Z" id="Shape"></path>
            </g>
        </g>
    </g>
</svg>