<?xml version="1.0" encoding="UTF-8"?>
<svg width="40px" height="10px" viewBox="0 0 40 10" version="1.1" xmlns="http://www.w3.org/2000/svg" xmlns:xlink="http://www.w3.org/1999/xlink">
    <!-- Generator: Sketch 51.3 (57544) - http://www.bohemiancoding.com/sketch -->
    <title>Symbian</title>
    <desc>Created with Sketch.</desc>
    <defs></defs>
    <g id="Guidline" stroke="none" stroke-width="1" fill="none" fill-rule="evenodd">
        <g id="popup-guidline-copy" transform="translate(-120.000000, -92.000000)" fill="#018CC9">
            <g id="Symbian" transform="translate(120.000000, 92.000000)">
                <path d="M4.02430359,5.84896097 C4.02430359,5.56174886 3.92566969,5.34127463 3.72839892,5.18753168 C3.53112815,5.03378872 3.17604609,4.87160079 2.66314208,4.700963 C2.15023808,4.53032522 1.74419517,4.36222418 1.44500117,4.19665484 C0.629615317,3.74387339 0.221928507,3.13397917 0.221928507,2.36695388 C0.221928507,1.96823588 0.331247752,1.61260504 0.549889523,1.30005068 C0.768531293,0.987496325 1.08251589,0.743369691 1.49185274,0.567663457 C1.90118959,0.391957223 2.3606592,0.304105423 2.87027536,0.304105423 C3.38317936,0.304105423 3.84018312,0.399559782 4.24130035,0.590471363 C4.64241759,0.781382945 4.95393634,1.05085144 5.17586596,1.39888495 C5.39779557,1.74691845 5.50875872,2.14225155 5.50875872,2.5848961 L4.02923534,2.5848961 C4.02923534,2.24699949 3.92566974,1.98428882 3.71853543,1.79675621 C3.51140112,1.60922359 3.2204311,1.51545869 2.84561663,1.51545869 C2.48395355,1.51545869 2.20284692,1.59401847 2.00228831,1.7511404 C1.80172969,1.90826232 1.70145189,2.11522088 1.70145189,2.3720223 C1.70145189,2.61192889 1.81899062,2.81297435 2.05407162,2.97516472 C2.28915263,3.13735509 2.63519324,3.28940628 3.09220386,3.43132286 C3.93389248,3.69150324 4.5470666,4.01418966 4.9317446,4.39939179 C5.3164226,4.78459392 5.50875872,5.2643999 5.50875872,5.83882413 C5.50875872,6.47744871 5.27368124,6.97837291 4.80351924,7.34161176 C4.33335724,7.70485061 3.70045634,7.88646731 2.90479757,7.88646731 C2.35243941,7.88646731 1.84940649,7.78256566 1.39568372,7.57475925 C0.94196095,7.36695284 0.595920331,7.08227922 0.357551483,6.72072985 C0.119182636,6.35918049 0,5.94019498 0,5.46376077 L1.48445512,5.46376077 C1.48445512,6.27809159 1.95789787,6.68525089 2.90479757,6.68525089 C3.25659711,6.68525089 3.53112815,6.61175948 3.72839892,6.46477446 C3.92566969,6.31778943 4.02430359,6.11252032 4.02430359,5.84896097 Z M8.64429625,5.71211353 L9.63064517,2.30106437 L11.159486,2.30106437 L9.0141771,8.63659402 L8.89581522,8.92549417 C8.57689415,9.64183497 8.05084665,10 7.31765695,10 C7.11052264,10 6.90010365,9.9679003 6.68639365,9.90369995 L6.68639365,8.79371515 L6.90339041,8.79878358 C7.17299379,8.79878358 7.37437135,8.75654714 7.50752912,8.67207299 C7.64068689,8.58759883 7.74507444,8.44737385 7.8206949,8.25139382 L7.98837422,7.80030411 L6.11924302,2.30106437 L7.65301559,2.30106437 L8.64429625,5.71211353 Z M13.2938794,2.30106437 L13.3382651,2.91434364 C13.7163674,2.43790943 14.2276198,2.19969589 14.8720376,2.19969589 C15.5591975,2.19969589 16.0309963,2.47845641 16.2874483,3.03598581 C16.6622628,2.47845641 17.1965298,2.19969589 17.8902653,2.19969589 C18.4689263,2.19969589 18.8996277,2.37286531 19.1823824,2.71920933 C19.4651372,3.06555335 19.6065125,3.58675104 19.6065125,4.28281804 L19.6065125,7.78509883 L18.1763065,7.78509883 L18.1763065,4.28788647 C18.1763065,3.97702159 18.1171262,3.74978953 17.9987637,3.60618348 C17.8804013,3.46257742 17.6716262,3.39077547 17.3724322,3.39077547 C16.9450122,3.39077547 16.6491104,3.60026822 16.4847181,4.01926001 L16.4896499,7.78509883 L15.0643757,7.78509883 L15.0643757,4.29295489 C15.0643757,3.97533208 15.0035514,3.74556584 14.8819011,3.60364927 C14.7602508,3.46173269 14.5531196,3.39077547 14.2605013,3.39077547 C13.8560962,3.39077547 13.5634823,3.56310015 13.3826508,3.90775469 L13.3826508,7.78509883 L11.9573766,7.78509883 L11.9573766,2.30106437 L13.2938794,2.30106437 Z M25.7454825,5.09376584 C25.7454825,5.97229701 25.5630097,6.6573721 25.1980588,7.14901166 C24.8331079,7.64065122 24.3234994,7.88646731 23.669218,7.88646731 C23.0905571,7.88646731 22.6286216,7.65839052 22.2833977,7.20223011 L22.2192851,7.78509883 L20.9370315,7.78509883 L20.9370315,0 L22.3623057,0 L22.3623057,2.79270147 C22.6910903,2.39736244 23.1234356,2.19969589 23.6593545,2.19969589 C24.310348,2.19969589 24.8207785,2.44551199 25.1906612,2.93715155 C25.5605439,3.4287911 25.7454825,4.12062402 25.7454825,5.01267106 L25.7454825,5.09376584 Z M24.3202083,4.98732894 C24.3202083,4.43317851 24.2347255,4.0285534 24.0637575,3.77344146 C23.8927895,3.51832952 23.6379853,3.39077547 23.2993371,3.39077547 C22.8456144,3.39077547 22.5332737,3.58168419 22.3623057,3.96350735 L22.3623057,6.12772428 C22.5365615,6.51292641 22.85219,6.70552458 23.3092006,6.70552458 C23.7694991,6.70552458 24.0719764,6.47237942 24.2166416,6.00608211 C24.2856864,5.78307035 24.3202083,5.44348936 24.3202083,4.98732894 Z M28.3631868,7.78509883 L26.9329809,7.78509883 L26.9329809,2.30106437 L28.3631868,2.30106437 L28.3631868,7.78509883 Z M26.8491412,0.881905727 C26.8491412,0.662272935 26.9206508,0.481500963 27.0636721,0.339584389 C27.2066934,0.197667816 27.4014954,0.126710593 27.6480838,0.126710593 C27.8913845,0.126710593 28.0853645,0.197667816 28.2300297,0.339584389 C28.3746949,0.481500963 28.4470265,0.662272935 28.4470265,0.881905727 C28.4470265,1.10491749 28.373873,1.28737892 28.2275638,1.42929549 C28.0812547,1.57121206 27.8880966,1.64216929 27.6480838,1.64216929 C27.4080711,1.64216929 27.214913,1.57121206 27.0686039,1.42929549 C26.9222947,1.28737892 26.8491412,1.10491749 26.8491412,0.881905727 Z M32.8648176,7.78509883 C32.7990607,7.65331916 32.7513876,7.48944176 32.721797,7.29346173 C32.3765732,7.68880076 31.9277889,7.88646731 31.3754307,7.88646731 C30.8526632,7.88646731 30.419496,7.7310372 30.075916,7.42017233 C29.7323361,7.10930745 29.5605487,6.71735327 29.5605487,6.24429802 C29.5605487,5.66311586 29.7701458,5.21709904 30.1893462,4.90623416 C30.6085465,4.59536929 31.2143231,4.43824972 32.006694,4.43487076 L32.6626161,4.43487076 L32.6626161,4.12062848 C32.6626161,3.86720603 32.599326,3.66447111 32.4727439,3.51241764 C32.3461618,3.36036417 32.1464282,3.28433857 31.8735369,3.28433857 C31.6335242,3.28433857 31.4452978,3.34346959 31.3088522,3.4617334 C31.1724066,3.57999721 31.1041848,3.74218515 31.1041848,3.94830208 L29.6789106,3.94830208 C29.6789106,3.63067927 29.7742567,3.33671363 29.9649518,3.06639635 C30.1556469,2.79607907 30.4252462,2.58405213 30.7737579,2.43030917 C31.1222696,2.27656622 31.5135174,2.19969589 31.9475131,2.19969589 C32.6050823,2.19969589 33.1270201,2.36948639 33.513342,2.70907248 C33.8996639,3.04865857 34.092822,3.52593036 34.092822,4.14090218 L34.092822,6.5179929 C34.0961098,7.03835367 34.1667975,7.43199731 34.304887,7.69893563 L34.304887,7.78509883 L32.8648176,7.78509883 Z M31.6861306,6.76634567 C31.8965528,6.76634567 32.0905328,6.71819612 32.2680765,6.62189559 C32.4456202,6.52559506 32.5771321,6.39635155 32.6626161,6.23416118 L32.6626161,5.29143436 L32.1299877,5.29143436 C31.416525,5.29143436 31.0367845,5.54485302 30.9907546,6.05169792 L30.9858229,6.13786113 C30.9858229,6.32032529 31.048291,6.47068702 31.1732292,6.58895084 C31.2981674,6.70721465 31.4691328,6.76634567 31.6861306,6.76634567 Z M36.7351851,2.30106437 L36.7795708,2.93461733 C37.1609609,2.44466726 37.6722133,2.19969589 38.3133433,2.19969589 C38.8788529,2.19969589 39.2996909,2.37033112 39.57587,2.71160669 C39.852049,3.05288226 39.9934243,3.56309848 40,4.24227065 L40,7.78509883 L38.5747258,7.78509883 L38.5747258,4.27774962 C38.5747258,3.96688474 38.5089699,3.74134214 38.377456,3.60111505 C38.2459422,3.46088796 38.0273037,3.39077547 37.721534,3.39077547 C37.3204168,3.39077547 37.0195834,3.56647907 36.8190247,3.91789154 L36.8190247,7.78509883 L35.3937505,7.78509883 L35.3937505,2.30106437 L36.7351851,2.30106437 Z"></path>
            </g>
        </g>
    </g>
</svg>