<?xml version="1.0" encoding="UTF-8"?>
<svg width="19px" height="19px" viewBox="0 0 19 19" version="1.1" xmlns="http://www.w3.org/2000/svg" xmlns:xlink="http://www.w3.org/1999/xlink">
    <!-- Generator: sketchtool 51.3 (57544) - http://www.bohemiancoding.com/sketch -->
    <title>B2F5204B-1F0D-4E25-9DDA-1E70D4A9E54E</title>
    <desc>Created with sketchtool.</desc>
    <defs>
        <path d="M16.7177734,3.10605483 L9.59277344,0.137304694 C9.15443842,-0.044534381 8.66177251,-0.044534381 8.2234375,0.137304694 L1.0984375,3.10605483 C0.434179687,3.38066422 0,4.03007831 0,4.75000022 C0,12.1162115 4.24902344,17.207618 8.21972656,18.8626962 C8.65761719,19.0445321 9.15117188,19.0445321 9.5890625,18.8626962 C12.7693359,17.5378914 17.8125,12.9623053 17.8125,4.75000022 C17.8125,4.03007831 17.3783203,3.38066422 16.7177734,3.10605483 Z" id="path-1"></path>
        <path d="M5.38722231,4.44444452 L8.23611125,1.59555558 L8.82361126,1.00805557 C8.91027793,0.921388905 8.91027793,0.780555569 8.82361126,0.693888901 L8.19500014,0.0652777789 C8.10833347,-0.0213888893 7.96750014,-0.0213888893 7.88083347,0.0652777789 L4.44444452,3.50166673 L1.00805557,0.0650000011 C0.921388905,-0.021666667 0.780555569,-0.021666667 0.693888901,0.0650000011 L0.0650000011,0.693611123 C-0.021666667,0.780277791 -0.021666667,0.921111127 0.0650000011,1.0077778 L3.50166673,4.44444452 L0.0650000011,7.88083347 C-0.021666667,7.96750014 -0.021666667,8.10833347 0.0650000011,8.19500014 L0.693611123,8.82361126 C0.780277791,8.91027793 0.921111127,8.91027793 1.0077778,8.82361126 L4.44444452,5.38722231 L7.29333346,8.23611125 L7.88083347,8.82361126 C7.96750014,8.91027793 8.10833347,8.91027793 8.19500014,8.82361126 L8.82361126,8.19500014 C8.91027793,8.10833347 8.91027793,7.96750014 8.82361126,7.88083347 L5.38722231,4.44444452 Z" id="path-3"></path>
    </defs>
    <g id="Backup" stroke="none" stroke-width="1" fill="none" fill-rule="evenodd">
        <g transform="translate(-1217.000000, -235.000000)" id="UnProtect">
            <g transform="translate(1217.000000, 235.000000)">
                <g id="ic/Shield/Shield-1">
                    <g id="🎨icon-color" transform="translate(1.055556, 0.000000)">
                        <mask id="mask-2" fill="white">
                            <use xlink:href="#path-1"></use>
                        </mask>
                        <use id="Mask" fill="#000000" fill-rule="nonzero" xlink:href="#path-1"></use>
                        <g mask="url(#mask-2)" fill="#0071A4" id="Icon-Shade">
                            <g transform="translate(-1.055556, 0.000000)">
                                <rect x="0" y="0" width="19" height="19"></rect>
                            </g>
                        </g>
                    </g>
                </g>
                <g id="ic/常用/符號/X" transform="translate(5.000000, 4.000000)">
                    <g id="🎨icon-color" transform="translate(0.555556, 0.555556)">
                        <mask id="mask-4" fill="white">
                            <use xlink:href="#path-3"></use>
                        </mask>
                        <use id="Mask" fill="#000000" fill-rule="nonzero" xlink:href="#path-3"></use>
                        <g mask="url(#mask-4)" fill="#FFFFFF" id="Icon-Shade">
                            <rect x="0" y="0" width="8.88888931" height="8.88888931"></rect>
                        </g>
                    </g>
                </g>
            </g>
        </g>
    </g>
</svg>